%TF.GenerationSoftware,KiCad,Pcbnew,(6.0.9)*%
%TF.CreationDate,2022-11-10T13:56:48+05:30*%
%TF.ProjectId,Kajimba,4b616a69-6d62-4612-9e6b-696361645f70,rev?*%
%TF.SameCoordinates,Original*%
%TF.FileFunction,Copper,L1,Top*%
%TF.FilePolarity,Positive*%
%FSLAX46Y46*%
G04 Gerber Fmt 4.6, Leading zero omitted, Abs format (unit mm)*
G04 Created by KiCad (PCBNEW (6.0.9)) date 2022-11-10 13:56:48*
%MOMM*%
%LPD*%
G01*
G04 APERTURE LIST*
G04 Aperture macros list*
%AMRoundRect*
0 Rectangle with rounded corners*
0 $1 Rounding radius*
0 $2 $3 $4 $5 $6 $7 $8 $9 X,Y pos of 4 corners*
0 Add a 4 corners polygon primitive as box body*
4,1,4,$2,$3,$4,$5,$6,$7,$8,$9,$2,$3,0*
0 Add four circle primitives for the rounded corners*
1,1,$1+$1,$2,$3*
1,1,$1+$1,$4,$5*
1,1,$1+$1,$6,$7*
1,1,$1+$1,$8,$9*
0 Add four rect primitives between the rounded corners*
20,1,$1+$1,$2,$3,$4,$5,0*
20,1,$1+$1,$4,$5,$6,$7,0*
20,1,$1+$1,$6,$7,$8,$9,0*
20,1,$1+$1,$8,$9,$2,$3,0*%
G04 Aperture macros list end*
%TA.AperFunction,ComponentPad*%
%ADD10R,2.200000X2.200000*%
%TD*%
%TA.AperFunction,ComponentPad*%
%ADD11O,2.200000X2.200000*%
%TD*%
%TA.AperFunction,ComponentPad*%
%ADD12R,1.600000X1.600000*%
%TD*%
%TA.AperFunction,ComponentPad*%
%ADD13C,1.600000*%
%TD*%
%TA.AperFunction,ComponentPad*%
%ADD14R,1.700000X1.700000*%
%TD*%
%TA.AperFunction,ComponentPad*%
%ADD15O,1.700000X1.700000*%
%TD*%
%TA.AperFunction,ComponentPad*%
%ADD16RoundRect,0.250000X0.725000X-0.600000X0.725000X0.600000X-0.725000X0.600000X-0.725000X-0.600000X0*%
%TD*%
%TA.AperFunction,ComponentPad*%
%ADD17O,1.950000X1.700000*%
%TD*%
%TA.AperFunction,ComponentPad*%
%ADD18C,3.000000*%
%TD*%
%TA.AperFunction,ComponentPad*%
%ADD19C,2.500000*%
%TD*%
%TA.AperFunction,ComponentPad*%
%ADD20R,2.020000X5.020000*%
%TD*%
%TA.AperFunction,ComponentPad*%
%ADD21O,2.020000X5.020000*%
%TD*%
%TA.AperFunction,ComponentPad*%
%ADD22R,1.800000X1.800000*%
%TD*%
%TA.AperFunction,ComponentPad*%
%ADD23C,1.800000*%
%TD*%
%TA.AperFunction,ComponentPad*%
%ADD24O,3.048000X1.850000*%
%TD*%
%TA.AperFunction,ComponentPad*%
%ADD25O,1.600000X1.600000*%
%TD*%
%TA.AperFunction,ComponentPad*%
%ADD26R,1.050000X1.500000*%
%TD*%
%TA.AperFunction,ComponentPad*%
%ADD27O,1.050000X1.500000*%
%TD*%
%TA.AperFunction,ComponentPad*%
%ADD28R,2.000000X1.905000*%
%TD*%
%TA.AperFunction,ComponentPad*%
%ADD29O,2.000000X1.905000*%
%TD*%
%TA.AperFunction,SMDPad,CuDef*%
%ADD30R,1.700000X3.500000*%
%TD*%
%TA.AperFunction,SMDPad,CuDef*%
%ADD31R,3.500000X1.700000*%
%TD*%
%TA.AperFunction,Conductor*%
%ADD32C,0.800000*%
%TD*%
%TA.AperFunction,Conductor*%
%ADD33C,0.250000*%
%TD*%
%TA.AperFunction,Conductor*%
%ADD34C,3.000000*%
%TD*%
G04 APERTURE END LIST*
D10*
%TO.P,D2,1,K*%
%TO.N,Net-(C1-Pad1)*%
X143510000Y-77470000D03*
D11*
%TO.P,D2,2,A*%
%TO.N,+12V*%
X133350000Y-77470000D03*
%TD*%
D12*
%TO.P,C1,1*%
%TO.N,Net-(C1-Pad1)*%
X135890000Y-85090000D03*
D13*
%TO.P,C1,2*%
%TO.N,GND*%
X135890000Y-87590000D03*
%TD*%
D14*
%TO.P,J4,1,Pin_1*%
%TO.N,GND*%
X173990000Y-110490000D03*
%TD*%
%TO.P,J5,1,Pin_1*%
%TO.N,Button*%
X176149000Y-118110000D03*
D15*
%TO.P,J5,2,Pin_2*%
%TO.N,+3.3V*%
X173609000Y-118110000D03*
%TD*%
D16*
%TO.P,J2,1,Pin_1*%
%TO.N,+3.3V*%
X180340000Y-116800000D03*
D17*
%TO.P,J2,2,Pin_2*%
%TO.N,GND*%
X180340000Y-114300000D03*
%TO.P,J2,3,Pin_3*%
%TO.N,Sensor*%
X180340000Y-111800000D03*
%TD*%
D18*
%TO.P,K1,1*%
%TO.N,+12V*%
X173990000Y-82550000D03*
D19*
%TO.P,K1,2*%
%TO.N,Net-(D3-Pad2)*%
X167940000Y-84500000D03*
D18*
%TO.P,K1,3*%
%TO.N,Net-(J6-Pad2)*%
X167940000Y-96700000D03*
%TO.P,K1,4*%
%TO.N,Net-(J6-Pad1)*%
X179990000Y-96750000D03*
D19*
%TO.P,K1,5*%
%TO.N,+3.3V*%
X179940000Y-84500000D03*
%TD*%
D20*
%TO.P,J1,1*%
%TO.N,+12V*%
X129280000Y-82550000D03*
D21*
%TO.P,J1,2*%
%TO.N,GND*%
X124100000Y-82550000D03*
%TD*%
D22*
%TO.P,D1,1,K*%
%TO.N,Net-(D1-Pad1)*%
X161290000Y-95250000D03*
D23*
%TO.P,D1,2,A*%
%TO.N,Relay*%
X158750000Y-95250000D03*
%TD*%
D24*
%TO.P,SW1,1,1*%
%TO.N,Button*%
X156320000Y-106720000D03*
X168820000Y-106720000D03*
%TO.P,SW1,2,2*%
%TO.N,+3.3V*%
X156320000Y-111720000D03*
X168820000Y-111720000D03*
%TD*%
D14*
%TO.P,J3,1,Pin_1*%
%TO.N,GND*%
X169370000Y-118110000D03*
D15*
%TO.P,J3,2,Pin_2*%
%TO.N,+5V*%
X166830000Y-118110000D03*
%TO.P,J3,3,Pin_3*%
%TO.N,SDA*%
X164290000Y-118110000D03*
%TO.P,J3,4,Pin_4*%
%TO.N,SCL*%
X161750000Y-118110000D03*
%TD*%
D14*
%TO.P,J6,1,Pin_1*%
%TO.N,Net-(J6-Pad1)*%
X180340000Y-104140000D03*
D15*
%TO.P,J6,2,Pin_2*%
%TO.N,Net-(J6-Pad2)*%
X180340000Y-106680000D03*
%TD*%
D13*
%TO.P,R1,1*%
%TO.N,Net-(D1-Pad1)*%
X152400000Y-81280000D03*
D25*
%TO.P,R1,2*%
%TO.N,Net-(Q1-Pad2)*%
X162560000Y-81280000D03*
%TD*%
D26*
%TO.P,Q1,1,C*%
%TO.N,Net-(D3-Pad2)*%
X163830000Y-86360000D03*
D27*
%TO.P,Q1,2,B*%
%TO.N,Net-(Q1-Pad2)*%
X162560000Y-86360000D03*
%TO.P,Q1,3,E*%
%TO.N,GND*%
X161290000Y-86360000D03*
%TD*%
D28*
%TO.P,U2,1,VI*%
%TO.N,Net-(C1-Pad1)*%
X145105000Y-83820000D03*
D29*
%TO.P,U2,2,GND*%
%TO.N,GND*%
X145105000Y-86360000D03*
%TO.P,U2,3,VO*%
%TO.N,+5V*%
X145105000Y-88900000D03*
%TD*%
D10*
%TO.P,D3,1,K*%
%TO.N,+3.3V*%
X179070000Y-78740000D03*
D11*
%TO.P,D3,2,A*%
%TO.N,Net-(D3-Pad2)*%
X168910000Y-78740000D03*
%TD*%
D12*
%TO.P,C2,1*%
%TO.N,+5V*%
X154940000Y-88900000D03*
D13*
%TO.P,C2,2*%
%TO.N,GND*%
X154940000Y-86400000D03*
%TD*%
D15*
%TO.P,U1,1,GPIO0*%
%TO.N,SDA*%
X101600000Y-114300000D03*
D30*
X101600000Y-115200000D03*
%TO.P,U1,2,GPIO1*%
%TO.N,SCL*%
X104140000Y-115200000D03*
D15*
X104140000Y-114300000D03*
D30*
%TO.P,U1,3,GND*%
%TO.N,GND*%
X106680000Y-115200000D03*
D14*
X106680000Y-114300000D03*
D30*
%TO.P,U1,4,GPIO2*%
%TO.N,unconnected-(U1-Pad4)*%
X109220000Y-115200000D03*
D15*
X109220000Y-114300000D03*
D30*
%TO.P,U1,5,GPIO3*%
%TO.N,unconnected-(U1-Pad5)*%
X111760000Y-115200000D03*
D15*
X111760000Y-114300000D03*
D30*
%TO.P,U1,6,GPIO4*%
%TO.N,unconnected-(U1-Pad6)*%
X114300000Y-115200000D03*
D15*
X114300000Y-114300000D03*
D30*
%TO.P,U1,7,GPIO5*%
%TO.N,unconnected-(U1-Pad7)*%
X116840000Y-115200000D03*
D15*
X116840000Y-114300000D03*
D14*
%TO.P,U1,8,GND*%
%TO.N,GND*%
X119380000Y-114300000D03*
D30*
X119380000Y-115200000D03*
%TO.P,U1,9,GPIO6*%
%TO.N,unconnected-(U1-Pad9)*%
X121920000Y-115200000D03*
D15*
X121920000Y-114300000D03*
D30*
%TO.P,U1,10,GPIO7*%
%TO.N,unconnected-(U1-Pad10)*%
X124460000Y-115200000D03*
D15*
X124460000Y-114300000D03*
D30*
%TO.P,U1,11,GPIO8*%
%TO.N,unconnected-(U1-Pad11)*%
X127000000Y-115200000D03*
D15*
X127000000Y-114300000D03*
D30*
%TO.P,U1,12,GPIO9*%
%TO.N,unconnected-(U1-Pad12)*%
X129540000Y-115200000D03*
D15*
X129540000Y-114300000D03*
D14*
%TO.P,U1,13,GND*%
%TO.N,GND*%
X132080000Y-114300000D03*
D30*
X132080000Y-115200000D03*
%TO.P,U1,14,GPIO10*%
%TO.N,unconnected-(U1-Pad14)*%
X134620000Y-115200000D03*
D15*
X134620000Y-114300000D03*
%TO.P,U1,15,GPIO11*%
%TO.N,unconnected-(U1-Pad15)*%
X137160000Y-114300000D03*
D30*
X137160000Y-115200000D03*
%TO.P,U1,16,GPIO12*%
%TO.N,unconnected-(U1-Pad16)*%
X139700000Y-115200000D03*
D15*
X139700000Y-114300000D03*
%TO.P,U1,17,GPIO13*%
%TO.N,unconnected-(U1-Pad17)*%
X142240000Y-114300000D03*
D30*
X142240000Y-115200000D03*
%TO.P,U1,18,GND*%
%TO.N,GND*%
X144780000Y-115200000D03*
D14*
X144780000Y-114300000D03*
D15*
%TO.P,U1,19,GPIO14*%
%TO.N,unconnected-(U1-Pad19)*%
X147320000Y-114300000D03*
D30*
X147320000Y-115200000D03*
%TO.P,U1,20,GPIO15*%
%TO.N,unconnected-(U1-Pad20)*%
X149860000Y-115200000D03*
D15*
X149860000Y-114300000D03*
%TO.P,U1,21,GPIO16*%
%TO.N,Relay*%
X149860000Y-96520000D03*
D30*
X149860000Y-95620000D03*
D15*
%TO.P,U1,22,GPIO17*%
%TO.N,Sensor*%
X147320000Y-96520000D03*
D30*
X147320000Y-95620000D03*
%TO.P,U1,23,GND*%
%TO.N,GND*%
X144780000Y-95620000D03*
D14*
X144780000Y-96520000D03*
D15*
%TO.P,U1,24,GPIO18*%
%TO.N,Button*%
X142240000Y-96520000D03*
D30*
X142240000Y-95620000D03*
%TO.P,U1,25,GPIO19*%
%TO.N,unconnected-(U1-Pad25)*%
X139700000Y-95620000D03*
D15*
X139700000Y-96520000D03*
%TO.P,U1,26,GPIO20*%
%TO.N,unconnected-(U1-Pad26)*%
X137160000Y-96520000D03*
D30*
X137160000Y-95620000D03*
D15*
%TO.P,U1,27,GPIO21*%
%TO.N,unconnected-(U1-Pad27)*%
X134620000Y-96520000D03*
D30*
X134620000Y-95620000D03*
D14*
%TO.P,U1,28,GND*%
%TO.N,GND*%
X132080000Y-96520000D03*
D30*
X132080000Y-95620000D03*
D15*
%TO.P,U1,29,GPIO22*%
%TO.N,unconnected-(U1-Pad29)*%
X129540000Y-96520000D03*
D30*
X129540000Y-95620000D03*
D15*
%TO.P,U1,30,RUN*%
%TO.N,unconnected-(U1-Pad30)*%
X127000000Y-96520000D03*
D30*
X127000000Y-95620000D03*
D15*
%TO.P,U1,31,GPIO26_ADC0*%
%TO.N,unconnected-(U1-Pad31)*%
X124460000Y-96520000D03*
D30*
X124460000Y-95620000D03*
D15*
%TO.P,U1,32,GPIO27_ADC1*%
%TO.N,unconnected-(U1-Pad32)*%
X121920000Y-96520000D03*
D30*
X121920000Y-95620000D03*
D14*
%TO.P,U1,33,AGND*%
%TO.N,unconnected-(U1-Pad33)*%
X119380000Y-96520000D03*
D30*
X119380000Y-95620000D03*
%TO.P,U1,34,GPIO28_ADC2*%
%TO.N,unconnected-(U1-Pad34)*%
X116840000Y-95620000D03*
D15*
X116840000Y-96520000D03*
D30*
%TO.P,U1,35,ADC_VREF*%
%TO.N,unconnected-(U1-Pad35)*%
X114300000Y-95620000D03*
D15*
X114300000Y-96520000D03*
%TO.P,U1,36,3V3*%
%TO.N,unconnected-(U1-Pad36)*%
X111760000Y-96520000D03*
D30*
X111760000Y-95620000D03*
D15*
%TO.P,U1,37,3V3_EN*%
%TO.N,+3.3V*%
X109220000Y-96520000D03*
D30*
X109220000Y-95620000D03*
%TO.P,U1,38,GND*%
%TO.N,GND*%
X106680000Y-95620000D03*
D14*
X106680000Y-96520000D03*
D15*
%TO.P,U1,39,VSYS*%
%TO.N,+5V*%
X104140000Y-96520000D03*
D30*
X104140000Y-95620000D03*
D15*
%TO.P,U1,40,VBUS*%
%TO.N,unconnected-(U1-Pad40)*%
X101600000Y-96520000D03*
D30*
X101600000Y-95620000D03*
D15*
%TO.P,U1,41,SWCLK*%
%TO.N,unconnected-(U1-Pad41)*%
X149630000Y-107950000D03*
D31*
X150530000Y-107950000D03*
%TO.P,U1,42,GND*%
%TO.N,unconnected-(U1-Pad42)*%
X150530000Y-105410000D03*
D14*
X149630000Y-105410000D03*
D31*
%TO.P,U1,43,SWDIO*%
%TO.N,unconnected-(U1-Pad43)*%
X150530000Y-102870000D03*
D15*
X149630000Y-102870000D03*
%TD*%
D32*
%TO.N,Net-(C1-Pad1)*%
X142240000Y-83820000D02*
X145105000Y-83820000D01*
X140970000Y-85090000D02*
X142240000Y-83820000D01*
X135890000Y-85090000D02*
X140970000Y-85090000D01*
%TO.N,+5V*%
X109147893Y-99132107D02*
X121505787Y-111490001D01*
X157335786Y-115570000D02*
X164290000Y-115570000D01*
X142055000Y-91950000D02*
X106170000Y-91950000D01*
X105550026Y-99132107D02*
X109147893Y-99132107D01*
X106170000Y-91950000D02*
X104140000Y-93980000D01*
X145105000Y-88900000D02*
X154940000Y-88900000D01*
X145105000Y-88900000D02*
X142055000Y-91950000D01*
X121505787Y-111490001D02*
X153255786Y-111490000D01*
X104140000Y-96520000D02*
X104140000Y-97722081D01*
X153255786Y-111490000D02*
X157335786Y-115570000D01*
X104140000Y-97722081D02*
X105550026Y-99132107D01*
X164290000Y-115570000D02*
X166830000Y-118110000D01*
X104140000Y-93980000D02*
X104140000Y-96520000D01*
D33*
%TO.N,Net-(D1-Pad1)*%
X161290000Y-90170000D02*
X161290000Y-95250000D01*
X152400000Y-81280000D02*
X161290000Y-90170000D01*
%TO.N,Relay*%
X151130000Y-95250000D02*
X149860000Y-96520000D01*
X158750000Y-95250000D02*
X151130000Y-95250000D01*
D34*
%TO.N,+12V*%
X166365534Y-81550000D02*
X163555534Y-78740000D01*
X129280000Y-82550000D02*
X129280000Y-81540000D01*
X173990000Y-82550000D02*
X172990000Y-81550000D01*
X136150000Y-80270000D02*
X133350000Y-77470000D01*
X147840000Y-78740000D02*
X146310000Y-80270000D01*
X172990000Y-81550000D02*
X166365534Y-81550000D01*
X163555534Y-78740000D02*
X147840000Y-78740000D01*
X129280000Y-81540000D02*
X133350000Y-77470000D01*
X146310000Y-80270000D02*
X136150000Y-80270000D01*
D32*
%TO.N,+3.3V*%
X173856919Y-119560000D02*
X177580000Y-119560000D01*
X168820000Y-113321000D02*
X173609000Y-118110000D01*
X168820000Y-111720000D02*
X168820000Y-113321000D01*
X180380000Y-116800000D02*
X180340000Y-116800000D01*
X156320000Y-111720000D02*
X154900000Y-111720000D01*
X177580000Y-119560000D02*
X180340000Y-116800000D01*
X179070000Y-83630000D02*
X179940000Y-84500000D01*
X173609000Y-119312081D02*
X173856919Y-119560000D01*
X182880000Y-114300000D02*
X180380000Y-116800000D01*
X173609000Y-118110000D02*
X173609000Y-119312081D01*
X156320000Y-111720000D02*
X168820000Y-111720000D01*
X153670000Y-110490000D02*
X121920000Y-110490000D01*
X109220000Y-97790000D02*
X109220000Y-96520000D01*
X179940000Y-84500000D02*
X182880000Y-87440000D01*
X121920000Y-110490000D02*
X109220000Y-97790000D01*
X154900000Y-111720000D02*
X153670000Y-110490000D01*
X182880000Y-87440000D02*
X182880000Y-114300000D01*
X179070000Y-78740000D02*
X179070000Y-83630000D01*
D33*
%TO.N,Net-(D3-Pad2)*%
X167940000Y-84500000D02*
X165690000Y-84500000D01*
X165690000Y-84500000D02*
X163830000Y-86360000D01*
%TO.N,Sensor*%
X177840000Y-111800000D02*
X180340000Y-111800000D01*
X155760000Y-98610000D02*
X158750000Y-101600000D01*
X149410000Y-98610000D02*
X155760000Y-98610000D01*
X158750000Y-101600000D02*
X167640000Y-101600000D01*
X167640000Y-101600000D02*
X177840000Y-111800000D01*
X147320000Y-96520000D02*
X149410000Y-98610000D01*
%TO.N,SDA*%
X105520000Y-119830000D02*
X101600000Y-115910000D01*
X164290000Y-118110000D02*
X162570000Y-119830000D01*
X101600000Y-115910000D02*
X101600000Y-114300000D01*
X162570000Y-119830000D02*
X105520000Y-119830000D01*
%TO.N,SCL*%
X161750000Y-118110000D02*
X160480000Y-119380000D01*
X160480000Y-119380000D02*
X107610000Y-119380000D01*
X107610000Y-119380000D02*
X104140000Y-115910000D01*
X104140000Y-115910000D02*
X104140000Y-114300000D01*
%TO.N,Button*%
X156320000Y-105410000D02*
X149970000Y-99060000D01*
X148309204Y-98145600D02*
X142595600Y-98145600D01*
X176149000Y-115189000D02*
X176149000Y-118110000D01*
X156320000Y-106720000D02*
X156320000Y-105410000D01*
X142240000Y-97790000D02*
X142240000Y-96520000D01*
X172720000Y-111760000D02*
X176149000Y-115189000D01*
X142595600Y-98145600D02*
X142240000Y-97790000D01*
X168820000Y-106720000D02*
X172720000Y-110620000D01*
X172720000Y-110620000D02*
X172720000Y-111760000D01*
X149970000Y-99060000D02*
X149223604Y-99060000D01*
X156320000Y-106720000D02*
X168820000Y-106720000D01*
X149223604Y-99060000D02*
X148309204Y-98145600D01*
D34*
%TO.N,Net-(J6-Pad1)*%
X179990000Y-96750000D02*
X179990000Y-103415000D01*
X179990000Y-103415000D02*
X180340000Y-103765000D01*
%TO.N,Net-(J6-Pad2)*%
X178205000Y-106965000D02*
X180340000Y-106965000D01*
X167940000Y-96700000D02*
X178205000Y-106965000D01*
%TD*%
%TA.AperFunction,Conductor*%
%TO.N,GND*%
G36*
X110321852Y-72918502D02*
G01*
X110368345Y-72972158D01*
X110378449Y-73042432D01*
X110348955Y-73107012D01*
X110320966Y-73131062D01*
X110277042Y-73158776D01*
X110180622Y-73267951D01*
X110118719Y-73399800D01*
X110101500Y-73510386D01*
X110101500Y-90915500D01*
X110081498Y-90983621D01*
X110027842Y-91030114D01*
X109975500Y-91041500D01*
X106251417Y-91041500D01*
X106231707Y-91039949D01*
X106224327Y-91038780D01*
X106224326Y-91038780D01*
X106217810Y-91037748D01*
X106211223Y-91038093D01*
X106211218Y-91038093D01*
X106149520Y-91041327D01*
X106142926Y-91041500D01*
X106122390Y-91041500D01*
X106119118Y-91041844D01*
X106119116Y-91041844D01*
X106101958Y-91043647D01*
X106095384Y-91044164D01*
X106033696Y-91047397D01*
X106033694Y-91047397D01*
X106027097Y-91047743D01*
X106013504Y-91051385D01*
X105994075Y-91054986D01*
X105980072Y-91056458D01*
X105915025Y-91077593D01*
X105908712Y-91079463D01*
X105888074Y-91084993D01*
X105849003Y-91095462D01*
X105849000Y-91095463D01*
X105842630Y-91097170D01*
X105830085Y-91103562D01*
X105811826Y-91111125D01*
X105798444Y-91115473D01*
X105792723Y-91118776D01*
X105739223Y-91149664D01*
X105733426Y-91152812D01*
X105678351Y-91180874D01*
X105678348Y-91180876D01*
X105672470Y-91183871D01*
X105667342Y-91188024D01*
X105667340Y-91188025D01*
X105661534Y-91192727D01*
X105645237Y-91203927D01*
X105638776Y-91207657D01*
X105638772Y-91207660D01*
X105633056Y-91210960D01*
X105628150Y-91215377D01*
X105628145Y-91215381D01*
X105582231Y-91256722D01*
X105577216Y-91261006D01*
X105568718Y-91267888D01*
X105561259Y-91273928D01*
X105546744Y-91288443D01*
X105541959Y-91292984D01*
X105491134Y-91338747D01*
X105487255Y-91344086D01*
X105487254Y-91344087D01*
X105482860Y-91350135D01*
X105470019Y-91365168D01*
X103555168Y-93280019D01*
X103540135Y-93292860D01*
X103528747Y-93301134D01*
X103511929Y-93319812D01*
X103451485Y-93357050D01*
X103418295Y-93361500D01*
X103241866Y-93361500D01*
X103179684Y-93368255D01*
X103043295Y-93419385D01*
X102945565Y-93492630D01*
X102879059Y-93517478D01*
X102809676Y-93502425D01*
X102794435Y-93492630D01*
X102696705Y-93419385D01*
X102560316Y-93368255D01*
X102498134Y-93361500D01*
X100701866Y-93361500D01*
X100639684Y-93368255D01*
X100503295Y-93419385D01*
X100386739Y-93506739D01*
X100299385Y-93623295D01*
X100248255Y-93759684D01*
X100241500Y-93821866D01*
X100241500Y-96440219D01*
X100240787Y-96453607D01*
X100237251Y-96486695D01*
X100237548Y-96491848D01*
X100237548Y-96491851D01*
X100241291Y-96556763D01*
X100241500Y-96564016D01*
X100241500Y-97418134D01*
X100248255Y-97480316D01*
X100299385Y-97616705D01*
X100386739Y-97733261D01*
X100503295Y-97820615D01*
X100639684Y-97871745D01*
X100701866Y-97878500D01*
X101570826Y-97878500D01*
X101575443Y-97878585D01*
X101656673Y-97881564D01*
X101656677Y-97881564D01*
X101661837Y-97881753D01*
X101666957Y-97881097D01*
X101666959Y-97881097D01*
X101679261Y-97879521D01*
X101695271Y-97878500D01*
X102498134Y-97878500D01*
X102560316Y-97871745D01*
X102696705Y-97820615D01*
X102794436Y-97747370D01*
X102860941Y-97722522D01*
X102930324Y-97737575D01*
X102945562Y-97747368D01*
X103043295Y-97820615D01*
X103051703Y-97823767D01*
X103179684Y-97871745D01*
X103178865Y-97873930D01*
X103230335Y-97903334D01*
X103259374Y-97951761D01*
X103267600Y-97977078D01*
X103269467Y-97983380D01*
X103287171Y-98049451D01*
X103291139Y-98057238D01*
X103293559Y-98061988D01*
X103301125Y-98080254D01*
X103305473Y-98093637D01*
X103308776Y-98099359D01*
X103308777Y-98099360D01*
X103339667Y-98152863D01*
X103342814Y-98158658D01*
X103373871Y-98219611D01*
X103378024Y-98224739D01*
X103378025Y-98224741D01*
X103382727Y-98230547D01*
X103393927Y-98246844D01*
X103397657Y-98253305D01*
X103397660Y-98253309D01*
X103400960Y-98259025D01*
X103405377Y-98263931D01*
X103405381Y-98263936D01*
X103446722Y-98309850D01*
X103451006Y-98314865D01*
X103463928Y-98330822D01*
X103478443Y-98345337D01*
X103482984Y-98350122D01*
X103528747Y-98400947D01*
X103534086Y-98404826D01*
X103534087Y-98404827D01*
X103540135Y-98409221D01*
X103555168Y-98422062D01*
X104850045Y-99716939D01*
X104862886Y-99731972D01*
X104871160Y-99743360D01*
X104876069Y-99747780D01*
X104921985Y-99789123D01*
X104926770Y-99793664D01*
X104941285Y-99808179D01*
X104943849Y-99810255D01*
X104957242Y-99821101D01*
X104962257Y-99825385D01*
X105008171Y-99866726D01*
X105008176Y-99866730D01*
X105013082Y-99871147D01*
X105018798Y-99874447D01*
X105018802Y-99874450D01*
X105025263Y-99878180D01*
X105041559Y-99889380D01*
X105052496Y-99898236D01*
X105058374Y-99901231D01*
X105058377Y-99901233D01*
X105113452Y-99929295D01*
X105119249Y-99932443D01*
X105172749Y-99963331D01*
X105178470Y-99966634D01*
X105191852Y-99970982D01*
X105210111Y-99978545D01*
X105222656Y-99984937D01*
X105229026Y-99986644D01*
X105229029Y-99986645D01*
X105268100Y-99997114D01*
X105288738Y-100002644D01*
X105295051Y-100004514D01*
X105360098Y-100025649D01*
X105374101Y-100027121D01*
X105393530Y-100030722D01*
X105407123Y-100034364D01*
X105413720Y-100034710D01*
X105413722Y-100034710D01*
X105475410Y-100037943D01*
X105481984Y-100038460D01*
X105499142Y-100040263D01*
X105499144Y-100040263D01*
X105502416Y-100040607D01*
X105522952Y-100040607D01*
X105529546Y-100040780D01*
X105591244Y-100044014D01*
X105591249Y-100044014D01*
X105597836Y-100044359D01*
X105611734Y-100042158D01*
X105631443Y-100040607D01*
X108719390Y-100040607D01*
X108787511Y-100060609D01*
X108808485Y-100077512D01*
X120805806Y-112074833D01*
X120818647Y-112089866D01*
X120826921Y-112101254D01*
X120840307Y-112113307D01*
X120877746Y-112147017D01*
X120882531Y-112151558D01*
X120897046Y-112166073D01*
X120899610Y-112168149D01*
X120913003Y-112178995D01*
X120918018Y-112183279D01*
X120963932Y-112224620D01*
X120963937Y-112224624D01*
X120968843Y-112229041D01*
X120974559Y-112232341D01*
X120974563Y-112232344D01*
X120981024Y-112236074D01*
X120997320Y-112247274D01*
X121008257Y-112256130D01*
X121067504Y-112286318D01*
X121069208Y-112287186D01*
X121075005Y-112290334D01*
X121116282Y-112314165D01*
X121134231Y-112324528D01*
X121140513Y-112326569D01*
X121140515Y-112326570D01*
X121147613Y-112328876D01*
X121165879Y-112336441D01*
X121178417Y-112342830D01*
X121184793Y-112344539D01*
X121184797Y-112344540D01*
X121244472Y-112360530D01*
X121250797Y-112362403D01*
X121315859Y-112383543D01*
X121322427Y-112384233D01*
X121322431Y-112384234D01*
X121329848Y-112385013D01*
X121349295Y-112388617D01*
X121362883Y-112392258D01*
X121369482Y-112392604D01*
X121369483Y-112392604D01*
X121431172Y-112395837D01*
X121437747Y-112396354D01*
X121452009Y-112397853D01*
X121458177Y-112398501D01*
X121478712Y-112398501D01*
X121485306Y-112398674D01*
X121547004Y-112401908D01*
X121547009Y-112401908D01*
X121553596Y-112402253D01*
X121567494Y-112400052D01*
X121587203Y-112398501D01*
X126575918Y-112398501D01*
X152827283Y-112398500D01*
X152895404Y-112418502D01*
X152916378Y-112435405D01*
X156635805Y-116154832D01*
X156648646Y-116169865D01*
X156656920Y-116181253D01*
X156661829Y-116185673D01*
X156707745Y-116227016D01*
X156712530Y-116231557D01*
X156727045Y-116246072D01*
X156729609Y-116248148D01*
X156743002Y-116258994D01*
X156748017Y-116263278D01*
X156793931Y-116304619D01*
X156793936Y-116304623D01*
X156798842Y-116309040D01*
X156804558Y-116312340D01*
X156804562Y-116312343D01*
X156811023Y-116316073D01*
X156827319Y-116327273D01*
X156838256Y-116336129D01*
X156899207Y-116367185D01*
X156905001Y-116370331D01*
X156964230Y-116404527D01*
X156970512Y-116406568D01*
X156970514Y-116406569D01*
X156977612Y-116408875D01*
X156995878Y-116416440D01*
X157008416Y-116422829D01*
X157014792Y-116424538D01*
X157014796Y-116424539D01*
X157074471Y-116440529D01*
X157080796Y-116442402D01*
X157145858Y-116463542D01*
X157152426Y-116464232D01*
X157152430Y-116464233D01*
X157159847Y-116465012D01*
X157179294Y-116468616D01*
X157192882Y-116472257D01*
X157199481Y-116472603D01*
X157199482Y-116472603D01*
X157261171Y-116475836D01*
X157267746Y-116476353D01*
X157282008Y-116477852D01*
X157288176Y-116478500D01*
X157308711Y-116478500D01*
X157315305Y-116478673D01*
X157377003Y-116481907D01*
X157377008Y-116481907D01*
X157383595Y-116482252D01*
X157397493Y-116480051D01*
X157417202Y-116478500D01*
X163861497Y-116478500D01*
X163929618Y-116498502D01*
X163950592Y-116515405D01*
X164013671Y-116578484D01*
X164047697Y-116640796D01*
X164042632Y-116711611D01*
X164000085Y-116768447D01*
X163963722Y-116787344D01*
X163923295Y-116800558D01*
X163761756Y-116853357D01*
X163563607Y-116956507D01*
X163559474Y-116959610D01*
X163559471Y-116959612D01*
X163389100Y-117087530D01*
X163384965Y-117090635D01*
X163345525Y-117131907D01*
X163291280Y-117188671D01*
X163230629Y-117252138D01*
X163123201Y-117409621D01*
X163068293Y-117454621D01*
X162997768Y-117462792D01*
X162934021Y-117431538D01*
X162913324Y-117407054D01*
X162832822Y-117282617D01*
X162832820Y-117282614D01*
X162830014Y-117278277D01*
X162679670Y-117113051D01*
X162675619Y-117109852D01*
X162675615Y-117109848D01*
X162508414Y-116977800D01*
X162508410Y-116977798D01*
X162504359Y-116974598D01*
X162308789Y-116866638D01*
X162303920Y-116864914D01*
X162303916Y-116864912D01*
X162103087Y-116793795D01*
X162103083Y-116793794D01*
X162098212Y-116792069D01*
X162093119Y-116791162D01*
X162093116Y-116791161D01*
X161883373Y-116753800D01*
X161883367Y-116753799D01*
X161878284Y-116752894D01*
X161804452Y-116751992D01*
X161660081Y-116750228D01*
X161660079Y-116750228D01*
X161654911Y-116750165D01*
X161434091Y-116783955D01*
X161221756Y-116853357D01*
X161023607Y-116956507D01*
X161019474Y-116959610D01*
X161019471Y-116959612D01*
X160849100Y-117087530D01*
X160844965Y-117090635D01*
X160805525Y-117131907D01*
X160751280Y-117188671D01*
X160690629Y-117252138D01*
X160687720Y-117256403D01*
X160687714Y-117256411D01*
X160648934Y-117313261D01*
X160564743Y-117436680D01*
X160470688Y-117639305D01*
X160410989Y-117854570D01*
X160387251Y-118076695D01*
X160387548Y-118081848D01*
X160387548Y-118081851D01*
X160399812Y-118294547D01*
X160400110Y-118299715D01*
X160401247Y-118304761D01*
X160401248Y-118304767D01*
X160433453Y-118447668D01*
X160428917Y-118518520D01*
X160399631Y-118564464D01*
X160254500Y-118709595D01*
X160192188Y-118743621D01*
X160165405Y-118746500D01*
X107924594Y-118746500D01*
X107856473Y-118726498D01*
X107835499Y-118709595D01*
X106798999Y-117673095D01*
X106764973Y-117610783D01*
X106770038Y-117539968D01*
X106812585Y-117483132D01*
X106879105Y-117458321D01*
X106888094Y-117458000D01*
X107574669Y-117457999D01*
X107581490Y-117457629D01*
X107632352Y-117452105D01*
X107647604Y-117448479D01*
X107768054Y-117403324D01*
X107783649Y-117394786D01*
X107874018Y-117327058D01*
X107940525Y-117302210D01*
X108009907Y-117317263D01*
X108025148Y-117327058D01*
X108056323Y-117350422D01*
X108123295Y-117400615D01*
X108259684Y-117451745D01*
X108321866Y-117458500D01*
X110118134Y-117458500D01*
X110180316Y-117451745D01*
X110316705Y-117400615D01*
X110414436Y-117327370D01*
X110480941Y-117302522D01*
X110550324Y-117317575D01*
X110565562Y-117327368D01*
X110663295Y-117400615D01*
X110799684Y-117451745D01*
X110861866Y-117458500D01*
X112658134Y-117458500D01*
X112720316Y-117451745D01*
X112856705Y-117400615D01*
X112954436Y-117327370D01*
X113020941Y-117302522D01*
X113090324Y-117317575D01*
X113105562Y-117327368D01*
X113203295Y-117400615D01*
X113339684Y-117451745D01*
X113401866Y-117458500D01*
X115198134Y-117458500D01*
X115260316Y-117451745D01*
X115396705Y-117400615D01*
X115494436Y-117327370D01*
X115560941Y-117302522D01*
X115630324Y-117317575D01*
X115645562Y-117327368D01*
X115743295Y-117400615D01*
X115879684Y-117451745D01*
X115941866Y-117458500D01*
X117738134Y-117458500D01*
X117800316Y-117451745D01*
X117936705Y-117400615D01*
X118003677Y-117350422D01*
X118034852Y-117327058D01*
X118101358Y-117302210D01*
X118170741Y-117317263D01*
X118185982Y-117327058D01*
X118276351Y-117394786D01*
X118291946Y-117403324D01*
X118412394Y-117448478D01*
X118427649Y-117452105D01*
X118478514Y-117457631D01*
X118485328Y-117458000D01*
X119107885Y-117458000D01*
X119123124Y-117453525D01*
X119124329Y-117452135D01*
X119126000Y-117444452D01*
X119126000Y-117439884D01*
X119634000Y-117439884D01*
X119638475Y-117455123D01*
X119639865Y-117456328D01*
X119647548Y-117457999D01*
X120274669Y-117457999D01*
X120281490Y-117457629D01*
X120332352Y-117452105D01*
X120347604Y-117448479D01*
X120468054Y-117403324D01*
X120483649Y-117394786D01*
X120574018Y-117327058D01*
X120640525Y-117302210D01*
X120709907Y-117317263D01*
X120725148Y-117327058D01*
X120756323Y-117350422D01*
X120823295Y-117400615D01*
X120959684Y-117451745D01*
X121021866Y-117458500D01*
X122818134Y-117458500D01*
X122880316Y-117451745D01*
X123016705Y-117400615D01*
X123114436Y-117327370D01*
X123180941Y-117302522D01*
X123250324Y-117317575D01*
X123265562Y-117327368D01*
X123363295Y-117400615D01*
X123499684Y-117451745D01*
X123561866Y-117458500D01*
X125358134Y-117458500D01*
X125420316Y-117451745D01*
X125556705Y-117400615D01*
X125654436Y-117327370D01*
X125720941Y-117302522D01*
X125790324Y-117317575D01*
X125805562Y-117327368D01*
X125903295Y-117400615D01*
X126039684Y-117451745D01*
X126101866Y-117458500D01*
X127898134Y-117458500D01*
X127960316Y-117451745D01*
X128096705Y-117400615D01*
X128194436Y-117327370D01*
X128260941Y-117302522D01*
X128330324Y-117317575D01*
X128345562Y-117327368D01*
X128443295Y-117400615D01*
X128579684Y-117451745D01*
X128641866Y-117458500D01*
X130438134Y-117458500D01*
X130500316Y-117451745D01*
X130636705Y-117400615D01*
X130703677Y-117350422D01*
X130734852Y-117327058D01*
X130801358Y-117302210D01*
X130870741Y-117317263D01*
X130885982Y-117327058D01*
X130976351Y-117394786D01*
X130991946Y-117403324D01*
X131112394Y-117448478D01*
X131127649Y-117452105D01*
X131178514Y-117457631D01*
X131185328Y-117458000D01*
X131807885Y-117458000D01*
X131823124Y-117453525D01*
X131824329Y-117452135D01*
X131826000Y-117444452D01*
X131826000Y-117439884D01*
X132334000Y-117439884D01*
X132338475Y-117455123D01*
X132339865Y-117456328D01*
X132347548Y-117457999D01*
X132974669Y-117457999D01*
X132981490Y-117457629D01*
X133032352Y-117452105D01*
X133047604Y-117448479D01*
X133168054Y-117403324D01*
X133183649Y-117394786D01*
X133274018Y-117327058D01*
X133340525Y-117302210D01*
X133409907Y-117317263D01*
X133425148Y-117327058D01*
X133456323Y-117350422D01*
X133523295Y-117400615D01*
X133659684Y-117451745D01*
X133721866Y-117458500D01*
X135518134Y-117458500D01*
X135580316Y-117451745D01*
X135716705Y-117400615D01*
X135814436Y-117327370D01*
X135880941Y-117302522D01*
X135950324Y-117317575D01*
X135965562Y-117327368D01*
X136063295Y-117400615D01*
X136199684Y-117451745D01*
X136261866Y-117458500D01*
X138058134Y-117458500D01*
X138120316Y-117451745D01*
X138256705Y-117400615D01*
X138354436Y-117327370D01*
X138420941Y-117302522D01*
X138490324Y-117317575D01*
X138505562Y-117327368D01*
X138603295Y-117400615D01*
X138739684Y-117451745D01*
X138801866Y-117458500D01*
X140598134Y-117458500D01*
X140660316Y-117451745D01*
X140796705Y-117400615D01*
X140894436Y-117327370D01*
X140960941Y-117302522D01*
X141030324Y-117317575D01*
X141045562Y-117327368D01*
X141143295Y-117400615D01*
X141279684Y-117451745D01*
X141341866Y-117458500D01*
X143138134Y-117458500D01*
X143200316Y-117451745D01*
X143336705Y-117400615D01*
X143403677Y-117350422D01*
X143434852Y-117327058D01*
X143501358Y-117302210D01*
X143570741Y-117317263D01*
X143585982Y-117327058D01*
X143676351Y-117394786D01*
X143691946Y-117403324D01*
X143812394Y-117448478D01*
X143827649Y-117452105D01*
X143878514Y-117457631D01*
X143885328Y-117458000D01*
X144507885Y-117458000D01*
X144523124Y-117453525D01*
X144524329Y-117452135D01*
X144526000Y-117444452D01*
X144526000Y-117439884D01*
X145034000Y-117439884D01*
X145038475Y-117455123D01*
X145039865Y-117456328D01*
X145047548Y-117457999D01*
X145674669Y-117457999D01*
X145681490Y-117457629D01*
X145732352Y-117452105D01*
X145747604Y-117448479D01*
X145868054Y-117403324D01*
X145883649Y-117394786D01*
X145974018Y-117327058D01*
X146040525Y-117302210D01*
X146109907Y-117317263D01*
X146125148Y-117327058D01*
X146156323Y-117350422D01*
X146223295Y-117400615D01*
X146359684Y-117451745D01*
X146421866Y-117458500D01*
X148218134Y-117458500D01*
X148280316Y-117451745D01*
X148416705Y-117400615D01*
X148514436Y-117327370D01*
X148580941Y-117302522D01*
X148650324Y-117317575D01*
X148665562Y-117327368D01*
X148763295Y-117400615D01*
X148899684Y-117451745D01*
X148961866Y-117458500D01*
X150758134Y-117458500D01*
X150820316Y-117451745D01*
X150956705Y-117400615D01*
X151073261Y-117313261D01*
X151160615Y-117196705D01*
X151211745Y-117060316D01*
X151218500Y-116998134D01*
X151218500Y-114397856D01*
X151219578Y-114381409D01*
X151220472Y-114374616D01*
X151221529Y-114366590D01*
X151222258Y-114336763D01*
X151223074Y-114303365D01*
X151223074Y-114303361D01*
X151223156Y-114300000D01*
X151218924Y-114248524D01*
X151218500Y-114238200D01*
X151218500Y-113401866D01*
X151211745Y-113339684D01*
X151160615Y-113203295D01*
X151073261Y-113086739D01*
X150956705Y-112999385D01*
X150820316Y-112948255D01*
X150758134Y-112941500D01*
X149874985Y-112941500D01*
X149873446Y-112941491D01*
X149770081Y-112940228D01*
X149770079Y-112940228D01*
X149764911Y-112940165D01*
X149759797Y-112940948D01*
X149756289Y-112941193D01*
X149747496Y-112941500D01*
X148961866Y-112941500D01*
X148899684Y-112948255D01*
X148763295Y-112999385D01*
X148665565Y-113072630D01*
X148599059Y-113097478D01*
X148529676Y-113082425D01*
X148514435Y-113072630D01*
X148416705Y-112999385D01*
X148280316Y-112948255D01*
X148218134Y-112941500D01*
X147334985Y-112941500D01*
X147333446Y-112941491D01*
X147230081Y-112940228D01*
X147230079Y-112940228D01*
X147224911Y-112940165D01*
X147219797Y-112940948D01*
X147216289Y-112941193D01*
X147207496Y-112941500D01*
X146421866Y-112941500D01*
X146359684Y-112948255D01*
X146223295Y-112999385D01*
X146205057Y-113013054D01*
X146125148Y-113072942D01*
X146058642Y-113097790D01*
X145989259Y-113082737D01*
X145974018Y-113072942D01*
X145883649Y-113005214D01*
X145868054Y-112996676D01*
X145747606Y-112951522D01*
X145732351Y-112947895D01*
X145681486Y-112942369D01*
X145674672Y-112942000D01*
X145052115Y-112942000D01*
X145036876Y-112946475D01*
X145035671Y-112947865D01*
X145034000Y-112955548D01*
X145034000Y-117439884D01*
X144526000Y-117439884D01*
X144526000Y-112960116D01*
X144521525Y-112944877D01*
X144520135Y-112943672D01*
X144512452Y-112942001D01*
X143885331Y-112942001D01*
X143878510Y-112942371D01*
X143827648Y-112947895D01*
X143812396Y-112951521D01*
X143691946Y-112996676D01*
X143676351Y-113005214D01*
X143585982Y-113072942D01*
X143519475Y-113097790D01*
X143450093Y-113082737D01*
X143434852Y-113072942D01*
X143354943Y-113013054D01*
X143336705Y-112999385D01*
X143200316Y-112948255D01*
X143138134Y-112941500D01*
X142254985Y-112941500D01*
X142253446Y-112941491D01*
X142150081Y-112940228D01*
X142150079Y-112940228D01*
X142144911Y-112940165D01*
X142139797Y-112940948D01*
X142136289Y-112941193D01*
X142127496Y-112941500D01*
X141341866Y-112941500D01*
X141279684Y-112948255D01*
X141143295Y-112999385D01*
X141045565Y-113072630D01*
X140979059Y-113097478D01*
X140909676Y-113082425D01*
X140894435Y-113072630D01*
X140796705Y-112999385D01*
X140660316Y-112948255D01*
X140598134Y-112941500D01*
X139714985Y-112941500D01*
X139713446Y-112941491D01*
X139610081Y-112940228D01*
X139610079Y-112940228D01*
X139604911Y-112940165D01*
X139599797Y-112940948D01*
X139596289Y-112941193D01*
X139587496Y-112941500D01*
X138801866Y-112941500D01*
X138739684Y-112948255D01*
X138603295Y-112999385D01*
X138505565Y-113072630D01*
X138439059Y-113097478D01*
X138369676Y-113082425D01*
X138354435Y-113072630D01*
X138256705Y-112999385D01*
X138120316Y-112948255D01*
X138058134Y-112941500D01*
X137174985Y-112941500D01*
X137173446Y-112941491D01*
X137070081Y-112940228D01*
X137070079Y-112940228D01*
X137064911Y-112940165D01*
X137059797Y-112940948D01*
X137056289Y-112941193D01*
X137047496Y-112941500D01*
X136261866Y-112941500D01*
X136199684Y-112948255D01*
X136063295Y-112999385D01*
X135965565Y-113072630D01*
X135899059Y-113097478D01*
X135829676Y-113082425D01*
X135814435Y-113072630D01*
X135716705Y-112999385D01*
X135580316Y-112948255D01*
X135518134Y-112941500D01*
X134634985Y-112941500D01*
X134633446Y-112941491D01*
X134530081Y-112940228D01*
X134530079Y-112940228D01*
X134524911Y-112940165D01*
X134519797Y-112940948D01*
X134516289Y-112941193D01*
X134507496Y-112941500D01*
X133721866Y-112941500D01*
X133659684Y-112948255D01*
X133523295Y-112999385D01*
X133505057Y-113013054D01*
X133425148Y-113072942D01*
X133358642Y-113097790D01*
X133289259Y-113082737D01*
X133274018Y-113072942D01*
X133183649Y-113005214D01*
X133168054Y-112996676D01*
X133047606Y-112951522D01*
X133032351Y-112947895D01*
X132981486Y-112942369D01*
X132974672Y-112942000D01*
X132352115Y-112942000D01*
X132336876Y-112946475D01*
X132335671Y-112947865D01*
X132334000Y-112955548D01*
X132334000Y-117439884D01*
X131826000Y-117439884D01*
X131826000Y-112960116D01*
X131821525Y-112944877D01*
X131820135Y-112943672D01*
X131812452Y-112942001D01*
X131185331Y-112942001D01*
X131178510Y-112942371D01*
X131127648Y-112947895D01*
X131112396Y-112951521D01*
X130991946Y-112996676D01*
X130976351Y-113005214D01*
X130885982Y-113072942D01*
X130819475Y-113097790D01*
X130750093Y-113082737D01*
X130734852Y-113072942D01*
X130654943Y-113013054D01*
X130636705Y-112999385D01*
X130500316Y-112948255D01*
X130438134Y-112941500D01*
X129554985Y-112941500D01*
X129553446Y-112941491D01*
X129450081Y-112940228D01*
X129450079Y-112940228D01*
X129444911Y-112940165D01*
X129439797Y-112940948D01*
X129436289Y-112941193D01*
X129427496Y-112941500D01*
X128641866Y-112941500D01*
X128579684Y-112948255D01*
X128443295Y-112999385D01*
X128345565Y-113072630D01*
X128279059Y-113097478D01*
X128209676Y-113082425D01*
X128194435Y-113072630D01*
X128096705Y-112999385D01*
X127960316Y-112948255D01*
X127898134Y-112941500D01*
X127014985Y-112941500D01*
X127013446Y-112941491D01*
X126910081Y-112940228D01*
X126910079Y-112940228D01*
X126904911Y-112940165D01*
X126899797Y-112940948D01*
X126896289Y-112941193D01*
X126887496Y-112941500D01*
X126101866Y-112941500D01*
X126039684Y-112948255D01*
X125903295Y-112999385D01*
X125805565Y-113072630D01*
X125739059Y-113097478D01*
X125669676Y-113082425D01*
X125654435Y-113072630D01*
X125556705Y-112999385D01*
X125420316Y-112948255D01*
X125358134Y-112941500D01*
X124474985Y-112941500D01*
X124473446Y-112941491D01*
X124370081Y-112940228D01*
X124370079Y-112940228D01*
X124364911Y-112940165D01*
X124359797Y-112940948D01*
X124356289Y-112941193D01*
X124347496Y-112941500D01*
X123561866Y-112941500D01*
X123499684Y-112948255D01*
X123363295Y-112999385D01*
X123265565Y-113072630D01*
X123199059Y-113097478D01*
X123129676Y-113082425D01*
X123114435Y-113072630D01*
X123016705Y-112999385D01*
X122880316Y-112948255D01*
X122818134Y-112941500D01*
X121934985Y-112941500D01*
X121933446Y-112941491D01*
X121830081Y-112940228D01*
X121830079Y-112940228D01*
X121824911Y-112940165D01*
X121819797Y-112940948D01*
X121816289Y-112941193D01*
X121807496Y-112941500D01*
X121021866Y-112941500D01*
X120959684Y-112948255D01*
X120823295Y-112999385D01*
X120805057Y-113013054D01*
X120725148Y-113072942D01*
X120658642Y-113097790D01*
X120589259Y-113082737D01*
X120574018Y-113072942D01*
X120483649Y-113005214D01*
X120468054Y-112996676D01*
X120347606Y-112951522D01*
X120332351Y-112947895D01*
X120281486Y-112942369D01*
X120274672Y-112942000D01*
X119652115Y-112942000D01*
X119636876Y-112946475D01*
X119635671Y-112947865D01*
X119634000Y-112955548D01*
X119634000Y-117439884D01*
X119126000Y-117439884D01*
X119126000Y-112960116D01*
X119121525Y-112944877D01*
X119120135Y-112943672D01*
X119112452Y-112942001D01*
X118485331Y-112942001D01*
X118478510Y-112942371D01*
X118427648Y-112947895D01*
X118412396Y-112951521D01*
X118291946Y-112996676D01*
X118276351Y-113005214D01*
X118185982Y-113072942D01*
X118119475Y-113097790D01*
X118050093Y-113082737D01*
X118034852Y-113072942D01*
X117954943Y-113013054D01*
X117936705Y-112999385D01*
X117800316Y-112948255D01*
X117738134Y-112941500D01*
X116854985Y-112941500D01*
X116853446Y-112941491D01*
X116750081Y-112940228D01*
X116750079Y-112940228D01*
X116744911Y-112940165D01*
X116739797Y-112940948D01*
X116736289Y-112941193D01*
X116727496Y-112941500D01*
X115941866Y-112941500D01*
X115879684Y-112948255D01*
X115743295Y-112999385D01*
X115645565Y-113072630D01*
X115579059Y-113097478D01*
X115509676Y-113082425D01*
X115494435Y-113072630D01*
X115396705Y-112999385D01*
X115260316Y-112948255D01*
X115198134Y-112941500D01*
X114314985Y-112941500D01*
X114313446Y-112941491D01*
X114210081Y-112940228D01*
X114210079Y-112940228D01*
X114204911Y-112940165D01*
X114199797Y-112940948D01*
X114196289Y-112941193D01*
X114187496Y-112941500D01*
X113401866Y-112941500D01*
X113339684Y-112948255D01*
X113203295Y-112999385D01*
X113105565Y-113072630D01*
X113039059Y-113097478D01*
X112969676Y-113082425D01*
X112954435Y-113072630D01*
X112856705Y-112999385D01*
X112720316Y-112948255D01*
X112658134Y-112941500D01*
X111774985Y-112941500D01*
X111773446Y-112941491D01*
X111670081Y-112940228D01*
X111670079Y-112940228D01*
X111664911Y-112940165D01*
X111659797Y-112940948D01*
X111656289Y-112941193D01*
X111647496Y-112941500D01*
X110861866Y-112941500D01*
X110799684Y-112948255D01*
X110663295Y-112999385D01*
X110565565Y-113072630D01*
X110499059Y-113097478D01*
X110429676Y-113082425D01*
X110414435Y-113072630D01*
X110316705Y-112999385D01*
X110180316Y-112948255D01*
X110118134Y-112941500D01*
X109234985Y-112941500D01*
X109233446Y-112941491D01*
X109130081Y-112940228D01*
X109130079Y-112940228D01*
X109124911Y-112940165D01*
X109119797Y-112940948D01*
X109116289Y-112941193D01*
X109107496Y-112941500D01*
X108321866Y-112941500D01*
X108259684Y-112948255D01*
X108123295Y-112999385D01*
X108105057Y-113013054D01*
X108025148Y-113072942D01*
X107958642Y-113097790D01*
X107889259Y-113082737D01*
X107874018Y-113072942D01*
X107783649Y-113005214D01*
X107768054Y-112996676D01*
X107647606Y-112951522D01*
X107632351Y-112947895D01*
X107581486Y-112942369D01*
X107574672Y-112942000D01*
X106952115Y-112942000D01*
X106936876Y-112946475D01*
X106935671Y-112947865D01*
X106934000Y-112955548D01*
X106934000Y-115572000D01*
X106913998Y-115640121D01*
X106860342Y-115686614D01*
X106808000Y-115698000D01*
X106552000Y-115698000D01*
X106483879Y-115677998D01*
X106437386Y-115624342D01*
X106426000Y-115572000D01*
X106426000Y-112960116D01*
X106421525Y-112944877D01*
X106420135Y-112943672D01*
X106412452Y-112942001D01*
X105785331Y-112942001D01*
X105778510Y-112942371D01*
X105727648Y-112947895D01*
X105712396Y-112951521D01*
X105591946Y-112996676D01*
X105576351Y-113005214D01*
X105485982Y-113072942D01*
X105419475Y-113097790D01*
X105350093Y-113082737D01*
X105334852Y-113072942D01*
X105254943Y-113013054D01*
X105236705Y-112999385D01*
X105100316Y-112948255D01*
X105038134Y-112941500D01*
X104154985Y-112941500D01*
X104153446Y-112941491D01*
X104050081Y-112940228D01*
X104050079Y-112940228D01*
X104044911Y-112940165D01*
X104039797Y-112940948D01*
X104036289Y-112941193D01*
X104027496Y-112941500D01*
X103241866Y-112941500D01*
X103179684Y-112948255D01*
X103043295Y-112999385D01*
X102945565Y-113072630D01*
X102879059Y-113097478D01*
X102809676Y-113082425D01*
X102794435Y-113072630D01*
X102696705Y-112999385D01*
X102560316Y-112948255D01*
X102498134Y-112941500D01*
X101614985Y-112941500D01*
X101613446Y-112941491D01*
X101510081Y-112940228D01*
X101510079Y-112940228D01*
X101504911Y-112940165D01*
X101499797Y-112940948D01*
X101496289Y-112941193D01*
X101487496Y-112941500D01*
X100701866Y-112941500D01*
X100639684Y-112948255D01*
X100503295Y-112999385D01*
X100386739Y-113086739D01*
X100299385Y-113203295D01*
X100248255Y-113339684D01*
X100241500Y-113401866D01*
X100241500Y-114220219D01*
X100240787Y-114233607D01*
X100237251Y-114266695D01*
X100237548Y-114271848D01*
X100237548Y-114271851D01*
X100241291Y-114336763D01*
X100241500Y-114344016D01*
X100241500Y-116998134D01*
X100248255Y-117060316D01*
X100299385Y-117196705D01*
X100386739Y-117313261D01*
X100503295Y-117400615D01*
X100639684Y-117451745D01*
X100701866Y-117458500D01*
X102200406Y-117458500D01*
X102268527Y-117478502D01*
X102289501Y-117495405D01*
X105016343Y-120222247D01*
X105023887Y-120230537D01*
X105028000Y-120237018D01*
X105033777Y-120242443D01*
X105077667Y-120283658D01*
X105080509Y-120286413D01*
X105100230Y-120306134D01*
X105103425Y-120308612D01*
X105112447Y-120316318D01*
X105144679Y-120346586D01*
X105151628Y-120350406D01*
X105162432Y-120356346D01*
X105178956Y-120367199D01*
X105194959Y-120379613D01*
X105235543Y-120397176D01*
X105246173Y-120402383D01*
X105284940Y-120423695D01*
X105292617Y-120425666D01*
X105292622Y-120425668D01*
X105304558Y-120428732D01*
X105323266Y-120435137D01*
X105341855Y-120443181D01*
X105349683Y-120444421D01*
X105349690Y-120444423D01*
X105385524Y-120450099D01*
X105397144Y-120452505D01*
X105420951Y-120458617D01*
X105439970Y-120463500D01*
X105460224Y-120463500D01*
X105479934Y-120465051D01*
X105499943Y-120468220D01*
X105507835Y-120467474D01*
X105526580Y-120465702D01*
X105543962Y-120464059D01*
X105555819Y-120463500D01*
X162491233Y-120463500D01*
X162502416Y-120464027D01*
X162509909Y-120465702D01*
X162517835Y-120465453D01*
X162517836Y-120465453D01*
X162577986Y-120463562D01*
X162581945Y-120463500D01*
X162609856Y-120463500D01*
X162613791Y-120463003D01*
X162613856Y-120462995D01*
X162625693Y-120462062D01*
X162657951Y-120461048D01*
X162661970Y-120460922D01*
X162669889Y-120460673D01*
X162689343Y-120455021D01*
X162708700Y-120451013D01*
X162720930Y-120449468D01*
X162720931Y-120449468D01*
X162728797Y-120448474D01*
X162736168Y-120445555D01*
X162736170Y-120445555D01*
X162769912Y-120432196D01*
X162781142Y-120428351D01*
X162815983Y-120418229D01*
X162815984Y-120418229D01*
X162823593Y-120416018D01*
X162830412Y-120411985D01*
X162830417Y-120411983D01*
X162841028Y-120405707D01*
X162858776Y-120397012D01*
X162877617Y-120389552D01*
X162897987Y-120374753D01*
X162913387Y-120363564D01*
X162923307Y-120357048D01*
X162954535Y-120338580D01*
X162954538Y-120338578D01*
X162961362Y-120334542D01*
X162975683Y-120320221D01*
X162990717Y-120307380D01*
X162992516Y-120306073D01*
X163007107Y-120295472D01*
X163035298Y-120261395D01*
X163043288Y-120252616D01*
X163834549Y-119461355D01*
X163896861Y-119427329D01*
X163948762Y-119426979D01*
X164128597Y-119463567D01*
X164133772Y-119463757D01*
X164133774Y-119463757D01*
X164346673Y-119471564D01*
X164346677Y-119471564D01*
X164351837Y-119471753D01*
X164356957Y-119471097D01*
X164356959Y-119471097D01*
X164568288Y-119444025D01*
X164568289Y-119444025D01*
X164573416Y-119443368D01*
X164578366Y-119441883D01*
X164782429Y-119380661D01*
X164782434Y-119380659D01*
X164787384Y-119379174D01*
X164987994Y-119280896D01*
X165169860Y-119151173D01*
X165328096Y-118993489D01*
X165387594Y-118910689D01*
X165458453Y-118812077D01*
X165459776Y-118813028D01*
X165506645Y-118769857D01*
X165576580Y-118757625D01*
X165642026Y-118785144D01*
X165669875Y-118816994D01*
X165729987Y-118915088D01*
X165876250Y-119083938D01*
X166048126Y-119226632D01*
X166241000Y-119339338D01*
X166449692Y-119419030D01*
X166454760Y-119420061D01*
X166454763Y-119420062D01*
X166562017Y-119441883D01*
X166668597Y-119463567D01*
X166673772Y-119463757D01*
X166673774Y-119463757D01*
X166886673Y-119471564D01*
X166886677Y-119471564D01*
X166891837Y-119471753D01*
X166896957Y-119471097D01*
X166896959Y-119471097D01*
X167108288Y-119444025D01*
X167108289Y-119444025D01*
X167113416Y-119443368D01*
X167118366Y-119441883D01*
X167322429Y-119380661D01*
X167322434Y-119380659D01*
X167327384Y-119379174D01*
X167527994Y-119280896D01*
X167709860Y-119151173D01*
X167777331Y-119083938D01*
X167818479Y-119042933D01*
X167880851Y-119009017D01*
X167951658Y-119014205D01*
X168008419Y-119056851D01*
X168025401Y-119087954D01*
X168066676Y-119198054D01*
X168075214Y-119213649D01*
X168151715Y-119315724D01*
X168164276Y-119328285D01*
X168266351Y-119404786D01*
X168281946Y-119413324D01*
X168402394Y-119458478D01*
X168417649Y-119462105D01*
X168468514Y-119467631D01*
X168475328Y-119468000D01*
X169097885Y-119468000D01*
X169113124Y-119463525D01*
X169114329Y-119462135D01*
X169116000Y-119454452D01*
X169116000Y-119449884D01*
X169624000Y-119449884D01*
X169628475Y-119465123D01*
X169629865Y-119466328D01*
X169637548Y-119467999D01*
X170264669Y-119467999D01*
X170271490Y-119467629D01*
X170322352Y-119462105D01*
X170337604Y-119458479D01*
X170458054Y-119413324D01*
X170473649Y-119404786D01*
X170575724Y-119328285D01*
X170588285Y-119315724D01*
X170664786Y-119213649D01*
X170673324Y-119198054D01*
X170718478Y-119077606D01*
X170722105Y-119062351D01*
X170727631Y-119011486D01*
X170728000Y-119004672D01*
X170728000Y-118382115D01*
X170723525Y-118366876D01*
X170722135Y-118365671D01*
X170714452Y-118364000D01*
X169642115Y-118364000D01*
X169626876Y-118368475D01*
X169625671Y-118369865D01*
X169624000Y-118377548D01*
X169624000Y-119449884D01*
X169116000Y-119449884D01*
X169116000Y-117837885D01*
X169624000Y-117837885D01*
X169628475Y-117853124D01*
X169629865Y-117854329D01*
X169637548Y-117856000D01*
X170709884Y-117856000D01*
X170725123Y-117851525D01*
X170726328Y-117850135D01*
X170727999Y-117842452D01*
X170727999Y-117215331D01*
X170727629Y-117208510D01*
X170722105Y-117157648D01*
X170718479Y-117142396D01*
X170673324Y-117021946D01*
X170664786Y-117006351D01*
X170588285Y-116904276D01*
X170575724Y-116891715D01*
X170473649Y-116815214D01*
X170458054Y-116806676D01*
X170337606Y-116761522D01*
X170322351Y-116757895D01*
X170271486Y-116752369D01*
X170264672Y-116752000D01*
X169642115Y-116752000D01*
X169626876Y-116756475D01*
X169625671Y-116757865D01*
X169624000Y-116765548D01*
X169624000Y-117837885D01*
X169116000Y-117837885D01*
X169116000Y-116770116D01*
X169111525Y-116754877D01*
X169110135Y-116753672D01*
X169102452Y-116752001D01*
X168475331Y-116752001D01*
X168468510Y-116752371D01*
X168417648Y-116757895D01*
X168402396Y-116761521D01*
X168281946Y-116806676D01*
X168266351Y-116815214D01*
X168164276Y-116891715D01*
X168151715Y-116904276D01*
X168075214Y-117006351D01*
X168066676Y-117021946D01*
X168025297Y-117132322D01*
X167982655Y-117189087D01*
X167916093Y-117213786D01*
X167846744Y-117198578D01*
X167814121Y-117172891D01*
X167763151Y-117116876D01*
X167763145Y-117116870D01*
X167759670Y-117113051D01*
X167755619Y-117109852D01*
X167755615Y-117109848D01*
X167588414Y-116977800D01*
X167588410Y-116977798D01*
X167584359Y-116974598D01*
X167388789Y-116866638D01*
X167383920Y-116864914D01*
X167383916Y-116864912D01*
X167183087Y-116793795D01*
X167183083Y-116793794D01*
X167178212Y-116792069D01*
X167173119Y-116791162D01*
X167173116Y-116791161D01*
X166963373Y-116753800D01*
X166963367Y-116753799D01*
X166958284Y-116752894D01*
X166806512Y-116751040D01*
X166738642Y-116730207D01*
X166718957Y-116714144D01*
X164989981Y-114985168D01*
X164977140Y-114970135D01*
X164972746Y-114964087D01*
X164972745Y-114964086D01*
X164968866Y-114958747D01*
X164918041Y-114912984D01*
X164913256Y-114908443D01*
X164898741Y-114893928D01*
X164891135Y-114887769D01*
X164882784Y-114881006D01*
X164877769Y-114876722D01*
X164831855Y-114835381D01*
X164831850Y-114835377D01*
X164826944Y-114830960D01*
X164821228Y-114827660D01*
X164821224Y-114827657D01*
X164814763Y-114823927D01*
X164798466Y-114812727D01*
X164792660Y-114808025D01*
X164792658Y-114808024D01*
X164787530Y-114803871D01*
X164726577Y-114772814D01*
X164720782Y-114769667D01*
X164667279Y-114738777D01*
X164667278Y-114738776D01*
X164661556Y-114735473D01*
X164655274Y-114733432D01*
X164655272Y-114733431D01*
X164648174Y-114731125D01*
X164629907Y-114723559D01*
X164617370Y-114717171D01*
X164551299Y-114699467D01*
X164544997Y-114697600D01*
X164479928Y-114676458D01*
X164473363Y-114675768D01*
X164473354Y-114675766D01*
X164465925Y-114674985D01*
X164446491Y-114671383D01*
X164439286Y-114669453D01*
X164439284Y-114669453D01*
X164432903Y-114667743D01*
X164426312Y-114667398D01*
X164426308Y-114667397D01*
X164364616Y-114664164D01*
X164358042Y-114663647D01*
X164340884Y-114661844D01*
X164340882Y-114661844D01*
X164337610Y-114661500D01*
X164317074Y-114661500D01*
X164310480Y-114661327D01*
X164248782Y-114658093D01*
X164248777Y-114658093D01*
X164242190Y-114657748D01*
X164228292Y-114659949D01*
X164208583Y-114661500D01*
X157764289Y-114661500D01*
X157696168Y-114641498D01*
X157675194Y-114624595D01*
X156419194Y-113368595D01*
X156385168Y-113306283D01*
X156390233Y-113235468D01*
X156432780Y-113178632D01*
X156499300Y-113153821D01*
X156508289Y-113153500D01*
X156978757Y-113153500D01*
X156981330Y-113153288D01*
X156981341Y-113153288D01*
X157148779Y-113139522D01*
X157148785Y-113139521D01*
X157153930Y-113139098D01*
X157382551Y-113081673D01*
X157598723Y-112987678D01*
X157796641Y-112859640D01*
X157820581Y-112837857D01*
X157967167Y-112704473D01*
X157967168Y-112704471D01*
X157970989Y-112700995D01*
X157974711Y-112696282D01*
X157990408Y-112676407D01*
X158048325Y-112635345D01*
X158089289Y-112628500D01*
X167048013Y-112628500D01*
X167116134Y-112648502D01*
X167142234Y-112670844D01*
X167142257Y-112670870D01*
X167145358Y-112675000D01*
X167149089Y-112678565D01*
X167149093Y-112678570D01*
X167256104Y-112780832D01*
X167315777Y-112837857D01*
X167510508Y-112970693D01*
X167515192Y-112972867D01*
X167515195Y-112972869D01*
X167719628Y-113067764D01*
X167719633Y-113067766D01*
X167724319Y-113069941D01*
X167810781Y-113093919D01*
X167819172Y-113096246D01*
X167879470Y-113133725D01*
X167909933Y-113197853D01*
X167911500Y-113217663D01*
X167911500Y-113239583D01*
X167909949Y-113259292D01*
X167907748Y-113273190D01*
X167908093Y-113279777D01*
X167908093Y-113279782D01*
X167911327Y-113341480D01*
X167911500Y-113348074D01*
X167911500Y-113368610D01*
X167911844Y-113371882D01*
X167911844Y-113371884D01*
X167913647Y-113389042D01*
X167914164Y-113395616D01*
X167917743Y-113463903D01*
X167919453Y-113470284D01*
X167919453Y-113470286D01*
X167921383Y-113477491D01*
X167924985Y-113496925D01*
X167925766Y-113504354D01*
X167925768Y-113504363D01*
X167926458Y-113510928D01*
X167947600Y-113575997D01*
X167949467Y-113582299D01*
X167967171Y-113648370D01*
X167973559Y-113660907D01*
X167981125Y-113679173D01*
X167985473Y-113692556D01*
X167988776Y-113698278D01*
X167988777Y-113698279D01*
X168019667Y-113751782D01*
X168022814Y-113757577D01*
X168053871Y-113818530D01*
X168058024Y-113823658D01*
X168058025Y-113823660D01*
X168062727Y-113829466D01*
X168073927Y-113845763D01*
X168077657Y-113852224D01*
X168077660Y-113852228D01*
X168080960Y-113857944D01*
X168085377Y-113862850D01*
X168085381Y-113862855D01*
X168126722Y-113908769D01*
X168131006Y-113913784D01*
X168143928Y-113929741D01*
X168158443Y-113944256D01*
X168162984Y-113949041D01*
X168208747Y-113999866D01*
X168214086Y-114003745D01*
X168214087Y-114003746D01*
X168220135Y-114008140D01*
X168235168Y-114020981D01*
X172209587Y-117995400D01*
X172243613Y-118057712D01*
X172246282Y-118077236D01*
X172259110Y-118299715D01*
X172260247Y-118304761D01*
X172260248Y-118304767D01*
X172274606Y-118368475D01*
X172308222Y-118517639D01*
X172327236Y-118564464D01*
X172386167Y-118709595D01*
X172392266Y-118724616D01*
X172443942Y-118808944D01*
X172506291Y-118910688D01*
X172508987Y-118915088D01*
X172512367Y-118918990D01*
X172651866Y-119080032D01*
X172651869Y-119080035D01*
X172655250Y-119083938D01*
X172659224Y-119087237D01*
X172662658Y-119090600D01*
X172697334Y-119152553D01*
X172700500Y-119180623D01*
X172700500Y-119230664D01*
X172698949Y-119250373D01*
X172696748Y-119264271D01*
X172697093Y-119270858D01*
X172697093Y-119270863D01*
X172700327Y-119332561D01*
X172700500Y-119339155D01*
X172700500Y-119359691D01*
X172700844Y-119362963D01*
X172700844Y-119362965D01*
X172702647Y-119380123D01*
X172703164Y-119386697D01*
X172706169Y-119444025D01*
X172706743Y-119454984D01*
X172708453Y-119461365D01*
X172708453Y-119461367D01*
X172710383Y-119468572D01*
X172713985Y-119488006D01*
X172714766Y-119495435D01*
X172714768Y-119495444D01*
X172715458Y-119502009D01*
X172736600Y-119567078D01*
X172738467Y-119573380D01*
X172756171Y-119639451D01*
X172762559Y-119651988D01*
X172770125Y-119670254D01*
X172774473Y-119683637D01*
X172777776Y-119689359D01*
X172777777Y-119689360D01*
X172808667Y-119742863D01*
X172811814Y-119748658D01*
X172842871Y-119809611D01*
X172847024Y-119814739D01*
X172847025Y-119814741D01*
X172851727Y-119820547D01*
X172862927Y-119836844D01*
X172866657Y-119843305D01*
X172866660Y-119843309D01*
X172869960Y-119849025D01*
X172874377Y-119853931D01*
X172874381Y-119853936D01*
X172915722Y-119899850D01*
X172920006Y-119904865D01*
X172932928Y-119920822D01*
X172947443Y-119935337D01*
X172951984Y-119940122D01*
X172997747Y-119990947D01*
X173003086Y-119994826D01*
X173003087Y-119994827D01*
X173009135Y-119999221D01*
X173024168Y-120012062D01*
X173156938Y-120144832D01*
X173169779Y-120159865D01*
X173178053Y-120171253D01*
X173182962Y-120175673D01*
X173228878Y-120217016D01*
X173233663Y-120221557D01*
X173248178Y-120236072D01*
X173264139Y-120248997D01*
X173269140Y-120253269D01*
X173315064Y-120294619D01*
X173315069Y-120294623D01*
X173319975Y-120299040D01*
X173332156Y-120306073D01*
X173348445Y-120317267D01*
X173359388Y-120326129D01*
X173365268Y-120329125D01*
X173365271Y-120329127D01*
X173420345Y-120357188D01*
X173426139Y-120360335D01*
X173485363Y-120394527D01*
X173491645Y-120396568D01*
X173491647Y-120396569D01*
X173498745Y-120398875D01*
X173517011Y-120406440D01*
X173529549Y-120412829D01*
X173535925Y-120414538D01*
X173535929Y-120414539D01*
X173595604Y-120430529D01*
X173601929Y-120432402D01*
X173666991Y-120453542D01*
X173673559Y-120454232D01*
X173673563Y-120454233D01*
X173680980Y-120455012D01*
X173700427Y-120458616D01*
X173714015Y-120462257D01*
X173720614Y-120462603D01*
X173720615Y-120462603D01*
X173782304Y-120465836D01*
X173788879Y-120466353D01*
X173803141Y-120467852D01*
X173809309Y-120468500D01*
X173829844Y-120468500D01*
X173836438Y-120468673D01*
X173898136Y-120471907D01*
X173898141Y-120471907D01*
X173904728Y-120472252D01*
X173918626Y-120470051D01*
X173938335Y-120468500D01*
X177498583Y-120468500D01*
X177518292Y-120470051D01*
X177532190Y-120472252D01*
X177538777Y-120471907D01*
X177538782Y-120471907D01*
X177600480Y-120468673D01*
X177607074Y-120468500D01*
X177627610Y-120468500D01*
X177630882Y-120468156D01*
X177630884Y-120468156D01*
X177648042Y-120466353D01*
X177654616Y-120465836D01*
X177716308Y-120462603D01*
X177716312Y-120462602D01*
X177722903Y-120462257D01*
X177729284Y-120460547D01*
X177729286Y-120460547D01*
X177736491Y-120458617D01*
X177755925Y-120455015D01*
X177763354Y-120454234D01*
X177763363Y-120454232D01*
X177769928Y-120453542D01*
X177834997Y-120432400D01*
X177841299Y-120430533D01*
X177895469Y-120416018D01*
X177900996Y-120414537D01*
X177900997Y-120414537D01*
X177907370Y-120412829D01*
X177919908Y-120406440D01*
X177938174Y-120398875D01*
X177945272Y-120396569D01*
X177945274Y-120396568D01*
X177951556Y-120394527D01*
X177971936Y-120382761D01*
X178010782Y-120360333D01*
X178016579Y-120357185D01*
X178018226Y-120356346D01*
X178077530Y-120326129D01*
X178088467Y-120317272D01*
X178104763Y-120306073D01*
X178111224Y-120302343D01*
X178111230Y-120302339D01*
X178116944Y-120299040D01*
X178121850Y-120294623D01*
X178121855Y-120294619D01*
X178167769Y-120253278D01*
X178172784Y-120248994D01*
X178186177Y-120238148D01*
X178188741Y-120236072D01*
X178203256Y-120221557D01*
X178208041Y-120217016D01*
X178253957Y-120175673D01*
X178258866Y-120171253D01*
X178267140Y-120159865D01*
X178279981Y-120144832D01*
X180229408Y-118195405D01*
X180291720Y-118161379D01*
X180318503Y-118158500D01*
X181115400Y-118158500D01*
X181118646Y-118158163D01*
X181118650Y-118158163D01*
X181214308Y-118148238D01*
X181214312Y-118148237D01*
X181221166Y-118147526D01*
X181227702Y-118145345D01*
X181227704Y-118145345D01*
X181381998Y-118093868D01*
X181388946Y-118091550D01*
X181539348Y-117998478D01*
X181664305Y-117873303D01*
X181757115Y-117722738D01*
X181812797Y-117554861D01*
X181823500Y-117450400D01*
X181823500Y-116693503D01*
X181843502Y-116625382D01*
X181860405Y-116604408D01*
X183464832Y-114999981D01*
X183479865Y-114987140D01*
X183485913Y-114982746D01*
X183485914Y-114982745D01*
X183491253Y-114978866D01*
X183537016Y-114928041D01*
X183541557Y-114923256D01*
X183556072Y-114908741D01*
X183566176Y-114896264D01*
X183568994Y-114892784D01*
X183573278Y-114887769D01*
X183614619Y-114841855D01*
X183614623Y-114841850D01*
X183619040Y-114836944D01*
X183622340Y-114831228D01*
X183622343Y-114831224D01*
X183626073Y-114824763D01*
X183637273Y-114808466D01*
X183641975Y-114802660D01*
X183641976Y-114802658D01*
X183646129Y-114797530D01*
X183659484Y-114771321D01*
X183677188Y-114736574D01*
X183680336Y-114730777D01*
X183711224Y-114677277D01*
X183714527Y-114671556D01*
X183718875Y-114658174D01*
X183726438Y-114639915D01*
X183732830Y-114627370D01*
X183750537Y-114561288D01*
X183752409Y-114554969D01*
X183756424Y-114542614D01*
X183773542Y-114489928D01*
X183775014Y-114475925D01*
X183778615Y-114456496D01*
X183782257Y-114442903D01*
X183785836Y-114374616D01*
X183786353Y-114368042D01*
X183788156Y-114350884D01*
X183788156Y-114350882D01*
X183788500Y-114347610D01*
X183788500Y-114327074D01*
X183788673Y-114320480D01*
X183791907Y-114258782D01*
X183791907Y-114258777D01*
X183792252Y-114252190D01*
X183790051Y-114238292D01*
X183788500Y-114218583D01*
X183788500Y-87521417D01*
X183790051Y-87501705D01*
X183791060Y-87495339D01*
X183792252Y-87487810D01*
X183791544Y-87474287D01*
X183788673Y-87419520D01*
X183788500Y-87412926D01*
X183788500Y-87392390D01*
X183788156Y-87389116D01*
X183786353Y-87371958D01*
X183785836Y-87365384D01*
X183782603Y-87303696D01*
X183782603Y-87303694D01*
X183782257Y-87297097D01*
X183778615Y-87283504D01*
X183775014Y-87264075D01*
X183774232Y-87256639D01*
X183773542Y-87250072D01*
X183752407Y-87185025D01*
X183750535Y-87178706D01*
X183734538Y-87119003D01*
X183734537Y-87119000D01*
X183732830Y-87112630D01*
X183726438Y-87100085D01*
X183718874Y-87081823D01*
X183716568Y-87074726D01*
X183714527Y-87068444D01*
X183680336Y-87009223D01*
X183677188Y-87003426D01*
X183649126Y-86948351D01*
X183649124Y-86948348D01*
X183646129Y-86942470D01*
X183637273Y-86931533D01*
X183626073Y-86915237D01*
X183622343Y-86908776D01*
X183622340Y-86908772D01*
X183619040Y-86903056D01*
X183614623Y-86898150D01*
X183614619Y-86898145D01*
X183573278Y-86852231D01*
X183568994Y-86847216D01*
X183558148Y-86833823D01*
X183556072Y-86831259D01*
X183541557Y-86816744D01*
X183537016Y-86811959D01*
X183495673Y-86766043D01*
X183491253Y-86761134D01*
X183479865Y-86752860D01*
X183464832Y-86740019D01*
X181700089Y-84975276D01*
X181666063Y-84912964D01*
X181667652Y-84861021D01*
X181665829Y-84860650D01*
X181666760Y-84856076D01*
X181668030Y-84851572D01*
X181684832Y-84719496D01*
X181700616Y-84595421D01*
X181700616Y-84595417D01*
X181701014Y-84592291D01*
X181701899Y-84558522D01*
X181703122Y-84511802D01*
X181703431Y-84500000D01*
X181698491Y-84433525D01*
X181684407Y-84244000D01*
X181684406Y-84243996D01*
X181684061Y-84239348D01*
X181679059Y-84217240D01*
X181627408Y-83988980D01*
X181626377Y-83984423D01*
X181624684Y-83980069D01*
X181533340Y-83745176D01*
X181533339Y-83745173D01*
X181531647Y-83740823D01*
X181509064Y-83701310D01*
X181448534Y-83595405D01*
X181401951Y-83513902D01*
X181240138Y-83308643D01*
X181049763Y-83129557D01*
X180891358Y-83019667D01*
X180838851Y-82983241D01*
X180838848Y-82983239D01*
X180835009Y-82980576D01*
X180830816Y-82978508D01*
X180604781Y-82867040D01*
X180604778Y-82867039D01*
X180600593Y-82864975D01*
X180587098Y-82860655D01*
X180356123Y-82786720D01*
X180351665Y-82785293D01*
X180133641Y-82749785D01*
X180098311Y-82744031D01*
X180098310Y-82744031D01*
X180093693Y-82743279D01*
X180092628Y-82743265D01*
X180027395Y-82717744D01*
X179985758Y-82660239D01*
X179978500Y-82618091D01*
X179978500Y-80474500D01*
X179998502Y-80406379D01*
X180052158Y-80359886D01*
X180104500Y-80348500D01*
X180218134Y-80348500D01*
X180280316Y-80341745D01*
X180416705Y-80290615D01*
X180533261Y-80203261D01*
X180620615Y-80086705D01*
X180671745Y-79950316D01*
X180678500Y-79888134D01*
X180678500Y-77591866D01*
X180671745Y-77529684D01*
X180620615Y-77393295D01*
X180533261Y-77276739D01*
X180416705Y-77189385D01*
X180280316Y-77138255D01*
X180224440Y-77132185D01*
X180221531Y-77131869D01*
X180218134Y-77131500D01*
X177921866Y-77131500D01*
X177918469Y-77131869D01*
X177915560Y-77132185D01*
X177859684Y-77138255D01*
X177723295Y-77189385D01*
X177606739Y-77276739D01*
X177519385Y-77393295D01*
X177468255Y-77529684D01*
X177461500Y-77591866D01*
X177461500Y-79888134D01*
X177468255Y-79950316D01*
X177519385Y-80086705D01*
X177606739Y-80203261D01*
X177723295Y-80290615D01*
X177859684Y-80341745D01*
X177921866Y-80348500D01*
X178035500Y-80348500D01*
X178103621Y-80368502D01*
X178150114Y-80422158D01*
X178161500Y-80474500D01*
X178161500Y-83548583D01*
X178159949Y-83568293D01*
X178157748Y-83582190D01*
X178158093Y-83588777D01*
X178158093Y-83588782D01*
X178161327Y-83650480D01*
X178161500Y-83657074D01*
X178161500Y-83677610D01*
X178161844Y-83680882D01*
X178161844Y-83680884D01*
X178163647Y-83698042D01*
X178164164Y-83704616D01*
X178166062Y-83740823D01*
X178167743Y-83772903D01*
X178169453Y-83779284D01*
X178169453Y-83779286D01*
X178171383Y-83786491D01*
X178174985Y-83805925D01*
X178175766Y-83813354D01*
X178175768Y-83813363D01*
X178176458Y-83819928D01*
X178197600Y-83884997D01*
X178199467Y-83891299D01*
X178217171Y-83957370D01*
X178221786Y-83966427D01*
X178223559Y-83969907D01*
X178231124Y-83988171D01*
X178233592Y-83995766D01*
X178235883Y-84065720D01*
X178203359Y-84193783D01*
X178202891Y-84198434D01*
X178202890Y-84198438D01*
X178201482Y-84212421D01*
X178177173Y-84453839D01*
X178177397Y-84458505D01*
X178177397Y-84458511D01*
X178182035Y-84555056D01*
X178189713Y-84714908D01*
X178240704Y-84971256D01*
X178329026Y-85217252D01*
X178331242Y-85221376D01*
X178441637Y-85426832D01*
X178452737Y-85447491D01*
X178455532Y-85451234D01*
X178455534Y-85451237D01*
X178606330Y-85653177D01*
X178606335Y-85653183D01*
X178609122Y-85656915D01*
X178612431Y-85660195D01*
X178612436Y-85660201D01*
X178750447Y-85797012D01*
X178794743Y-85840923D01*
X178798505Y-85843681D01*
X178798508Y-85843684D01*
X179001413Y-85992460D01*
X179005524Y-85995474D01*
X179009667Y-85997654D01*
X179009669Y-85997655D01*
X179232684Y-86114989D01*
X179232689Y-86114991D01*
X179236834Y-86117172D01*
X179380540Y-86167357D01*
X179478015Y-86201397D01*
X179483590Y-86203344D01*
X179488183Y-86204216D01*
X179735785Y-86251224D01*
X179735788Y-86251224D01*
X179740374Y-86252095D01*
X179870958Y-86257226D01*
X179996875Y-86262174D01*
X179996881Y-86262174D01*
X180001543Y-86262357D01*
X180084597Y-86253261D01*
X180256707Y-86234412D01*
X180256712Y-86234411D01*
X180261360Y-86233902D01*
X180292475Y-86225710D01*
X180363443Y-86227709D01*
X180413650Y-86258463D01*
X181934595Y-87779408D01*
X181968621Y-87841720D01*
X181971500Y-87868503D01*
X181971500Y-95691018D01*
X181951498Y-95759139D01*
X181897842Y-95805632D01*
X181827568Y-95815736D01*
X181762988Y-95786242D01*
X181733534Y-95748808D01*
X181713976Y-95710915D01*
X181713975Y-95710914D01*
X181712013Y-95707112D01*
X181709283Y-95703228D01*
X181701113Y-95689921D01*
X181699531Y-95686945D01*
X181699530Y-95686943D01*
X181697464Y-95683058D01*
X181685756Y-95666942D01*
X181625892Y-95584547D01*
X181624741Y-95582937D01*
X181613224Y-95566550D01*
X181554545Y-95483057D01*
X181548757Y-95476828D01*
X181539130Y-95465128D01*
X181534949Y-95459374D01*
X181534948Y-95459373D01*
X181532358Y-95455808D01*
X181513737Y-95436525D01*
X181450106Y-95370633D01*
X181448443Y-95368877D01*
X181371046Y-95285588D01*
X181371043Y-95285585D01*
X181368125Y-95282445D01*
X181358645Y-95274685D01*
X181347825Y-95264717D01*
X181340300Y-95256925D01*
X181340293Y-95256918D01*
X181337231Y-95253748D01*
X181309965Y-95232445D01*
X181246725Y-95183037D01*
X181244492Y-95181252D01*
X181183316Y-95131180D01*
X181156205Y-95108990D01*
X181152545Y-95106747D01*
X181152542Y-95106745D01*
X181142558Y-95100626D01*
X181130832Y-95092492D01*
X181115882Y-95080812D01*
X181019473Y-95025150D01*
X181016639Y-95023464D01*
X180985545Y-95004410D01*
X180922704Y-94965901D01*
X180904630Y-94957967D01*
X180892276Y-94951713D01*
X180876439Y-94942569D01*
X180876434Y-94942566D01*
X180872619Y-94940364D01*
X180868535Y-94938714D01*
X180868529Y-94938711D01*
X180793285Y-94908311D01*
X180772722Y-94900003D01*
X180769288Y-94898556D01*
X180738715Y-94885135D01*
X180671945Y-94855825D01*
X180667824Y-94854651D01*
X180667821Y-94854650D01*
X180649359Y-94849391D01*
X180636680Y-94845038D01*
X180612176Y-94835138D01*
X180607903Y-94834073D01*
X180607898Y-94834071D01*
X180511141Y-94809947D01*
X180507104Y-94808869D01*
X180412694Y-94781976D01*
X180412696Y-94781976D01*
X180408566Y-94780800D01*
X180381611Y-94776964D01*
X180368882Y-94774478D01*
X180339624Y-94767183D01*
X180315428Y-94764640D01*
X180239692Y-94756680D01*
X180235108Y-94756113D01*
X180141694Y-94742818D01*
X180137443Y-94742213D01*
X180106465Y-94742051D01*
X180093962Y-94741363D01*
X180070581Y-94738906D01*
X180064635Y-94738281D01*
X180064634Y-94738281D01*
X180060267Y-94737822D01*
X180055880Y-94737975D01*
X180055873Y-94737975D01*
X179996458Y-94740051D01*
X179963482Y-94741202D01*
X179958450Y-94741277D01*
X179863591Y-94740780D01*
X179859333Y-94741341D01*
X179859327Y-94741341D01*
X179829165Y-94745312D01*
X179817116Y-94746313D01*
X179783940Y-94747471D01*
X179783933Y-94747472D01*
X179779542Y-94747625D01*
X179687779Y-94763805D01*
X179682351Y-94764640D01*
X179592078Y-94776525D01*
X179554965Y-94786678D01*
X179543611Y-94789226D01*
X179528435Y-94791902D01*
X179507250Y-94795637D01*
X179507246Y-94795638D01*
X179502913Y-94796402D01*
X179417766Y-94824068D01*
X179412152Y-94825747D01*
X179327928Y-94848788D01*
X179323977Y-94850473D01*
X179323975Y-94850474D01*
X179289104Y-94865348D01*
X179278611Y-94869282D01*
X179235765Y-94883203D01*
X179158610Y-94920834D01*
X179152854Y-94923463D01*
X179076030Y-94956232D01*
X179036585Y-94979839D01*
X179027129Y-94984962D01*
X178995126Y-95000571D01*
X178983298Y-95006340D01*
X178979649Y-95008801D01*
X178979646Y-95008803D01*
X178915218Y-95052259D01*
X178909468Y-95055916D01*
X178841043Y-95096868D01*
X178837698Y-95099548D01*
X178837695Y-95099550D01*
X178802252Y-95127946D01*
X178793939Y-95134064D01*
X178750424Y-95163415D01*
X178747155Y-95166358D01*
X178747153Y-95166360D01*
X178692131Y-95215902D01*
X178686605Y-95220596D01*
X178627318Y-95268094D01*
X178624361Y-95271211D01*
X178624360Y-95271211D01*
X178590522Y-95306869D01*
X178583435Y-95313772D01*
X178544947Y-95348427D01*
X178544943Y-95348431D01*
X178541678Y-95351371D01*
X178538857Y-95354733D01*
X178538854Y-95354736D01*
X178493643Y-95408616D01*
X178488520Y-95414356D01*
X178479283Y-95424090D01*
X178438808Y-95466742D01*
X178405414Y-95513215D01*
X178399646Y-95520639D01*
X178361121Y-95566550D01*
X178358792Y-95570278D01*
X178358790Y-95570280D01*
X178323483Y-95626783D01*
X178318952Y-95633539D01*
X178311917Y-95643329D01*
X178279002Y-95689136D01*
X178276999Y-95692918D01*
X178276994Y-95692927D01*
X178250477Y-95743009D01*
X178245978Y-95750818D01*
X178212269Y-95804764D01*
X178210480Y-95808783D01*
X178184886Y-95866269D01*
X178181136Y-95873975D01*
X178150857Y-95931161D01*
X178149383Y-95935188D01*
X178149382Y-95935191D01*
X178128622Y-95991920D01*
X178125406Y-95999861D01*
X178098018Y-96061375D01*
X178096805Y-96065605D01*
X178096804Y-96065608D01*
X178080484Y-96122526D01*
X178077695Y-96131083D01*
X178056743Y-96188337D01*
X178055831Y-96192521D01*
X178055829Y-96192527D01*
X178042157Y-96255235D01*
X178040169Y-96263119D01*
X178034014Y-96284585D01*
X178022182Y-96325850D01*
X178020593Y-96331390D01*
X178019982Y-96335740D01*
X178019981Y-96335743D01*
X178012256Y-96390711D01*
X178010590Y-96400016D01*
X177998404Y-96455907D01*
X177998068Y-96460179D01*
X177992738Y-96527904D01*
X177991900Y-96535554D01*
X177981500Y-96609552D01*
X177981500Y-96665731D01*
X177981112Y-96675617D01*
X177976917Y-96728918D01*
X177977164Y-96733198D01*
X177981291Y-96804773D01*
X177981500Y-96812026D01*
X177981500Y-103359105D01*
X177981327Y-103365699D01*
X177976902Y-103450138D01*
X177977285Y-103454515D01*
X177977285Y-103454519D01*
X177987521Y-103571514D01*
X177987693Y-103573706D01*
X177989262Y-103596141D01*
X177974061Y-103665491D01*
X177923780Y-103715614D01*
X177854382Y-103730596D01*
X177787901Y-103705680D01*
X177774474Y-103694026D01*
X169388492Y-95308044D01*
X169385287Y-95304720D01*
X169321046Y-95235588D01*
X169321043Y-95235585D01*
X169318125Y-95232445D01*
X169314805Y-95229728D01*
X169314798Y-95229721D01*
X169235872Y-95165120D01*
X169233015Y-95162711D01*
X169168633Y-95106745D01*
X169151697Y-95092023D01*
X169132665Y-95079664D01*
X169121489Y-95071499D01*
X169109521Y-95061703D01*
X169109510Y-95061695D01*
X169106205Y-95058990D01*
X169102554Y-95056753D01*
X169102546Y-95056747D01*
X169012273Y-95001427D01*
X169009484Y-94999668D01*
X168919805Y-94941430D01*
X168919801Y-94941428D01*
X168916118Y-94939036D01*
X168898917Y-94931015D01*
X168886342Y-94924258D01*
X168876361Y-94918142D01*
X168876362Y-94918142D01*
X168872704Y-94915901D01*
X168868785Y-94914181D01*
X168868778Y-94914177D01*
X168795115Y-94881842D01*
X168768253Y-94870050D01*
X168765666Y-94868879D01*
X168665540Y-94822189D01*
X168665537Y-94822188D01*
X168661540Y-94820324D01*
X168646956Y-94815865D01*
X168633161Y-94810748D01*
X168625880Y-94807552D01*
X168625876Y-94807551D01*
X168621945Y-94805825D01*
X168617817Y-94804649D01*
X168617814Y-94804648D01*
X168508443Y-94773493D01*
X168506124Y-94772809D01*
X168397115Y-94739482D01*
X168397109Y-94739481D01*
X168392917Y-94738199D01*
X168388577Y-94737512D01*
X168388574Y-94737511D01*
X168381559Y-94736400D01*
X168366747Y-94733130D01*
X168358566Y-94730800D01*
X168354321Y-94730196D01*
X168354317Y-94730195D01*
X168237698Y-94713598D01*
X168235741Y-94713304D01*
X168119827Y-94694944D01*
X168119819Y-94694943D01*
X168115480Y-94694256D01*
X168111081Y-94694179D01*
X168111078Y-94694179D01*
X168107698Y-94694120D01*
X168092157Y-94692883D01*
X168091703Y-94692818D01*
X168091683Y-94692817D01*
X168087443Y-94692213D01*
X168001292Y-94691762D01*
X167961124Y-94691552D01*
X167959584Y-94691535D01*
X167909897Y-94690668D01*
X167834626Y-94689354D01*
X167830259Y-94689890D01*
X167826807Y-94690071D01*
X167822146Y-94690344D01*
X167822158Y-94690533D01*
X167817876Y-94690802D01*
X167813591Y-94690780D01*
X167809348Y-94691339D01*
X167809342Y-94691339D01*
X167683676Y-94707883D01*
X167682586Y-94708022D01*
X167560198Y-94723050D01*
X167555825Y-94723587D01*
X167551567Y-94724728D01*
X167550662Y-94724904D01*
X167545888Y-94726023D01*
X167542078Y-94726525D01*
X167537940Y-94727657D01*
X167537935Y-94727658D01*
X167409841Y-94762700D01*
X167409206Y-94762873D01*
X167284500Y-94796288D01*
X167280443Y-94798010D01*
X167279450Y-94798352D01*
X167279275Y-94798419D01*
X167277928Y-94798788D01*
X167137570Y-94858656D01*
X167025933Y-94906043D01*
X166921935Y-94968531D01*
X166791043Y-95046868D01*
X166789954Y-95047741D01*
X166789793Y-95047845D01*
X166788932Y-95048448D01*
X166785158Y-95050715D01*
X166781742Y-95053482D01*
X166781741Y-95053482D01*
X166684877Y-95131922D01*
X166684362Y-95132336D01*
X166621077Y-95183037D01*
X166577318Y-95218094D01*
X166574667Y-95220887D01*
X166570942Y-95224103D01*
X166570275Y-95224725D01*
X166566862Y-95227489D01*
X166563873Y-95230694D01*
X166563869Y-95230698D01*
X166479864Y-95320783D01*
X166479110Y-95321584D01*
X166393722Y-95411564D01*
X166388808Y-95416742D01*
X166386309Y-95420220D01*
X166383569Y-95423532D01*
X166383423Y-95423411D01*
X166380702Y-95426729D01*
X166378293Y-95429704D01*
X166375291Y-95432923D01*
X166372769Y-95436525D01*
X166303678Y-95535196D01*
X166302788Y-95536451D01*
X166229002Y-95639136D01*
X166226998Y-95642921D01*
X166226782Y-95643329D01*
X166218639Y-95656644D01*
X166214175Y-95663020D01*
X166158870Y-95771561D01*
X166157983Y-95773267D01*
X166102866Y-95877364D01*
X166102859Y-95877381D01*
X166100857Y-95881161D01*
X166099383Y-95885188D01*
X166099381Y-95885193D01*
X166097938Y-95889135D01*
X166091882Y-95903030D01*
X166088649Y-95909375D01*
X166088645Y-95909385D01*
X166086650Y-95913300D01*
X166085218Y-95917458D01*
X166085217Y-95917461D01*
X166048109Y-96025231D01*
X166047300Y-96027510D01*
X166006743Y-96138337D01*
X166005828Y-96142531D01*
X166005828Y-96142533D01*
X166004133Y-96150305D01*
X166000162Y-96164477D01*
X165996637Y-96174715D01*
X165996633Y-96174731D01*
X165995200Y-96178892D01*
X165994361Y-96183209D01*
X165994359Y-96183216D01*
X165973279Y-96291665D01*
X165972702Y-96294465D01*
X165952244Y-96388297D01*
X165948404Y-96405907D01*
X165948067Y-96410190D01*
X165947149Y-96421847D01*
X165945225Y-96435985D01*
X165941602Y-96454628D01*
X165941372Y-96459022D01*
X165941371Y-96459028D01*
X165935777Y-96565786D01*
X165935563Y-96569070D01*
X165933504Y-96595229D01*
X165928989Y-96652598D01*
X165926917Y-96678918D01*
X165927164Y-96683195D01*
X165928054Y-96698625D01*
X165928090Y-96712474D01*
X165926902Y-96735138D01*
X165933312Y-96808398D01*
X165936295Y-96842497D01*
X165936564Y-96846209D01*
X165942682Y-96952320D01*
X165943509Y-96956533D01*
X165947201Y-96975352D01*
X165949079Y-96988628D01*
X165951383Y-97014966D01*
X165952374Y-97019260D01*
X165952375Y-97019264D01*
X165974810Y-97116439D01*
X165975680Y-97120513D01*
X165995405Y-97221053D01*
X165996791Y-97225101D01*
X165996795Y-97225116D01*
X166004225Y-97246815D01*
X166007790Y-97259286D01*
X166014572Y-97288663D01*
X166016147Y-97292766D01*
X166016150Y-97292776D01*
X166050578Y-97382465D01*
X166052154Y-97386804D01*
X166084112Y-97480144D01*
X166086037Y-97483972D01*
X166086041Y-97483981D01*
X166098028Y-97507815D01*
X166103091Y-97519266D01*
X166115235Y-97550902D01*
X166117368Y-97554750D01*
X166162187Y-97635606D01*
X166164550Y-97640078D01*
X166205231Y-97720965D01*
X166205236Y-97720973D01*
X166207160Y-97724799D01*
X166209593Y-97728339D01*
X166226829Y-97753417D01*
X166233188Y-97763692D01*
X166251417Y-97796579D01*
X166254061Y-97800087D01*
X166254067Y-97800097D01*
X166307487Y-97870988D01*
X166310698Y-97875448D01*
X166359844Y-97946955D01*
X166362274Y-97950490D01*
X166365153Y-97953655D01*
X166365161Y-97953664D01*
X166388165Y-97978945D01*
X166395599Y-97987915D01*
X166420464Y-98020912D01*
X166483731Y-98084179D01*
X166487830Y-98088475D01*
X166528697Y-98133387D01*
X166546582Y-98153043D01*
X166578984Y-98180136D01*
X166587246Y-98187694D01*
X176745235Y-108345683D01*
X176749776Y-108350467D01*
X176806371Y-108413322D01*
X176884000Y-108478461D01*
X176899675Y-108491614D01*
X176901346Y-108493042D01*
X176989974Y-108570085D01*
X176989982Y-108570091D01*
X176993302Y-108572977D01*
X176996984Y-108575368D01*
X176996993Y-108575375D01*
X177001607Y-108578371D01*
X177013963Y-108587514D01*
X177018171Y-108591044D01*
X177021550Y-108593879D01*
X177025285Y-108596213D01*
X177025292Y-108596218D01*
X177124837Y-108658420D01*
X177126681Y-108659594D01*
X177228882Y-108725964D01*
X177232869Y-108727823D01*
X177232874Y-108727826D01*
X177237857Y-108730150D01*
X177251363Y-108737482D01*
X177255714Y-108740200D01*
X177259764Y-108742731D01*
X177263776Y-108744517D01*
X177263783Y-108744521D01*
X177371032Y-108792271D01*
X177373033Y-108793183D01*
X177483460Y-108844676D01*
X177487654Y-108845958D01*
X177487672Y-108845965D01*
X177492933Y-108847573D01*
X177507338Y-108852958D01*
X177516375Y-108856982D01*
X177520601Y-108858194D01*
X177520607Y-108858196D01*
X177633451Y-108890553D01*
X177635559Y-108891177D01*
X177747871Y-108925514D01*
X177747877Y-108925515D01*
X177752082Y-108926801D01*
X177756430Y-108927490D01*
X177756431Y-108927490D01*
X177758100Y-108927754D01*
X177761860Y-108928350D01*
X177776866Y-108931677D01*
X177782157Y-108933194D01*
X177782167Y-108933196D01*
X177786390Y-108934407D01*
X177790743Y-108935019D01*
X177790744Y-108935019D01*
X177811476Y-108937933D01*
X177907035Y-108951363D01*
X177909092Y-108951670D01*
X178029520Y-108970744D01*
X178033918Y-108970821D01*
X178033922Y-108970821D01*
X178039430Y-108970917D01*
X178054760Y-108972124D01*
X178064552Y-108973500D01*
X178186312Y-108973500D01*
X178188510Y-108973519D01*
X178310374Y-108975646D01*
X178314730Y-108975111D01*
X178314733Y-108975111D01*
X178320204Y-108974439D01*
X178335560Y-108973500D01*
X180410146Y-108973500D01*
X180412332Y-108973347D01*
X180412336Y-108973347D01*
X180615827Y-108959118D01*
X180615832Y-108959117D01*
X180620212Y-108958811D01*
X180894970Y-108900409D01*
X180899099Y-108898906D01*
X180899103Y-108898905D01*
X181154781Y-108805846D01*
X181154785Y-108805844D01*
X181158926Y-108804337D01*
X181406942Y-108672464D01*
X181424645Y-108659602D01*
X181630629Y-108509947D01*
X181630632Y-108509944D01*
X181634192Y-108507358D01*
X181650496Y-108491614D01*
X181757973Y-108387824D01*
X181820870Y-108354892D01*
X181891586Y-108361192D01*
X181947671Y-108404724D01*
X181971500Y-108478461D01*
X181971500Y-111254060D01*
X181951498Y-111322181D01*
X181897842Y-111368674D01*
X181827568Y-111378778D01*
X181762988Y-111349284D01*
X181728308Y-111300342D01*
X181688185Y-111198744D01*
X181688184Y-111198742D01*
X181686224Y-111193779D01*
X181566623Y-110996683D01*
X181563126Y-110992653D01*
X181419023Y-110826588D01*
X181419021Y-110826586D01*
X181415523Y-110822555D01*
X181340976Y-110761430D01*
X181241373Y-110679760D01*
X181241367Y-110679756D01*
X181237245Y-110676376D01*
X181232609Y-110673737D01*
X181232606Y-110673735D01*
X181041529Y-110564968D01*
X181036886Y-110562325D01*
X180820175Y-110483663D01*
X180814926Y-110482714D01*
X180814923Y-110482713D01*
X180597392Y-110443377D01*
X180597385Y-110443376D01*
X180593308Y-110442639D01*
X180575586Y-110441803D01*
X180570644Y-110441570D01*
X180570637Y-110441570D01*
X180569156Y-110441500D01*
X180157110Y-110441500D01*
X180090191Y-110447178D01*
X179990591Y-110455629D01*
X179990587Y-110455630D01*
X179985280Y-110456080D01*
X179980125Y-110457418D01*
X179980119Y-110457419D01*
X179767297Y-110512657D01*
X179767293Y-110512658D01*
X179762128Y-110513999D01*
X179757262Y-110516191D01*
X179757259Y-110516192D01*
X179648980Y-110564968D01*
X179551925Y-110608688D01*
X179360681Y-110737441D01*
X179356824Y-110741120D01*
X179356822Y-110741122D01*
X179331792Y-110765000D01*
X179193865Y-110896576D01*
X179056246Y-111081542D01*
X179053830Y-111086294D01*
X179053825Y-111086302D01*
X179048078Y-111097606D01*
X178999375Y-111149263D01*
X178935762Y-111166500D01*
X178154595Y-111166500D01*
X178086474Y-111146498D01*
X178065500Y-111129595D01*
X168143652Y-101207747D01*
X168136112Y-101199461D01*
X168132000Y-101192982D01*
X168082348Y-101146356D01*
X168079507Y-101143602D01*
X168059770Y-101123865D01*
X168056573Y-101121385D01*
X168047551Y-101113680D01*
X168021100Y-101088841D01*
X168015321Y-101083414D01*
X168008375Y-101079595D01*
X168008372Y-101079593D01*
X167997566Y-101073652D01*
X167981047Y-101062801D01*
X167980583Y-101062441D01*
X167965041Y-101050386D01*
X167957772Y-101047241D01*
X167957768Y-101047238D01*
X167924463Y-101032826D01*
X167913813Y-101027609D01*
X167875060Y-101006305D01*
X167855437Y-101001267D01*
X167836734Y-100994863D01*
X167825420Y-100989967D01*
X167825419Y-100989967D01*
X167818145Y-100986819D01*
X167810322Y-100985580D01*
X167810312Y-100985577D01*
X167774476Y-100979901D01*
X167762856Y-100977495D01*
X167727711Y-100968472D01*
X167727710Y-100968472D01*
X167720030Y-100966500D01*
X167699776Y-100966500D01*
X167680065Y-100964949D01*
X167667886Y-100963020D01*
X167660057Y-100961780D01*
X167652165Y-100962526D01*
X167616039Y-100965941D01*
X167604181Y-100966500D01*
X159064594Y-100966500D01*
X158996473Y-100946498D01*
X158975499Y-100929595D01*
X157632253Y-99586348D01*
X156263652Y-98217747D01*
X156256112Y-98209461D01*
X156252000Y-98202982D01*
X156202348Y-98156356D01*
X156199507Y-98153602D01*
X156179770Y-98133865D01*
X156176573Y-98131385D01*
X156167551Y-98123680D01*
X156135321Y-98093414D01*
X156128375Y-98089595D01*
X156128372Y-98089593D01*
X156117566Y-98083652D01*
X156101047Y-98072801D01*
X156100583Y-98072441D01*
X156085041Y-98060386D01*
X156077772Y-98057241D01*
X156077768Y-98057238D01*
X156044463Y-98042826D01*
X156033813Y-98037609D01*
X155995060Y-98016305D01*
X155975437Y-98011267D01*
X155956734Y-98004863D01*
X155945420Y-97999967D01*
X155945419Y-97999967D01*
X155938145Y-97996819D01*
X155930322Y-97995580D01*
X155930312Y-97995577D01*
X155894476Y-97989901D01*
X155882856Y-97987495D01*
X155847711Y-97978472D01*
X155847710Y-97978472D01*
X155840030Y-97976500D01*
X155819776Y-97976500D01*
X155800065Y-97974949D01*
X155787886Y-97973020D01*
X155780057Y-97971780D01*
X155772165Y-97972526D01*
X155736039Y-97975941D01*
X155724181Y-97976500D01*
X151126926Y-97976500D01*
X151058805Y-97956498D01*
X151012312Y-97902842D01*
X151002208Y-97832568D01*
X151031702Y-97767988D01*
X151051355Y-97749679D01*
X151073261Y-97733261D01*
X151160615Y-97616705D01*
X151211745Y-97480316D01*
X151218500Y-97418134D01*
X151218500Y-96617856D01*
X151219578Y-96601409D01*
X151221092Y-96589908D01*
X151221529Y-96586590D01*
X151223156Y-96520000D01*
X151218924Y-96468524D01*
X151218500Y-96458200D01*
X151218500Y-96109594D01*
X151238502Y-96041473D01*
X151255405Y-96020499D01*
X151355499Y-95920405D01*
X151417811Y-95886379D01*
X151444594Y-95883500D01*
X157415630Y-95883500D01*
X157483751Y-95903502D01*
X157523063Y-95943665D01*
X157609501Y-96084719D01*
X157761147Y-96259784D01*
X157939349Y-96407730D01*
X158139322Y-96524584D01*
X158355694Y-96607209D01*
X158360760Y-96608240D01*
X158360761Y-96608240D01*
X158367210Y-96609552D01*
X158582656Y-96653385D01*
X158712089Y-96658131D01*
X158808949Y-96661683D01*
X158808953Y-96661683D01*
X158814113Y-96661872D01*
X158819233Y-96661216D01*
X158819235Y-96661216D01*
X158893166Y-96651745D01*
X159043847Y-96632442D01*
X159048795Y-96630957D01*
X159048802Y-96630956D01*
X159260747Y-96567369D01*
X159265690Y-96565886D01*
X159276913Y-96560388D01*
X159469049Y-96466262D01*
X159469052Y-96466260D01*
X159473684Y-96463991D01*
X159662243Y-96329494D01*
X159707309Y-96284585D01*
X159769681Y-96250669D01*
X159840487Y-96255857D01*
X159897249Y-96298503D01*
X159914231Y-96329607D01*
X159939385Y-96396705D01*
X160026739Y-96513261D01*
X160143295Y-96600615D01*
X160279684Y-96651745D01*
X160341866Y-96658500D01*
X162238134Y-96658500D01*
X162300316Y-96651745D01*
X162436705Y-96600615D01*
X162553261Y-96513261D01*
X162640615Y-96396705D01*
X162691745Y-96260316D01*
X162698500Y-96198134D01*
X162698500Y-94301866D01*
X162691745Y-94239684D01*
X162640615Y-94103295D01*
X162553261Y-93986739D01*
X162436705Y-93899385D01*
X162300316Y-93848255D01*
X162238134Y-93841500D01*
X162049500Y-93841500D01*
X161981379Y-93821498D01*
X161934886Y-93767842D01*
X161923500Y-93715500D01*
X161923500Y-90248768D01*
X161924027Y-90237585D01*
X161925702Y-90230092D01*
X161924570Y-90194057D01*
X161923562Y-90162002D01*
X161923500Y-90158044D01*
X161923500Y-90130144D01*
X161922996Y-90126153D01*
X161922063Y-90114311D01*
X161920923Y-90078036D01*
X161920674Y-90070111D01*
X161915021Y-90050652D01*
X161911012Y-90031293D01*
X161910846Y-90029983D01*
X161908474Y-90011203D01*
X161905558Y-90003837D01*
X161905556Y-90003831D01*
X161892200Y-89970098D01*
X161888355Y-89958868D01*
X161878230Y-89924017D01*
X161878230Y-89924016D01*
X161876019Y-89916407D01*
X161865705Y-89898966D01*
X161857008Y-89881213D01*
X161852472Y-89869758D01*
X161849552Y-89862383D01*
X161823563Y-89826612D01*
X161817047Y-89816692D01*
X161794542Y-89778638D01*
X161780221Y-89764317D01*
X161767380Y-89749283D01*
X161766545Y-89748134D01*
X161755472Y-89732893D01*
X161721395Y-89704702D01*
X161712616Y-89696712D01*
X158648794Y-86632890D01*
X160257000Y-86632890D01*
X160257300Y-86639035D01*
X160271170Y-86780481D01*
X160273553Y-86792519D01*
X160328542Y-86974651D01*
X160333217Y-86985993D01*
X160422535Y-87153977D01*
X160429322Y-87164193D01*
X160549572Y-87311634D01*
X160558216Y-87320338D01*
X160704809Y-87441610D01*
X160714980Y-87448470D01*
X160882342Y-87538962D01*
X160893647Y-87543714D01*
X161018692Y-87582422D01*
X161032795Y-87582628D01*
X161036000Y-87575873D01*
X161036000Y-86632115D01*
X161031525Y-86616876D01*
X161030135Y-86615671D01*
X161022452Y-86614000D01*
X160275115Y-86614000D01*
X160259876Y-86618475D01*
X160258671Y-86619865D01*
X160257000Y-86627548D01*
X160257000Y-86632890D01*
X158648794Y-86632890D01*
X158103789Y-86087885D01*
X160257000Y-86087885D01*
X160261475Y-86103124D01*
X160262865Y-86104329D01*
X160270548Y-86106000D01*
X161017885Y-86106000D01*
X161033124Y-86101525D01*
X161034329Y-86100135D01*
X161036000Y-86092452D01*
X161036000Y-85151014D01*
X161032027Y-85137483D01*
X161024232Y-85136363D01*
X160907068Y-85170846D01*
X160895700Y-85175439D01*
X160727089Y-85263586D01*
X160716827Y-85270302D01*
X160568557Y-85389515D01*
X160559787Y-85398103D01*
X160437501Y-85543838D01*
X160430563Y-85553969D01*
X160338906Y-85720692D01*
X160334076Y-85731962D01*
X160276548Y-85913315D01*
X160273998Y-85925309D01*
X160257393Y-86073350D01*
X160257000Y-86080374D01*
X160257000Y-86087885D01*
X158103789Y-86087885D01*
X153709152Y-81693248D01*
X153675126Y-81630936D01*
X153676541Y-81571541D01*
X153692118Y-81513409D01*
X153692120Y-81513398D01*
X153693543Y-81508087D01*
X153713498Y-81280000D01*
X153693543Y-81051913D01*
X153654743Y-80907111D01*
X153656433Y-80836135D01*
X153696227Y-80777339D01*
X153761491Y-80749391D01*
X153776450Y-80748500D01*
X161183550Y-80748500D01*
X161251671Y-80768502D01*
X161298164Y-80822158D01*
X161308268Y-80892432D01*
X161305258Y-80907105D01*
X161266457Y-81051913D01*
X161246502Y-81280000D01*
X161266457Y-81508087D01*
X161267881Y-81513400D01*
X161267881Y-81513402D01*
X161321916Y-81715060D01*
X161325716Y-81729243D01*
X161328039Y-81734224D01*
X161328039Y-81734225D01*
X161420151Y-81931762D01*
X161420154Y-81931767D01*
X161422477Y-81936749D01*
X161441568Y-81964013D01*
X161543325Y-82109337D01*
X161553802Y-82124300D01*
X161715700Y-82286198D01*
X161720208Y-82289355D01*
X161720211Y-82289357D01*
X161742663Y-82305078D01*
X161903251Y-82417523D01*
X161908233Y-82419846D01*
X161908238Y-82419849D01*
X162104613Y-82511419D01*
X162110757Y-82514284D01*
X162116065Y-82515706D01*
X162116067Y-82515707D01*
X162326598Y-82572119D01*
X162326600Y-82572119D01*
X162331913Y-82573543D01*
X162560000Y-82593498D01*
X162788087Y-82573543D01*
X162793400Y-82572119D01*
X162793402Y-82572119D01*
X163003933Y-82515707D01*
X163003935Y-82515706D01*
X163009243Y-82514284D01*
X163015387Y-82511419D01*
X163211762Y-82419849D01*
X163211767Y-82419846D01*
X163216749Y-82417523D01*
X163377337Y-82305078D01*
X163399789Y-82289357D01*
X163399792Y-82289355D01*
X163404300Y-82286198D01*
X163566198Y-82124300D01*
X163576676Y-82109337D01*
X163697523Y-81936749D01*
X163698831Y-81937665D01*
X163744895Y-81893743D01*
X163814609Y-81880306D01*
X163880520Y-81906693D01*
X163891727Y-81916641D01*
X164905769Y-82930683D01*
X164910310Y-82935467D01*
X164966905Y-82998322D01*
X165060209Y-83076614D01*
X165061880Y-83078042D01*
X165150508Y-83155085D01*
X165150516Y-83155091D01*
X165153836Y-83157977D01*
X165157518Y-83160368D01*
X165157527Y-83160375D01*
X165162141Y-83163371D01*
X165174497Y-83172514D01*
X165178705Y-83176044D01*
X165182084Y-83178879D01*
X165185819Y-83181213D01*
X165185826Y-83181218D01*
X165285371Y-83243420D01*
X165287215Y-83244594D01*
X165389416Y-83310964D01*
X165393403Y-83312823D01*
X165393408Y-83312826D01*
X165398391Y-83315150D01*
X165411897Y-83322482D01*
X165416248Y-83325200D01*
X165420298Y-83327731D01*
X165424310Y-83329517D01*
X165424317Y-83329521D01*
X165531566Y-83377271D01*
X165533567Y-83378183D01*
X165562827Y-83391827D01*
X165643994Y-83429676D01*
X165648188Y-83430958D01*
X165648206Y-83430965D01*
X165653467Y-83432573D01*
X165667872Y-83437958D01*
X165676909Y-83441982D01*
X165681135Y-83443194D01*
X165681141Y-83443196D01*
X165793985Y-83475553D01*
X165796093Y-83476177D01*
X165908405Y-83510514D01*
X165908411Y-83510515D01*
X165912616Y-83511801D01*
X165916964Y-83512490D01*
X165916965Y-83512490D01*
X165918634Y-83512754D01*
X165922394Y-83513350D01*
X165937400Y-83516677D01*
X165942691Y-83518194D01*
X165942701Y-83518196D01*
X165946924Y-83519407D01*
X165951277Y-83520019D01*
X165951278Y-83520019D01*
X165972010Y-83522933D01*
X166067569Y-83536363D01*
X166069626Y-83536670D01*
X166190054Y-83555744D01*
X166194452Y-83555821D01*
X166194456Y-83555821D01*
X166199964Y-83555917D01*
X166215294Y-83557124D01*
X166225086Y-83558500D01*
X166238397Y-83558500D01*
X166306518Y-83578502D01*
X166353011Y-83632158D01*
X166363115Y-83702432D01*
X166354595Y-83733224D01*
X166331113Y-83789224D01*
X166286325Y-83844311D01*
X166214915Y-83866500D01*
X165768767Y-83866500D01*
X165757584Y-83865973D01*
X165750091Y-83864298D01*
X165742165Y-83864547D01*
X165742164Y-83864547D01*
X165682014Y-83866438D01*
X165678055Y-83866500D01*
X165650144Y-83866500D01*
X165646210Y-83866997D01*
X165646209Y-83866997D01*
X165646144Y-83867005D01*
X165634307Y-83867938D01*
X165603756Y-83868898D01*
X165598029Y-83869078D01*
X165590110Y-83869327D01*
X165572454Y-83874456D01*
X165570658Y-83874978D01*
X165551306Y-83878986D01*
X165544235Y-83879880D01*
X165531203Y-83881526D01*
X165523834Y-83884443D01*
X165523832Y-83884444D01*
X165490097Y-83897800D01*
X165478869Y-83901645D01*
X165436407Y-83913982D01*
X165429585Y-83918016D01*
X165429579Y-83918019D01*
X165418968Y-83924294D01*
X165401218Y-83932990D01*
X165389756Y-83937528D01*
X165389751Y-83937531D01*
X165382383Y-83940448D01*
X165375968Y-83945109D01*
X165346625Y-83966427D01*
X165336707Y-83972943D01*
X165326904Y-83978741D01*
X165298637Y-83995458D01*
X165284313Y-84009782D01*
X165269281Y-84022621D01*
X165252893Y-84034528D01*
X165243325Y-84046094D01*
X165224712Y-84068593D01*
X165216722Y-84077373D01*
X164229500Y-85064595D01*
X164167188Y-85098621D01*
X164140405Y-85101500D01*
X163256866Y-85101500D01*
X163194684Y-85108255D01*
X163178466Y-85114335D01*
X163066704Y-85156232D01*
X163066701Y-85156234D01*
X163058295Y-85159385D01*
X163051106Y-85164773D01*
X163050863Y-85164906D01*
X162981506Y-85180076D01*
X162953092Y-85174752D01*
X162944587Y-85172119D01*
X162768820Y-85117710D01*
X162762695Y-85117066D01*
X162762694Y-85117066D01*
X162573378Y-85097168D01*
X162573377Y-85097168D01*
X162567250Y-85096524D01*
X162494676Y-85103129D01*
X162371543Y-85114335D01*
X162371540Y-85114336D01*
X162365404Y-85114894D01*
X162359498Y-85116632D01*
X162359494Y-85116633D01*
X162276221Y-85141142D01*
X162170971Y-85172119D01*
X162165514Y-85174972D01*
X162165511Y-85174973D01*
X161996819Y-85263162D01*
X161996815Y-85263165D01*
X161991355Y-85266019D01*
X161991103Y-85266221D01*
X161925088Y-85286201D01*
X161864115Y-85271041D01*
X161697658Y-85181038D01*
X161686353Y-85176286D01*
X161561308Y-85137578D01*
X161547205Y-85137372D01*
X161544000Y-85144127D01*
X161544000Y-85913758D01*
X161543215Y-85927803D01*
X161526500Y-86076817D01*
X161526500Y-86636004D01*
X161541277Y-86786713D01*
X161541968Y-86789002D01*
X161544000Y-86809724D01*
X161544000Y-87568986D01*
X161547973Y-87582517D01*
X161555768Y-87583637D01*
X161672932Y-87549154D01*
X161684300Y-87544561D01*
X161852907Y-87456416D01*
X161855983Y-87454403D01*
X161857822Y-87453846D01*
X161858370Y-87453560D01*
X161858424Y-87453664D01*
X161923936Y-87433839D01*
X161984906Y-87448999D01*
X162157565Y-87542356D01*
X162254372Y-87572323D01*
X162345293Y-87600468D01*
X162345296Y-87600469D01*
X162351180Y-87602290D01*
X162357305Y-87602934D01*
X162357306Y-87602934D01*
X162546622Y-87622832D01*
X162546623Y-87622832D01*
X162552750Y-87623476D01*
X162636014Y-87615898D01*
X162748457Y-87605665D01*
X162748460Y-87605664D01*
X162754596Y-87605106D01*
X162760502Y-87603368D01*
X162760506Y-87603367D01*
X162943121Y-87549620D01*
X162943123Y-87549619D01*
X162946111Y-87548740D01*
X162949029Y-87547881D01*
X162949282Y-87548740D01*
X163014662Y-87542286D01*
X163051406Y-87555452D01*
X163058295Y-87560615D01*
X163066696Y-87563764D01*
X163066699Y-87563766D01*
X163141665Y-87591869D01*
X163194684Y-87611745D01*
X163256866Y-87618500D01*
X164403134Y-87618500D01*
X164465316Y-87611745D01*
X164601705Y-87560615D01*
X164718261Y-87473261D01*
X164805615Y-87356705D01*
X164856745Y-87220316D01*
X164863500Y-87158134D01*
X164863500Y-86274594D01*
X164883502Y-86206473D01*
X164900405Y-86185499D01*
X165915499Y-85170405D01*
X165977811Y-85136379D01*
X166004594Y-85133500D01*
X166210320Y-85133500D01*
X166278441Y-85153502D01*
X166324934Y-85207158D01*
X166325517Y-85208592D01*
X166325545Y-85208580D01*
X166327443Y-85212843D01*
X166329026Y-85217252D01*
X166331242Y-85221376D01*
X166331243Y-85221378D01*
X166441637Y-85426832D01*
X166452737Y-85447491D01*
X166455532Y-85451234D01*
X166455534Y-85451237D01*
X166606330Y-85653177D01*
X166606335Y-85653183D01*
X166609122Y-85656915D01*
X166612431Y-85660195D01*
X166612436Y-85660201D01*
X166750447Y-85797012D01*
X166794743Y-85840923D01*
X166798505Y-85843681D01*
X166798508Y-85843684D01*
X167001413Y-85992460D01*
X167005524Y-85995474D01*
X167009667Y-85997654D01*
X167009669Y-85997655D01*
X167232684Y-86114989D01*
X167232689Y-86114991D01*
X167236834Y-86117172D01*
X167380540Y-86167357D01*
X167478015Y-86201397D01*
X167483590Y-86203344D01*
X167488183Y-86204216D01*
X167735785Y-86251224D01*
X167735788Y-86251224D01*
X167740374Y-86252095D01*
X167870958Y-86257226D01*
X167996875Y-86262174D01*
X167996881Y-86262174D01*
X168001543Y-86262357D01*
X168084597Y-86253261D01*
X168256707Y-86234412D01*
X168256712Y-86234411D01*
X168261360Y-86233902D01*
X168323329Y-86217587D01*
X168509594Y-86168548D01*
X168509596Y-86168547D01*
X168514117Y-86167357D01*
X168754262Y-86064182D01*
X168860960Y-85998156D01*
X168972547Y-85929104D01*
X168972548Y-85929104D01*
X168976519Y-85926646D01*
X168980082Y-85923629D01*
X168980087Y-85923626D01*
X169172439Y-85760787D01*
X169172440Y-85760786D01*
X169176005Y-85757768D01*
X169221691Y-85705673D01*
X169345257Y-85564774D01*
X169345261Y-85564769D01*
X169348339Y-85561259D01*
X169359109Y-85544516D01*
X169467293Y-85376324D01*
X169489733Y-85341437D01*
X169597083Y-85103129D01*
X169650716Y-84912964D01*
X169666760Y-84856076D01*
X169666761Y-84856073D01*
X169668030Y-84851572D01*
X169684832Y-84719496D01*
X169700616Y-84595421D01*
X169700616Y-84595417D01*
X169701014Y-84592291D01*
X169701899Y-84558522D01*
X169703122Y-84511802D01*
X169703431Y-84500000D01*
X169698491Y-84433525D01*
X169684407Y-84244000D01*
X169684406Y-84243996D01*
X169684061Y-84239348D01*
X169679059Y-84217240D01*
X169627408Y-83988980D01*
X169626377Y-83984423D01*
X169624168Y-83978741D01*
X169559901Y-83813478D01*
X169531647Y-83740823D01*
X169530200Y-83738291D01*
X169518998Y-83668652D01*
X169547409Y-83603588D01*
X169606486Y-83564213D01*
X169643997Y-83558500D01*
X172105862Y-83558500D01*
X172173983Y-83578502D01*
X172194957Y-83595405D01*
X172533731Y-83934179D01*
X172537830Y-83938475D01*
X172596582Y-84003043D01*
X172685481Y-84077373D01*
X172687117Y-84078741D01*
X172688957Y-84080310D01*
X172727582Y-84113886D01*
X172778303Y-84157977D01*
X172781991Y-84160372D01*
X172782003Y-84160381D01*
X172787962Y-84164251D01*
X172800149Y-84173252D01*
X172803378Y-84175951D01*
X172803385Y-84175956D01*
X172806675Y-84178707D01*
X172810301Y-84180982D01*
X172810303Y-84180983D01*
X172910148Y-84243615D01*
X172911804Y-84244672D01*
X173013883Y-84310964D01*
X173020934Y-84314252D01*
X173034638Y-84321709D01*
X173038664Y-84324234D01*
X173042567Y-84325997D01*
X173042574Y-84326000D01*
X173153881Y-84376258D01*
X173155278Y-84376899D01*
X173264469Y-84427815D01*
X173264475Y-84427817D01*
X173268461Y-84429676D01*
X173272664Y-84430961D01*
X173276173Y-84432308D01*
X173280256Y-84433847D01*
X173280323Y-84433668D01*
X173284346Y-84435164D01*
X173288257Y-84436930D01*
X173413956Y-84474163D01*
X173414992Y-84474475D01*
X173537083Y-84511802D01*
X173541433Y-84512491D01*
X173542325Y-84512697D01*
X173547149Y-84513617D01*
X173550836Y-84514709D01*
X173686362Y-84535447D01*
X173686792Y-84535514D01*
X173814520Y-84555744D01*
X173818925Y-84555821D01*
X173819971Y-84555912D01*
X173820170Y-84555922D01*
X173821540Y-84556132D01*
X173825549Y-84556195D01*
X173973632Y-84558522D01*
X173973851Y-84558525D01*
X174095374Y-84560646D01*
X174099730Y-84560111D01*
X174099733Y-84560111D01*
X174215718Y-84545869D01*
X174215937Y-84545843D01*
X174339692Y-84530867D01*
X174367235Y-84527534D01*
X174368589Y-84527179D01*
X174368793Y-84527147D01*
X174369810Y-84526949D01*
X174374176Y-84526413D01*
X174498843Y-84493009D01*
X174499267Y-84492897D01*
X174570674Y-84474163D01*
X174627977Y-84459130D01*
X174627980Y-84459129D01*
X174632127Y-84458041D01*
X174635677Y-84456570D01*
X174640380Y-84455151D01*
X174641260Y-84454848D01*
X174645500Y-84453712D01*
X174763036Y-84403821D01*
X174763935Y-84403444D01*
X174885136Y-84353241D01*
X174888833Y-84351081D01*
X174892681Y-84349171D01*
X174892766Y-84349341D01*
X174896742Y-84347345D01*
X174900016Y-84345677D01*
X174904067Y-84343957D01*
X175011143Y-84279620D01*
X175012445Y-84278848D01*
X175117875Y-84217240D01*
X175117883Y-84217234D01*
X175121582Y-84215073D01*
X175124959Y-84212425D01*
X175124965Y-84212421D01*
X175125324Y-84212140D01*
X175138174Y-84203292D01*
X175144842Y-84199285D01*
X175239455Y-84122669D01*
X175240958Y-84121472D01*
X175333708Y-84048746D01*
X175333716Y-84048739D01*
X175337089Y-84046094D01*
X175340077Y-84043011D01*
X175343010Y-84039985D01*
X175354188Y-84029760D01*
X175359715Y-84025284D01*
X175359716Y-84025283D01*
X175363139Y-84022511D01*
X175412177Y-83969925D01*
X175443855Y-83935955D01*
X175445521Y-83934202D01*
X175524681Y-83852515D01*
X175524685Y-83852510D01*
X175527669Y-83849431D01*
X175534922Y-83839557D01*
X175544305Y-83828235D01*
X175554710Y-83817077D01*
X175620616Y-83722952D01*
X175622276Y-83720638D01*
X175634046Y-83704616D01*
X175689795Y-83628723D01*
X175697430Y-83614661D01*
X175704941Y-83602525D01*
X175713300Y-83590586D01*
X175715825Y-83586980D01*
X175741619Y-83536356D01*
X175766376Y-83487769D01*
X175767912Y-83484850D01*
X175818420Y-83391827D01*
X175818423Y-83391820D01*
X175820468Y-83388054D01*
X175827443Y-83369594D01*
X175833043Y-83356927D01*
X175841350Y-83340625D01*
X175843350Y-83336700D01*
X175844781Y-83332543D01*
X175844789Y-83332525D01*
X175878438Y-83234799D01*
X175879707Y-83231282D01*
X175905368Y-83163371D01*
X175917269Y-83131877D01*
X175922512Y-83108985D01*
X175926196Y-83096097D01*
X175933368Y-83075267D01*
X175934800Y-83071108D01*
X175954678Y-82968844D01*
X175955528Y-82964830D01*
X175978407Y-82864933D01*
X175980827Y-82837820D01*
X175982643Y-82824981D01*
X175987558Y-82799697D01*
X175987559Y-82799690D01*
X175988398Y-82795373D01*
X175988927Y-82785293D01*
X175993659Y-82694990D01*
X175993985Y-82690384D01*
X176002531Y-82594628D01*
X176002531Y-82594624D01*
X176002751Y-82592161D01*
X176003193Y-82550000D01*
X176002615Y-82541518D01*
X176002496Y-82526369D01*
X176003099Y-82514862D01*
X176001239Y-82493595D01*
X175992778Y-82396895D01*
X175992591Y-82394483D01*
X175985425Y-82289357D01*
X175984567Y-82276778D01*
X175983658Y-82272386D01*
X175982084Y-82264788D01*
X175979945Y-82250215D01*
X175979000Y-82239413D01*
X175978617Y-82235034D01*
X175977628Y-82230749D01*
X175977625Y-82230732D01*
X175952767Y-82123066D01*
X175952155Y-82120271D01*
X175950204Y-82110846D01*
X175934642Y-82035701D01*
X175929904Y-82012820D01*
X175929902Y-82012812D01*
X175929032Y-82008612D01*
X175923692Y-81993533D01*
X175919698Y-81979827D01*
X175916420Y-81965627D01*
X175916418Y-81965620D01*
X175915429Y-81961337D01*
X175875528Y-81857389D01*
X175874387Y-81854299D01*
X175839046Y-81754500D01*
X175839045Y-81754499D01*
X175837617Y-81750465D01*
X175828567Y-81732929D01*
X175822904Y-81720299D01*
X175816345Y-81703211D01*
X175816339Y-81703197D01*
X175814765Y-81699098D01*
X175812635Y-81695255D01*
X175812632Y-81695249D01*
X175762524Y-81604853D01*
X175760760Y-81601557D01*
X175713980Y-81510922D01*
X175713977Y-81510916D01*
X175712013Y-81507112D01*
X175698513Y-81487903D01*
X175691398Y-81476539D01*
X175680717Y-81457270D01*
X175680714Y-81457265D01*
X175678583Y-81453421D01*
X175615906Y-81370246D01*
X175613451Y-81366873D01*
X175608745Y-81360176D01*
X175554545Y-81283057D01*
X175536003Y-81263104D01*
X175527684Y-81253171D01*
X175512186Y-81232604D01*
X175512182Y-81232599D01*
X175509536Y-81229088D01*
X175438492Y-81158044D01*
X175435287Y-81154720D01*
X175371046Y-81085588D01*
X175371043Y-81085585D01*
X175368125Y-81082445D01*
X175364810Y-81079731D01*
X175364806Y-81079728D01*
X175344148Y-81062820D01*
X175334859Y-81054411D01*
X174449765Y-80169317D01*
X174445224Y-80164533D01*
X174391566Y-80104940D01*
X174388629Y-80101678D01*
X174295295Y-80023360D01*
X174293642Y-80021949D01*
X174259035Y-79991866D01*
X174201697Y-79942023D01*
X174198011Y-79939629D01*
X174198004Y-79939624D01*
X174193397Y-79936632D01*
X174181039Y-79927488D01*
X174176826Y-79923953D01*
X174176819Y-79923948D01*
X174173450Y-79921121D01*
X174070162Y-79856580D01*
X174068306Y-79855398D01*
X173969809Y-79791433D01*
X173966118Y-79789036D01*
X173962123Y-79787173D01*
X173957143Y-79784850D01*
X173943637Y-79777518D01*
X173938968Y-79774601D01*
X173935236Y-79772269D01*
X173931224Y-79770483D01*
X173931217Y-79770479D01*
X173823968Y-79722729D01*
X173821967Y-79721817D01*
X173715525Y-79672182D01*
X173715522Y-79672181D01*
X173711540Y-79670324D01*
X173702070Y-79667429D01*
X173687663Y-79662042D01*
X173682650Y-79659810D01*
X173682649Y-79659810D01*
X173678625Y-79658018D01*
X173561505Y-79624435D01*
X173559417Y-79623817D01*
X173442917Y-79588199D01*
X173433135Y-79586650D01*
X173418119Y-79583320D01*
X173412843Y-79581807D01*
X173412844Y-79581807D01*
X173408610Y-79580593D01*
X173404257Y-79579981D01*
X173404251Y-79579980D01*
X173288022Y-79563646D01*
X173285845Y-79563321D01*
X173169824Y-79544944D01*
X173169823Y-79544944D01*
X173165480Y-79544256D01*
X173161084Y-79544179D01*
X173161080Y-79544179D01*
X173155570Y-79544083D01*
X173140240Y-79542876D01*
X173130448Y-79541500D01*
X173008688Y-79541500D01*
X173006489Y-79541481D01*
X172884626Y-79539354D01*
X172880270Y-79539889D01*
X172880267Y-79539889D01*
X172874796Y-79540561D01*
X172859440Y-79541500D01*
X170507609Y-79541500D01*
X170439488Y-79521498D01*
X170392995Y-79467842D01*
X170382891Y-79397568D01*
X170391200Y-79367282D01*
X170442611Y-79243165D01*
X170442613Y-79243158D01*
X170444505Y-79238591D01*
X170503609Y-78992403D01*
X170523474Y-78740000D01*
X170503609Y-78487597D01*
X170444505Y-78241409D01*
X170442611Y-78236836D01*
X170349511Y-78012072D01*
X170349509Y-78012068D01*
X170347616Y-78007498D01*
X170215328Y-77791624D01*
X170050898Y-77599102D01*
X169858376Y-77434672D01*
X169642502Y-77302384D01*
X169637932Y-77300491D01*
X169637928Y-77300489D01*
X169413164Y-77207389D01*
X169413162Y-77207388D01*
X169408591Y-77205495D01*
X169323968Y-77185179D01*
X169167216Y-77147546D01*
X169167210Y-77147545D01*
X169162403Y-77146391D01*
X168910000Y-77126526D01*
X168657597Y-77146391D01*
X168652790Y-77147545D01*
X168652784Y-77147546D01*
X168496032Y-77185179D01*
X168411409Y-77205495D01*
X168406838Y-77207388D01*
X168406836Y-77207389D01*
X168182072Y-77300489D01*
X168182068Y-77300491D01*
X168177498Y-77302384D01*
X167961624Y-77434672D01*
X167769102Y-77599102D01*
X167604672Y-77791624D01*
X167472384Y-78007498D01*
X167470491Y-78012068D01*
X167470489Y-78012072D01*
X167377389Y-78236836D01*
X167375495Y-78241409D01*
X167316391Y-78487597D01*
X167296526Y-78740000D01*
X167316391Y-78992403D01*
X167375495Y-79238591D01*
X167377387Y-79243158D01*
X167377389Y-79243165D01*
X167428800Y-79367282D01*
X167436389Y-79437872D01*
X167404609Y-79501359D01*
X167343551Y-79537586D01*
X167312391Y-79541500D01*
X167249672Y-79541500D01*
X167181551Y-79521498D01*
X167160577Y-79504595D01*
X165015299Y-77359317D01*
X165010758Y-77354533D01*
X164957100Y-77294940D01*
X164954163Y-77291678D01*
X164860829Y-77213360D01*
X164859176Y-77211949D01*
X164856789Y-77209874D01*
X164767231Y-77132023D01*
X164763545Y-77129629D01*
X164763538Y-77129624D01*
X164758931Y-77126632D01*
X164746573Y-77117488D01*
X164742360Y-77113953D01*
X164742353Y-77113948D01*
X164738984Y-77111121D01*
X164635696Y-77046580D01*
X164633840Y-77045398D01*
X164535343Y-76981433D01*
X164531652Y-76979036D01*
X164527657Y-76977173D01*
X164522677Y-76974850D01*
X164509171Y-76967518D01*
X164504502Y-76964601D01*
X164500770Y-76962269D01*
X164496758Y-76960483D01*
X164496751Y-76960479D01*
X164389502Y-76912729D01*
X164387501Y-76911817D01*
X164281059Y-76862182D01*
X164281056Y-76862181D01*
X164277074Y-76860324D01*
X164267604Y-76857429D01*
X164253197Y-76852042D01*
X164248184Y-76849810D01*
X164248183Y-76849810D01*
X164244159Y-76848018D01*
X164155872Y-76822703D01*
X164127039Y-76814435D01*
X164124951Y-76813817D01*
X164008451Y-76778199D01*
X163998669Y-76776650D01*
X163983653Y-76773320D01*
X163978377Y-76771807D01*
X163978378Y-76771807D01*
X163974144Y-76770593D01*
X163969791Y-76769981D01*
X163969785Y-76769980D01*
X163853556Y-76753646D01*
X163851379Y-76753321D01*
X163735358Y-76734944D01*
X163735357Y-76734944D01*
X163731014Y-76734256D01*
X163726618Y-76734179D01*
X163726614Y-76734179D01*
X163721104Y-76734083D01*
X163705774Y-76732876D01*
X163695982Y-76731500D01*
X163574222Y-76731500D01*
X163572023Y-76731481D01*
X163450160Y-76729354D01*
X163445804Y-76729889D01*
X163445801Y-76729889D01*
X163440330Y-76730561D01*
X163424974Y-76731500D01*
X147895909Y-76731500D01*
X147889315Y-76731327D01*
X147809259Y-76727131D01*
X147809253Y-76727131D01*
X147804862Y-76726901D01*
X147800485Y-76727284D01*
X147800482Y-76727284D01*
X147683454Y-76737523D01*
X147681261Y-76737695D01*
X147564173Y-76745882D01*
X147564168Y-76745883D01*
X147559788Y-76746189D01*
X147550107Y-76748247D01*
X147534900Y-76750519D01*
X147529425Y-76750998D01*
X147529412Y-76751000D01*
X147525034Y-76751383D01*
X147452341Y-76768166D01*
X147406326Y-76778789D01*
X147404179Y-76779265D01*
X147346952Y-76791429D01*
X147285030Y-76804591D01*
X147280898Y-76806095D01*
X147275728Y-76807976D01*
X147260982Y-76812344D01*
X147255624Y-76813581D01*
X147255619Y-76813582D01*
X147251337Y-76814571D01*
X147137571Y-76858241D01*
X147135571Y-76858989D01*
X147021074Y-76900663D01*
X147012336Y-76905309D01*
X146998333Y-76911690D01*
X146993210Y-76913656D01*
X146993203Y-76913659D01*
X146989098Y-76915235D01*
X146882479Y-76974336D01*
X146880612Y-76975348D01*
X146776942Y-77030470D01*
X146776933Y-77030476D01*
X146773058Y-77032536D01*
X146769501Y-77035121D01*
X146769495Y-77035124D01*
X146765047Y-77038355D01*
X146752074Y-77046620D01*
X146743421Y-77051417D01*
X146739906Y-77054066D01*
X146646169Y-77124701D01*
X146644415Y-77125999D01*
X146643156Y-77126914D01*
X146549760Y-77194771D01*
X146545808Y-77197642D01*
X146539847Y-77203398D01*
X146538680Y-77204525D01*
X146526988Y-77214510D01*
X146522607Y-77217812D01*
X146519088Y-77220464D01*
X146433012Y-77306540D01*
X146431444Y-77308082D01*
X146343748Y-77392769D01*
X146337685Y-77400530D01*
X146337647Y-77400578D01*
X146327452Y-77412100D01*
X145514957Y-78224595D01*
X145452645Y-78258621D01*
X145425862Y-78261500D01*
X145244500Y-78261500D01*
X145176379Y-78241498D01*
X145129886Y-78187842D01*
X145118500Y-78135500D01*
X145118500Y-76321866D01*
X145111745Y-76259684D01*
X145060615Y-76123295D01*
X144973261Y-76006739D01*
X144856705Y-75919385D01*
X144720316Y-75868255D01*
X144664440Y-75862185D01*
X144661531Y-75861869D01*
X144658134Y-75861500D01*
X142361866Y-75861500D01*
X142358469Y-75861869D01*
X142355560Y-75862185D01*
X142299684Y-75868255D01*
X142163295Y-75919385D01*
X142046739Y-76006739D01*
X141959385Y-76123295D01*
X141908255Y-76259684D01*
X141901500Y-76321866D01*
X141901500Y-78135500D01*
X141881498Y-78203621D01*
X141827842Y-78250114D01*
X141775500Y-78261500D01*
X137034138Y-78261500D01*
X136966017Y-78241498D01*
X136945043Y-78224595D01*
X134849328Y-76128880D01*
X134840503Y-76119080D01*
X134825283Y-76100285D01*
X134825282Y-76100284D01*
X134822511Y-76096862D01*
X134819292Y-76093860D01*
X134819288Y-76093856D01*
X134747038Y-76026482D01*
X134743875Y-76023427D01*
X134720623Y-76000175D01*
X134695803Y-75978599D01*
X134692543Y-75975664D01*
X134620289Y-75908286D01*
X134620287Y-75908285D01*
X134617077Y-75905291D01*
X134593656Y-75888891D01*
X134583277Y-75880782D01*
X134561697Y-75862023D01*
X134558009Y-75859628D01*
X134558001Y-75859622D01*
X134475147Y-75805816D01*
X134471502Y-75803357D01*
X134390591Y-75746703D01*
X134390586Y-75746700D01*
X134386980Y-75744175D01*
X134361508Y-75731197D01*
X134350094Y-75724607D01*
X134326118Y-75709036D01*
X134232594Y-75665426D01*
X134228643Y-75663498D01*
X134140633Y-75618654D01*
X134140621Y-75618649D01*
X134136700Y-75616651D01*
X134109673Y-75607345D01*
X134097454Y-75602408D01*
X134071540Y-75590324D01*
X134067339Y-75589040D01*
X134067327Y-75589035D01*
X133972821Y-75560142D01*
X133968678Y-75558797D01*
X133871108Y-75525201D01*
X133866799Y-75524363D01*
X133866790Y-75524361D01*
X133845870Y-75520295D01*
X133843047Y-75519746D01*
X133830260Y-75516558D01*
X133802917Y-75508199D01*
X133798585Y-75507513D01*
X133798577Y-75507511D01*
X133700973Y-75492052D01*
X133696653Y-75491290D01*
X133670658Y-75486237D01*
X133599691Y-75472442D01*
X133599684Y-75472441D01*
X133595372Y-75471603D01*
X133568777Y-75470209D01*
X133566845Y-75470108D01*
X133553728Y-75468730D01*
X133529828Y-75464944D01*
X133529818Y-75464943D01*
X133525480Y-75464256D01*
X133521081Y-75464179D01*
X133521079Y-75464179D01*
X133422266Y-75462454D01*
X133417871Y-75462300D01*
X133319259Y-75457132D01*
X133319253Y-75457132D01*
X133314862Y-75456902D01*
X133310484Y-75457285D01*
X133310483Y-75457285D01*
X133306290Y-75457652D01*
X133286384Y-75459393D01*
X133273214Y-75459853D01*
X133244626Y-75459354D01*
X133240271Y-75459889D01*
X133240266Y-75459889D01*
X133142211Y-75471929D01*
X133137838Y-75472389D01*
X133035034Y-75481383D01*
X133030745Y-75482373D01*
X133030746Y-75482373D01*
X133007178Y-75487814D01*
X132994190Y-75490104D01*
X132970189Y-75493051D01*
X132970187Y-75493051D01*
X132965825Y-75493587D01*
X132906497Y-75509484D01*
X132866149Y-75520295D01*
X132861882Y-75521359D01*
X132765619Y-75543583D01*
X132765614Y-75543585D01*
X132761337Y-75544572D01*
X132734644Y-75554819D01*
X132722117Y-75558888D01*
X132698754Y-75565148D01*
X132698752Y-75565149D01*
X132694500Y-75566288D01*
X132599484Y-75606620D01*
X132595494Y-75608233D01*
X132499098Y-75645235D01*
X132495250Y-75647368D01*
X132474092Y-75659096D01*
X132462244Y-75664875D01*
X132435933Y-75676043D01*
X132432161Y-75678309D01*
X132432150Y-75678315D01*
X132347470Y-75729196D01*
X132343680Y-75731385D01*
X132253421Y-75781417D01*
X132249914Y-75784060D01*
X132230593Y-75798619D01*
X132219661Y-75805992D01*
X132195158Y-75820715D01*
X132191744Y-75823480D01*
X132114958Y-75885660D01*
X132111492Y-75888368D01*
X132063184Y-75924771D01*
X132029088Y-75950464D01*
X132008880Y-75970672D01*
X131999080Y-75979497D01*
X131976862Y-75997489D01*
X131973860Y-76000708D01*
X131973856Y-76000712D01*
X131906482Y-76072962D01*
X131903427Y-76076125D01*
X128484957Y-79494595D01*
X128422645Y-79528621D01*
X128395862Y-79531500D01*
X128221866Y-79531500D01*
X128159684Y-79538255D01*
X128023295Y-79589385D01*
X127906739Y-79676739D01*
X127819385Y-79793295D01*
X127768255Y-79929684D01*
X127761500Y-79991866D01*
X127761500Y-80178261D01*
X127741498Y-80246382D01*
X127730594Y-80260924D01*
X127672023Y-80328303D01*
X127669629Y-80331989D01*
X127669624Y-80331996D01*
X127666632Y-80336603D01*
X127657488Y-80348961D01*
X127653953Y-80353174D01*
X127653948Y-80353181D01*
X127651121Y-80356550D01*
X127595800Y-80445083D01*
X127586580Y-80459838D01*
X127585399Y-80461693D01*
X127519036Y-80563882D01*
X127517173Y-80567876D01*
X127517173Y-80567877D01*
X127514850Y-80572857D01*
X127507518Y-80586363D01*
X127502269Y-80594764D01*
X127500483Y-80598776D01*
X127500479Y-80598783D01*
X127452729Y-80706032D01*
X127451817Y-80708033D01*
X127431605Y-80751379D01*
X127400324Y-80818460D01*
X127399039Y-80822662D01*
X127399039Y-80822663D01*
X127397430Y-80827927D01*
X127392042Y-80842337D01*
X127388018Y-80851375D01*
X127386803Y-80855613D01*
X127354435Y-80968495D01*
X127353817Y-80970583D01*
X127318199Y-81087083D01*
X127316650Y-81096865D01*
X127313320Y-81111879D01*
X127310593Y-81121390D01*
X127309981Y-81125743D01*
X127309980Y-81125749D01*
X127293646Y-81241978D01*
X127293321Y-81244154D01*
X127274256Y-81364520D01*
X127274179Y-81368916D01*
X127274179Y-81368920D01*
X127274083Y-81374430D01*
X127272876Y-81389760D01*
X127271500Y-81399552D01*
X127271500Y-81521312D01*
X127271481Y-81523510D01*
X127269354Y-81645374D01*
X127269889Y-81649730D01*
X127269889Y-81649733D01*
X127270561Y-81655204D01*
X127271500Y-81670560D01*
X127271500Y-82620146D01*
X127271653Y-82622332D01*
X127271653Y-82622336D01*
X127285670Y-82822783D01*
X127286189Y-82830212D01*
X127344591Y-83104970D01*
X127346094Y-83109099D01*
X127346095Y-83109103D01*
X127436296Y-83356927D01*
X127440663Y-83368926D01*
X127572536Y-83616942D01*
X127575122Y-83620501D01*
X127575123Y-83620503D01*
X127596903Y-83650480D01*
X127736582Y-83842732D01*
X127737436Y-83843908D01*
X127761500Y-83917969D01*
X127761500Y-85108134D01*
X127768255Y-85170316D01*
X127819385Y-85306705D01*
X127906739Y-85423261D01*
X128023295Y-85510615D01*
X128159684Y-85561745D01*
X128221866Y-85568500D01*
X130338134Y-85568500D01*
X130400316Y-85561745D01*
X130536705Y-85510615D01*
X130653261Y-85423261D01*
X130740615Y-85306705D01*
X130791745Y-85170316D01*
X130798500Y-85108134D01*
X130798500Y-83910853D01*
X130818502Y-83842732D01*
X130827970Y-83829873D01*
X130908879Y-83733450D01*
X131057731Y-83495236D01*
X131171982Y-83238625D01*
X131233864Y-83022815D01*
X131248195Y-82972837D01*
X131248195Y-82972836D01*
X131249407Y-82968610D01*
X131255684Y-82923951D01*
X131268697Y-82831355D01*
X131288500Y-82690448D01*
X131288500Y-82424138D01*
X131308502Y-82356017D01*
X131325405Y-82335043D01*
X133260905Y-80399543D01*
X133323217Y-80365517D01*
X133394032Y-80370582D01*
X133439095Y-80399543D01*
X134690235Y-81650683D01*
X134694776Y-81655467D01*
X134751371Y-81718322D01*
X134844687Y-81796624D01*
X134846339Y-81798035D01*
X134938303Y-81877977D01*
X134941989Y-81880371D01*
X134941996Y-81880376D01*
X134946603Y-81883368D01*
X134958961Y-81892512D01*
X134963174Y-81896047D01*
X134963181Y-81896052D01*
X134966550Y-81898879D01*
X135069772Y-81963379D01*
X135069838Y-81963420D01*
X135071693Y-81964601D01*
X135173882Y-82030964D01*
X135177876Y-82032827D01*
X135177877Y-82032827D01*
X135182857Y-82035150D01*
X135196363Y-82042482D01*
X135200714Y-82045200D01*
X135204764Y-82047731D01*
X135208776Y-82049517D01*
X135208783Y-82049521D01*
X135316032Y-82097271D01*
X135318033Y-82098183D01*
X135424475Y-82147818D01*
X135424478Y-82147819D01*
X135428460Y-82149676D01*
X135432662Y-82150961D01*
X135432663Y-82150961D01*
X135434044Y-82151383D01*
X135437930Y-82152571D01*
X135452338Y-82157958D01*
X135461375Y-82161982D01*
X135549662Y-82187297D01*
X135578495Y-82195565D01*
X135580583Y-82196183D01*
X135697083Y-82231801D01*
X135706865Y-82233350D01*
X135721879Y-82236680D01*
X135731390Y-82239407D01*
X135735743Y-82240019D01*
X135735749Y-82240020D01*
X135851978Y-82256354D01*
X135854155Y-82256679D01*
X135953320Y-82272386D01*
X135974520Y-82275744D01*
X135978916Y-82275821D01*
X135978920Y-82275821D01*
X135984430Y-82275917D01*
X135999760Y-82277124D01*
X136009552Y-82278500D01*
X136131312Y-82278500D01*
X136133510Y-82278519D01*
X136255374Y-82280646D01*
X136259730Y-82280111D01*
X136259733Y-82280111D01*
X136265204Y-82279439D01*
X136280560Y-82278500D01*
X143665087Y-82278500D01*
X143733208Y-82298502D01*
X143779701Y-82352158D01*
X143789805Y-82422432D01*
X143760311Y-82487012D01*
X143754182Y-82493595D01*
X143748919Y-82498858D01*
X143741739Y-82504239D01*
X143654385Y-82620795D01*
X143603255Y-82757184D01*
X143598701Y-82799107D01*
X143571460Y-82864669D01*
X143513097Y-82905096D01*
X143473438Y-82911500D01*
X142321416Y-82911500D01*
X142301707Y-82909949D01*
X142287809Y-82907748D01*
X142281222Y-82908093D01*
X142281217Y-82908093D01*
X142219519Y-82911327D01*
X142212925Y-82911500D01*
X142192390Y-82911500D01*
X142186222Y-82912148D01*
X142171960Y-82913647D01*
X142165385Y-82914164D01*
X142103696Y-82917397D01*
X142103695Y-82917397D01*
X142097096Y-82917743D01*
X142083508Y-82921384D01*
X142064061Y-82924988D01*
X142056644Y-82925767D01*
X142056640Y-82925768D01*
X142050072Y-82926458D01*
X142022345Y-82935467D01*
X141985009Y-82947598D01*
X141978685Y-82949471D01*
X141919010Y-82965461D01*
X141919006Y-82965462D01*
X141912630Y-82967171D01*
X141906748Y-82970168D01*
X141900093Y-82973559D01*
X141881826Y-82981125D01*
X141874728Y-82983431D01*
X141874726Y-82983432D01*
X141868444Y-82985473D01*
X141862722Y-82988776D01*
X141862721Y-82988777D01*
X141809218Y-83019667D01*
X141803423Y-83022814D01*
X141742470Y-83053871D01*
X141737342Y-83058024D01*
X141737340Y-83058025D01*
X141731534Y-83062727D01*
X141715237Y-83073927D01*
X141708776Y-83077657D01*
X141708772Y-83077660D01*
X141703056Y-83080960D01*
X141698150Y-83085377D01*
X141698145Y-83085381D01*
X141652231Y-83126722D01*
X141647216Y-83131006D01*
X141641194Y-83135883D01*
X141631259Y-83143928D01*
X141616744Y-83158443D01*
X141611959Y-83162984D01*
X141561134Y-83208747D01*
X141557255Y-83214086D01*
X141557254Y-83214087D01*
X141552860Y-83220135D01*
X141540019Y-83235168D01*
X140630592Y-84144595D01*
X140568280Y-84178621D01*
X140541497Y-84181500D01*
X137279754Y-84181500D01*
X137211633Y-84161498D01*
X137165140Y-84107842D01*
X137161772Y-84099730D01*
X137143767Y-84051703D01*
X137140615Y-84043295D01*
X137053261Y-83926739D01*
X136936705Y-83839385D01*
X136800316Y-83788255D01*
X136738134Y-83781500D01*
X135041866Y-83781500D01*
X134979684Y-83788255D01*
X134843295Y-83839385D01*
X134726739Y-83926739D01*
X134639385Y-84043295D01*
X134588255Y-84179684D01*
X134581500Y-84241866D01*
X134581500Y-85938134D01*
X134588255Y-86000316D01*
X134639385Y-86136705D01*
X134726739Y-86253261D01*
X134843295Y-86340615D01*
X134979684Y-86391745D01*
X135023252Y-86396478D01*
X135038486Y-86398133D01*
X135038489Y-86398133D01*
X135041866Y-86398500D01*
X135045185Y-86398500D01*
X135112110Y-86422153D01*
X135147804Y-86468156D01*
X135149734Y-86467141D01*
X135155442Y-86478000D01*
X135155632Y-86478245D01*
X135155653Y-86478403D01*
X135175644Y-86516434D01*
X135877188Y-87217978D01*
X135891132Y-87225592D01*
X135892965Y-87225461D01*
X135899580Y-87221210D01*
X136605077Y-86515713D01*
X136627871Y-86473971D01*
X136630047Y-86463971D01*
X136680253Y-86413773D01*
X136709447Y-86405475D01*
X153627483Y-86405475D01*
X153646472Y-86622519D01*
X153648375Y-86633312D01*
X153704764Y-86843761D01*
X153708510Y-86854053D01*
X153800586Y-87051511D01*
X153806069Y-87061006D01*
X153842509Y-87113048D01*
X153852988Y-87121424D01*
X153866434Y-87114356D01*
X154567978Y-86412812D01*
X154575592Y-86398868D01*
X154575461Y-86397035D01*
X154571210Y-86390420D01*
X153865713Y-85684923D01*
X153853938Y-85678493D01*
X153841923Y-85687789D01*
X153806069Y-85738994D01*
X153800586Y-85748489D01*
X153708510Y-85945947D01*
X153704764Y-85956239D01*
X153648375Y-86166688D01*
X153646472Y-86177481D01*
X153627483Y-86394525D01*
X153627483Y-86405475D01*
X136709447Y-86405475D01*
X136733814Y-86398549D01*
X136734719Y-86398500D01*
X136738134Y-86398500D01*
X136741530Y-86398131D01*
X136741532Y-86398131D01*
X136753879Y-86396790D01*
X136800316Y-86391745D01*
X136936705Y-86340615D01*
X137053261Y-86253261D01*
X137140615Y-86136705D01*
X137153595Y-86102082D01*
X137161772Y-86080270D01*
X137204414Y-86023505D01*
X137270976Y-85998806D01*
X137279754Y-85998500D01*
X140888583Y-85998500D01*
X140908292Y-86000051D01*
X140922190Y-86002252D01*
X140928777Y-86001907D01*
X140928782Y-86001907D01*
X140990480Y-85998673D01*
X140997074Y-85998500D01*
X141017610Y-85998500D01*
X141020882Y-85998156D01*
X141020884Y-85998156D01*
X141038042Y-85996353D01*
X141044616Y-85995836D01*
X141106308Y-85992603D01*
X141106312Y-85992602D01*
X141112903Y-85992257D01*
X141119284Y-85990547D01*
X141119286Y-85990547D01*
X141126491Y-85988617D01*
X141145925Y-85985015D01*
X141153354Y-85984234D01*
X141153363Y-85984232D01*
X141159928Y-85983542D01*
X141224997Y-85962400D01*
X141231299Y-85960533D01*
X141297370Y-85942829D01*
X141309908Y-85936440D01*
X141328174Y-85928875D01*
X141335272Y-85926569D01*
X141335274Y-85926568D01*
X141341556Y-85924527D01*
X141400785Y-85890331D01*
X141406579Y-85887185D01*
X141467530Y-85856129D01*
X141478467Y-85847273D01*
X141494763Y-85836073D01*
X141501224Y-85832343D01*
X141501228Y-85832340D01*
X141506944Y-85829040D01*
X141511850Y-85824623D01*
X141511855Y-85824619D01*
X141557769Y-85783278D01*
X141562784Y-85778994D01*
X141576177Y-85768148D01*
X141578741Y-85766072D01*
X141593256Y-85751557D01*
X141598041Y-85747016D01*
X141643957Y-85705673D01*
X141648866Y-85701253D01*
X141657140Y-85689865D01*
X141669981Y-85674832D01*
X142579408Y-84765405D01*
X142641720Y-84731379D01*
X142668503Y-84728500D01*
X143473438Y-84728500D01*
X143541559Y-84748502D01*
X143588052Y-84802158D01*
X143598701Y-84840892D01*
X143603255Y-84882816D01*
X143654385Y-85019205D01*
X143741739Y-85135761D01*
X143858295Y-85223115D01*
X143877368Y-85230265D01*
X143878683Y-85230758D01*
X143935447Y-85273401D01*
X143960146Y-85339962D01*
X143944938Y-85409311D01*
X143933334Y-85426832D01*
X143840055Y-85544944D01*
X143834350Y-85553531D01*
X143723286Y-85754722D01*
X143719056Y-85764134D01*
X143642341Y-85980768D01*
X143639707Y-85990739D01*
X143622353Y-86088163D01*
X143623813Y-86101460D01*
X143638370Y-86106000D01*
X146573096Y-86106000D01*
X146586440Y-86102082D01*
X146588427Y-86087806D01*
X146578890Y-86025485D01*
X146576501Y-86015457D01*
X146505102Y-85797012D01*
X146501105Y-85787503D01*
X146394989Y-85583656D01*
X146389500Y-85574939D01*
X146276098Y-85423901D01*
X146251193Y-85357416D01*
X146266186Y-85288020D01*
X146316316Y-85237747D01*
X146332625Y-85230268D01*
X146351705Y-85223115D01*
X146468261Y-85135761D01*
X146555615Y-85019205D01*
X146606745Y-84882816D01*
X146613500Y-84820634D01*
X146613500Y-82819366D01*
X146606745Y-82757184D01*
X146555615Y-82620795D01*
X146468261Y-82504239D01*
X146455995Y-82495046D01*
X146413480Y-82438191D01*
X146408453Y-82367372D01*
X146442510Y-82305078D01*
X146504840Y-82271085D01*
X146522770Y-82268527D01*
X146585827Y-82264118D01*
X146585833Y-82264117D01*
X146590212Y-82263811D01*
X146599893Y-82261753D01*
X146615100Y-82259481D01*
X146620575Y-82259002D01*
X146620588Y-82259000D01*
X146624966Y-82258617D01*
X146629245Y-82257629D01*
X146629252Y-82257628D01*
X146743695Y-82231207D01*
X146745840Y-82230732D01*
X146860663Y-82206325D01*
X146860670Y-82206323D01*
X146864970Y-82205409D01*
X146874281Y-82202020D01*
X146889019Y-82197655D01*
X146898663Y-82195428D01*
X147012400Y-82151769D01*
X147014431Y-82151010D01*
X147124782Y-82110846D01*
X147124791Y-82110842D01*
X147128926Y-82109337D01*
X147137664Y-82104691D01*
X147151652Y-82098317D01*
X147156786Y-82096346D01*
X147156798Y-82096341D01*
X147160902Y-82094765D01*
X147267521Y-82035664D01*
X147269388Y-82034652D01*
X147373058Y-81979530D01*
X147373067Y-81979524D01*
X147376942Y-81977464D01*
X147380499Y-81974879D01*
X147380505Y-81974876D01*
X147384953Y-81971645D01*
X147397927Y-81963379D01*
X147406579Y-81958583D01*
X147503844Y-81885289D01*
X147505598Y-81883991D01*
X147506456Y-81883368D01*
X147604192Y-81812358D01*
X147611320Y-81805475D01*
X147623012Y-81795490D01*
X147627393Y-81792188D01*
X147627394Y-81792187D01*
X147630912Y-81789536D01*
X147716988Y-81703460D01*
X147718556Y-81701918D01*
X147777109Y-81645374D01*
X147806252Y-81617231D01*
X147812353Y-81609422D01*
X147822548Y-81597900D01*
X148635043Y-80785405D01*
X148697355Y-80751379D01*
X148724138Y-80748500D01*
X151023550Y-80748500D01*
X151091671Y-80768502D01*
X151138164Y-80822158D01*
X151148268Y-80892432D01*
X151145258Y-80907105D01*
X151106457Y-81051913D01*
X151086502Y-81280000D01*
X151106457Y-81508087D01*
X151107881Y-81513400D01*
X151107881Y-81513402D01*
X151161916Y-81715060D01*
X151165716Y-81729243D01*
X151168039Y-81734224D01*
X151168039Y-81734225D01*
X151260151Y-81931762D01*
X151260154Y-81931767D01*
X151262477Y-81936749D01*
X151281568Y-81964013D01*
X151383325Y-82109337D01*
X151393802Y-82124300D01*
X151555700Y-82286198D01*
X151560208Y-82289355D01*
X151560211Y-82289357D01*
X151582663Y-82305078D01*
X151743251Y-82417523D01*
X151748233Y-82419846D01*
X151748238Y-82419849D01*
X151944613Y-82511419D01*
X151950757Y-82514284D01*
X151956065Y-82515706D01*
X151956067Y-82515707D01*
X152166598Y-82572119D01*
X152166600Y-82572119D01*
X152171913Y-82573543D01*
X152400000Y-82593498D01*
X152628087Y-82573543D01*
X152633398Y-82572120D01*
X152633409Y-82572118D01*
X152691541Y-82556541D01*
X152762517Y-82558230D01*
X152813248Y-82589152D01*
X155101892Y-84877796D01*
X155135918Y-84940108D01*
X155130853Y-85010923D01*
X155088306Y-85067759D01*
X155021786Y-85092570D01*
X155001816Y-85092412D01*
X154945475Y-85087483D01*
X154934525Y-85087483D01*
X154717481Y-85106472D01*
X154706688Y-85108375D01*
X154496239Y-85164764D01*
X154485947Y-85168510D01*
X154288489Y-85260586D01*
X154278994Y-85266069D01*
X154226952Y-85302509D01*
X154218576Y-85312988D01*
X154225644Y-85326434D01*
X156014287Y-87115077D01*
X156026062Y-87121507D01*
X156038077Y-87112211D01*
X156073931Y-87061006D01*
X156079414Y-87051511D01*
X156171490Y-86854053D01*
X156175236Y-86843761D01*
X156231625Y-86633312D01*
X156233528Y-86622519D01*
X156252517Y-86405475D01*
X156252517Y-86394525D01*
X156247588Y-86338184D01*
X156261577Y-86268579D01*
X156310977Y-86217587D01*
X156380103Y-86201397D01*
X156447008Y-86225150D01*
X156462204Y-86238108D01*
X160619595Y-90395499D01*
X160653621Y-90457811D01*
X160656500Y-90484594D01*
X160656500Y-93715500D01*
X160636498Y-93783621D01*
X160582842Y-93830114D01*
X160530500Y-93841500D01*
X160341866Y-93841500D01*
X160279684Y-93848255D01*
X160143295Y-93899385D01*
X160026739Y-93986739D01*
X159939385Y-94103295D01*
X159936233Y-94111703D01*
X159936232Y-94111705D01*
X159915538Y-94166906D01*
X159872897Y-94223671D01*
X159806335Y-94248371D01*
X159736986Y-94233164D01*
X159714167Y-94216666D01*
X159713887Y-94216358D01*
X159581373Y-94111705D01*
X159536177Y-94076011D01*
X159536172Y-94076008D01*
X159532123Y-94072810D01*
X159527607Y-94070317D01*
X159527604Y-94070315D01*
X159333879Y-93963373D01*
X159333875Y-93963371D01*
X159329355Y-93960876D01*
X159324486Y-93959152D01*
X159324482Y-93959150D01*
X159115903Y-93885288D01*
X159115899Y-93885287D01*
X159111028Y-93883562D01*
X159105935Y-93882655D01*
X159105932Y-93882654D01*
X158888095Y-93843851D01*
X158888089Y-93843850D01*
X158883006Y-93842945D01*
X158810096Y-93842054D01*
X158656581Y-93840179D01*
X158656579Y-93840179D01*
X158651411Y-93840116D01*
X158422464Y-93875150D01*
X158202314Y-93947106D01*
X158197726Y-93949494D01*
X158197722Y-93949496D01*
X158001461Y-94051663D01*
X157996872Y-94054052D01*
X157992739Y-94057155D01*
X157992736Y-94057157D01*
X157815790Y-94190012D01*
X157811655Y-94193117D01*
X157651639Y-94360564D01*
X157648725Y-94364836D01*
X157648724Y-94364837D01*
X157563003Y-94490500D01*
X157521119Y-94551899D01*
X157520403Y-94553442D01*
X157470086Y-94602090D01*
X157411574Y-94616500D01*
X151344500Y-94616500D01*
X151276379Y-94596498D01*
X151229886Y-94542842D01*
X151218500Y-94490500D01*
X151218500Y-93821866D01*
X151211745Y-93759684D01*
X151160615Y-93623295D01*
X151073261Y-93506739D01*
X150956705Y-93419385D01*
X150820316Y-93368255D01*
X150758134Y-93361500D01*
X148961866Y-93361500D01*
X148899684Y-93368255D01*
X148763295Y-93419385D01*
X148665565Y-93492630D01*
X148599059Y-93517478D01*
X148529676Y-93502425D01*
X148514435Y-93492630D01*
X148416705Y-93419385D01*
X148280316Y-93368255D01*
X148218134Y-93361500D01*
X146421866Y-93361500D01*
X146359684Y-93368255D01*
X146223295Y-93419385D01*
X146156323Y-93469578D01*
X146125148Y-93492942D01*
X146058642Y-93517790D01*
X145989259Y-93502737D01*
X145974018Y-93492942D01*
X145883649Y-93425214D01*
X145868054Y-93416676D01*
X145747606Y-93371522D01*
X145732351Y-93367895D01*
X145681486Y-93362369D01*
X145674672Y-93362000D01*
X145052115Y-93362000D01*
X145036876Y-93366475D01*
X145035671Y-93367865D01*
X145034000Y-93375548D01*
X145034000Y-96648000D01*
X145013998Y-96716121D01*
X144960342Y-96762614D01*
X144908000Y-96774000D01*
X144652000Y-96774000D01*
X144583879Y-96753998D01*
X144537386Y-96700342D01*
X144526000Y-96648000D01*
X144526000Y-93380116D01*
X144521525Y-93364877D01*
X144520135Y-93363672D01*
X144512452Y-93362001D01*
X143885331Y-93362001D01*
X143878510Y-93362371D01*
X143827648Y-93367895D01*
X143812396Y-93371521D01*
X143691946Y-93416676D01*
X143676351Y-93425214D01*
X143585982Y-93492942D01*
X143519475Y-93517790D01*
X143450093Y-93502737D01*
X143434852Y-93492942D01*
X143403677Y-93469578D01*
X143336705Y-93419385D01*
X143200316Y-93368255D01*
X143138134Y-93361500D01*
X141341866Y-93361500D01*
X141279684Y-93368255D01*
X141143295Y-93419385D01*
X141045565Y-93492630D01*
X140979059Y-93517478D01*
X140909676Y-93502425D01*
X140894435Y-93492630D01*
X140796705Y-93419385D01*
X140660316Y-93368255D01*
X140598134Y-93361500D01*
X138801866Y-93361500D01*
X138739684Y-93368255D01*
X138603295Y-93419385D01*
X138505565Y-93492630D01*
X138439059Y-93517478D01*
X138369676Y-93502425D01*
X138354435Y-93492630D01*
X138256705Y-93419385D01*
X138120316Y-93368255D01*
X138058134Y-93361500D01*
X136261866Y-93361500D01*
X136199684Y-93368255D01*
X136063295Y-93419385D01*
X135965565Y-93492630D01*
X135899059Y-93517478D01*
X135829676Y-93502425D01*
X135814435Y-93492630D01*
X135716705Y-93419385D01*
X135580316Y-93368255D01*
X135518134Y-93361500D01*
X133721866Y-93361500D01*
X133659684Y-93368255D01*
X133523295Y-93419385D01*
X133456323Y-93469578D01*
X133425148Y-93492942D01*
X133358642Y-93517790D01*
X133289259Y-93502737D01*
X133274018Y-93492942D01*
X133183649Y-93425214D01*
X133168054Y-93416676D01*
X133047606Y-93371522D01*
X133032351Y-93367895D01*
X132981486Y-93362369D01*
X132974672Y-93362000D01*
X132352115Y-93362000D01*
X132336876Y-93366475D01*
X132335671Y-93367865D01*
X132334000Y-93375548D01*
X132334000Y-97859884D01*
X132338475Y-97875123D01*
X132339865Y-97876328D01*
X132347548Y-97877999D01*
X132974669Y-97877999D01*
X132981490Y-97877629D01*
X133032352Y-97872105D01*
X133047604Y-97868479D01*
X133168054Y-97823324D01*
X133183649Y-97814786D01*
X133274018Y-97747058D01*
X133340525Y-97722210D01*
X133409907Y-97737263D01*
X133425148Y-97747058D01*
X133428637Y-97749673D01*
X133523295Y-97820615D01*
X133659684Y-97871745D01*
X133721866Y-97878500D01*
X134590826Y-97878500D01*
X134595443Y-97878585D01*
X134676673Y-97881564D01*
X134676677Y-97881564D01*
X134681837Y-97881753D01*
X134686957Y-97881097D01*
X134686959Y-97881097D01*
X134699261Y-97879521D01*
X134715271Y-97878500D01*
X135518134Y-97878500D01*
X135580316Y-97871745D01*
X135716705Y-97820615D01*
X135814436Y-97747370D01*
X135880941Y-97722522D01*
X135950324Y-97737575D01*
X135965562Y-97747368D01*
X136063295Y-97820615D01*
X136199684Y-97871745D01*
X136261866Y-97878500D01*
X137130826Y-97878500D01*
X137135443Y-97878585D01*
X137216673Y-97881564D01*
X137216677Y-97881564D01*
X137221837Y-97881753D01*
X137226957Y-97881097D01*
X137226959Y-97881097D01*
X137239261Y-97879521D01*
X137255271Y-97878500D01*
X138058134Y-97878500D01*
X138120316Y-97871745D01*
X138256705Y-97820615D01*
X138354436Y-97747370D01*
X138420941Y-97722522D01*
X138490324Y-97737575D01*
X138505562Y-97747368D01*
X138603295Y-97820615D01*
X138739684Y-97871745D01*
X138801866Y-97878500D01*
X139670826Y-97878500D01*
X139675443Y-97878585D01*
X139756673Y-97881564D01*
X139756677Y-97881564D01*
X139761837Y-97881753D01*
X139766957Y-97881097D01*
X139766959Y-97881097D01*
X139779261Y-97879521D01*
X139795271Y-97878500D01*
X140598134Y-97878500D01*
X140660316Y-97871745D01*
X140796705Y-97820615D01*
X140894436Y-97747370D01*
X140960941Y-97722522D01*
X141030324Y-97737575D01*
X141045562Y-97747368D01*
X141143295Y-97820615D01*
X141279684Y-97871745D01*
X141341866Y-97878500D01*
X141508064Y-97878500D01*
X141576185Y-97898502D01*
X141625216Y-97958117D01*
X141632273Y-97975941D01*
X141637805Y-97989913D01*
X141641649Y-98001142D01*
X141653982Y-98043593D01*
X141658015Y-98050412D01*
X141658017Y-98050417D01*
X141664293Y-98061028D01*
X141672988Y-98078776D01*
X141680448Y-98097617D01*
X141685110Y-98104033D01*
X141685110Y-98104034D01*
X141706436Y-98133387D01*
X141712952Y-98143307D01*
X141723745Y-98161556D01*
X141735458Y-98181362D01*
X141749779Y-98195683D01*
X141762619Y-98210716D01*
X141774528Y-98227107D01*
X141798386Y-98246844D01*
X141808605Y-98255298D01*
X141817384Y-98263288D01*
X142091943Y-98537847D01*
X142099487Y-98546137D01*
X142103600Y-98552618D01*
X142109377Y-98558043D01*
X142153267Y-98599258D01*
X142156109Y-98602013D01*
X142175830Y-98621734D01*
X142179025Y-98624212D01*
X142188047Y-98631918D01*
X142220279Y-98662186D01*
X142227228Y-98666006D01*
X142238032Y-98671946D01*
X142254556Y-98682799D01*
X142270559Y-98695213D01*
X142311143Y-98712776D01*
X142321773Y-98717983D01*
X142360540Y-98739295D01*
X142368217Y-98741266D01*
X142368222Y-98741268D01*
X142380158Y-98744332D01*
X142398866Y-98750737D01*
X142417455Y-98758781D01*
X142425280Y-98760020D01*
X142425282Y-98760021D01*
X142461119Y-98765697D01*
X142472740Y-98768104D01*
X142507889Y-98777128D01*
X142515570Y-98779100D01*
X142535831Y-98779100D01*
X142555540Y-98780651D01*
X142575543Y-98783819D01*
X142583435Y-98783073D01*
X142588662Y-98782579D01*
X142619554Y-98779659D01*
X142631411Y-98779100D01*
X147994609Y-98779100D01*
X148062730Y-98799102D01*
X148083705Y-98816005D01*
X148719957Y-99452258D01*
X148727491Y-99460537D01*
X148731604Y-99467018D01*
X148781255Y-99513643D01*
X148784097Y-99516398D01*
X148803834Y-99536135D01*
X148807031Y-99538615D01*
X148816051Y-99546318D01*
X148848283Y-99576586D01*
X148855229Y-99580405D01*
X148855232Y-99580407D01*
X148866038Y-99586348D01*
X148882557Y-99597199D01*
X148898563Y-99609614D01*
X148905832Y-99612759D01*
X148905836Y-99612762D01*
X148939141Y-99627174D01*
X148949791Y-99632391D01*
X148988544Y-99653695D01*
X148996219Y-99655666D01*
X148996220Y-99655666D01*
X149008166Y-99658733D01*
X149026871Y-99665137D01*
X149045459Y-99673181D01*
X149053282Y-99674420D01*
X149053292Y-99674423D01*
X149089128Y-99680099D01*
X149100748Y-99682505D01*
X149135893Y-99691528D01*
X149143574Y-99693500D01*
X149163828Y-99693500D01*
X149183538Y-99695051D01*
X149203547Y-99698220D01*
X149211439Y-99697474D01*
X149247565Y-99694059D01*
X149259423Y-99693500D01*
X149655406Y-99693500D01*
X149723527Y-99713502D01*
X149744501Y-99730405D01*
X151310501Y-101296405D01*
X151344527Y-101358717D01*
X151339462Y-101429532D01*
X151296915Y-101486368D01*
X151230395Y-101511179D01*
X151221406Y-101511500D01*
X149644985Y-101511500D01*
X149643446Y-101511491D01*
X149540081Y-101510228D01*
X149540079Y-101510228D01*
X149534911Y-101510165D01*
X149529797Y-101510948D01*
X149526289Y-101511193D01*
X149517496Y-101511500D01*
X148731866Y-101511500D01*
X148669684Y-101518255D01*
X148533295Y-101569385D01*
X148416739Y-101656739D01*
X148329385Y-101773295D01*
X148278255Y-101909684D01*
X148271500Y-101971866D01*
X148271500Y-102790219D01*
X148270787Y-102803607D01*
X148267251Y-102836695D01*
X148267548Y-102841848D01*
X148267548Y-102841851D01*
X148271291Y-102906763D01*
X148271500Y-102914016D01*
X148271500Y-103768134D01*
X148278255Y-103830316D01*
X148329385Y-103966705D01*
X148402630Y-104064435D01*
X148427478Y-104130941D01*
X148412425Y-104200324D01*
X148402632Y-104215562D01*
X148329385Y-104313295D01*
X148278255Y-104449684D01*
X148271500Y-104511866D01*
X148271500Y-106308134D01*
X148278255Y-106370316D01*
X148329385Y-106506705D01*
X148334771Y-106513891D01*
X148402630Y-106604435D01*
X148427478Y-106670941D01*
X148412425Y-106740324D01*
X148402632Y-106755562D01*
X148329385Y-106853295D01*
X148278255Y-106989684D01*
X148271500Y-107051866D01*
X148271500Y-107870219D01*
X148270787Y-107883607D01*
X148267251Y-107916695D01*
X148267548Y-107921848D01*
X148267548Y-107921851D01*
X148271291Y-107986763D01*
X148271500Y-107994016D01*
X148271500Y-108848134D01*
X148278255Y-108910316D01*
X148329385Y-109046705D01*
X148416739Y-109163261D01*
X148533295Y-109250615D01*
X148669684Y-109301745D01*
X148731866Y-109308500D01*
X149600826Y-109308500D01*
X149605443Y-109308585D01*
X149686673Y-109311564D01*
X149686677Y-109311564D01*
X149691837Y-109311753D01*
X149696957Y-109311097D01*
X149696959Y-109311097D01*
X149709261Y-109309521D01*
X149725271Y-109308500D01*
X152328134Y-109308500D01*
X152390316Y-109301745D01*
X152526705Y-109250615D01*
X152643261Y-109163261D01*
X152730615Y-109046705D01*
X152781745Y-108910316D01*
X152788500Y-108848134D01*
X152788500Y-107051866D01*
X152781745Y-106989684D01*
X152730615Y-106853295D01*
X152657370Y-106755564D01*
X152632522Y-106689059D01*
X152647575Y-106619676D01*
X152657370Y-106604435D01*
X152725229Y-106513891D01*
X152730615Y-106506705D01*
X152781745Y-106370316D01*
X152788500Y-106308134D01*
X152788500Y-104511866D01*
X152781745Y-104449684D01*
X152730615Y-104313295D01*
X152657370Y-104215564D01*
X152632522Y-104149059D01*
X152647575Y-104079676D01*
X152657370Y-104064435D01*
X152730615Y-103966705D01*
X152781745Y-103830316D01*
X152788500Y-103768134D01*
X152788500Y-103078595D01*
X152808502Y-103010474D01*
X152862158Y-102963981D01*
X152932432Y-102953877D01*
X152997012Y-102983371D01*
X153003595Y-102989500D01*
X155206726Y-105192631D01*
X155240752Y-105254943D01*
X155235687Y-105325758D01*
X155193140Y-105382594D01*
X155167874Y-105397275D01*
X155091730Y-105430384D01*
X155041277Y-105452322D01*
X154843359Y-105580360D01*
X154839536Y-105583839D01*
X154839533Y-105583841D01*
X154815495Y-105605714D01*
X154669011Y-105739005D01*
X154665812Y-105743056D01*
X154665808Y-105743060D01*
X154526117Y-105919939D01*
X154522915Y-105923994D01*
X154408995Y-106130361D01*
X154407271Y-106135230D01*
X154407269Y-106135234D01*
X154332035Y-106347689D01*
X154330309Y-106352564D01*
X154329402Y-106357657D01*
X154329401Y-106357660D01*
X154304350Y-106498297D01*
X154288971Y-106584633D01*
X154286091Y-106820339D01*
X154321747Y-107053349D01*
X154394980Y-107277407D01*
X154503825Y-107486496D01*
X154506928Y-107490629D01*
X154506930Y-107490632D01*
X154642253Y-107670865D01*
X154645358Y-107675000D01*
X154815777Y-107837857D01*
X155010508Y-107970693D01*
X155015192Y-107972867D01*
X155015195Y-107972869D01*
X155219628Y-108067764D01*
X155219633Y-108067766D01*
X155224319Y-108069941D01*
X155451468Y-108132935D01*
X155456605Y-108133484D01*
X155640563Y-108153144D01*
X155640571Y-108153144D01*
X155643898Y-108153500D01*
X156978757Y-108153500D01*
X156981330Y-108153288D01*
X156981341Y-108153288D01*
X157148779Y-108139522D01*
X157148785Y-108139521D01*
X157153930Y-108139098D01*
X157382551Y-108081673D01*
X157598723Y-107987678D01*
X157796641Y-107859640D01*
X157820581Y-107837857D01*
X157967167Y-107704473D01*
X157967168Y-107704471D01*
X157970989Y-107700995D01*
X157974188Y-107696944D01*
X157974192Y-107696940D01*
X158113884Y-107520059D01*
X158117085Y-107516006D01*
X158119578Y-107511491D01*
X158119586Y-107511478D01*
X158170854Y-107418606D01*
X158221286Y-107368636D01*
X158281162Y-107353500D01*
X166858134Y-107353500D01*
X166926255Y-107373502D01*
X166969895Y-107421317D01*
X167003825Y-107486496D01*
X167006928Y-107490629D01*
X167006930Y-107490632D01*
X167142253Y-107670865D01*
X167145358Y-107675000D01*
X167315777Y-107837857D01*
X167510508Y-107970693D01*
X167515192Y-107972867D01*
X167515195Y-107972869D01*
X167719628Y-108067764D01*
X167719633Y-108067766D01*
X167724319Y-108069941D01*
X167951468Y-108132935D01*
X167956605Y-108133484D01*
X168140563Y-108153144D01*
X168140571Y-108153144D01*
X168143898Y-108153500D01*
X169305406Y-108153500D01*
X169373527Y-108173502D01*
X169394501Y-108190405D01*
X172049595Y-110845500D01*
X172083621Y-110907812D01*
X172086500Y-110934595D01*
X172086500Y-111681233D01*
X172085973Y-111692416D01*
X172084298Y-111699909D01*
X172084547Y-111707835D01*
X172084547Y-111707836D01*
X172086438Y-111767986D01*
X172086500Y-111771945D01*
X172086500Y-111799856D01*
X172086997Y-111803790D01*
X172086997Y-111803791D01*
X172087005Y-111803856D01*
X172087938Y-111815693D01*
X172089327Y-111859889D01*
X172094978Y-111879339D01*
X172098987Y-111898700D01*
X172101526Y-111918797D01*
X172104445Y-111926168D01*
X172104445Y-111926170D01*
X172117804Y-111959912D01*
X172121649Y-111971142D01*
X172133982Y-112013593D01*
X172138015Y-112020412D01*
X172138017Y-112020417D01*
X172144293Y-112031028D01*
X172152988Y-112048776D01*
X172160448Y-112067617D01*
X172165110Y-112074033D01*
X172165110Y-112074034D01*
X172186436Y-112103387D01*
X172192952Y-112113307D01*
X172215458Y-112151362D01*
X172229779Y-112165683D01*
X172242619Y-112180716D01*
X172254528Y-112197107D01*
X172273066Y-112212443D01*
X172288605Y-112225298D01*
X172297384Y-112233288D01*
X175478595Y-115414499D01*
X175512621Y-115476811D01*
X175515500Y-115503594D01*
X175515500Y-116625500D01*
X175495498Y-116693621D01*
X175441842Y-116740114D01*
X175389500Y-116751500D01*
X175250866Y-116751500D01*
X175188684Y-116758255D01*
X175052295Y-116809385D01*
X174935739Y-116896739D01*
X174848385Y-117013295D01*
X174845233Y-117021703D01*
X174803919Y-117131907D01*
X174761277Y-117188671D01*
X174694716Y-117213371D01*
X174625367Y-117198163D01*
X174592743Y-117172476D01*
X174542151Y-117116875D01*
X174542142Y-117116866D01*
X174538670Y-117113051D01*
X174534619Y-117109852D01*
X174534615Y-117109848D01*
X174367414Y-116977800D01*
X174367410Y-116977798D01*
X174363359Y-116974598D01*
X174167789Y-116866638D01*
X174162920Y-116864914D01*
X174162916Y-116864912D01*
X173962087Y-116793795D01*
X173962083Y-116793794D01*
X173957212Y-116792069D01*
X173952119Y-116791162D01*
X173952116Y-116791161D01*
X173742373Y-116753800D01*
X173742367Y-116753799D01*
X173737284Y-116752894D01*
X173585512Y-116751040D01*
X173517642Y-116730207D01*
X173497957Y-116714144D01*
X170001511Y-113217698D01*
X169967485Y-113155386D01*
X169972550Y-113084571D01*
X170015097Y-113027735D01*
X170040363Y-113013054D01*
X170078029Y-112996676D01*
X170098723Y-112987678D01*
X170296641Y-112859640D01*
X170320581Y-112837857D01*
X170467167Y-112704473D01*
X170467168Y-112704471D01*
X170470989Y-112700995D01*
X170474188Y-112696944D01*
X170474192Y-112696940D01*
X170613883Y-112520061D01*
X170613885Y-112520057D01*
X170617085Y-112516006D01*
X170731005Y-112309639D01*
X170734174Y-112300692D01*
X170807965Y-112092311D01*
X170807966Y-112092307D01*
X170809691Y-112087436D01*
X170811936Y-112074833D01*
X170850123Y-111860456D01*
X170850124Y-111860450D01*
X170851029Y-111855367D01*
X170852832Y-111707836D01*
X170853846Y-111624830D01*
X170853846Y-111624828D01*
X170853909Y-111619661D01*
X170818253Y-111386651D01*
X170745020Y-111162593D01*
X170636175Y-110953504D01*
X170601869Y-110907812D01*
X170497747Y-110769135D01*
X170497745Y-110769132D01*
X170494642Y-110765000D01*
X170324223Y-110602143D01*
X170129492Y-110469307D01*
X170124808Y-110467133D01*
X170124805Y-110467131D01*
X169920372Y-110372236D01*
X169920367Y-110372234D01*
X169915681Y-110370059D01*
X169688532Y-110307065D01*
X169683395Y-110306516D01*
X169499437Y-110286856D01*
X169499429Y-110286856D01*
X169496102Y-110286500D01*
X168161243Y-110286500D01*
X168158670Y-110286712D01*
X168158659Y-110286712D01*
X167991221Y-110300478D01*
X167991215Y-110300479D01*
X167986070Y-110300902D01*
X167757449Y-110358327D01*
X167541277Y-110452322D01*
X167343359Y-110580360D01*
X167339536Y-110583839D01*
X167339533Y-110583841D01*
X167237839Y-110676376D01*
X167169011Y-110739005D01*
X167165807Y-110743062D01*
X167149592Y-110763593D01*
X167091675Y-110804655D01*
X167050711Y-110811500D01*
X158091987Y-110811500D01*
X158023866Y-110791498D01*
X157997766Y-110769156D01*
X157997743Y-110769130D01*
X157994642Y-110765000D01*
X157990911Y-110761435D01*
X157990907Y-110761430D01*
X157827960Y-110605714D01*
X157827959Y-110605713D01*
X157824223Y-110602143D01*
X157629492Y-110469307D01*
X157624808Y-110467133D01*
X157624805Y-110467131D01*
X157420372Y-110372236D01*
X157420367Y-110372234D01*
X157415681Y-110370059D01*
X157188532Y-110307065D01*
X157183395Y-110306516D01*
X156999437Y-110286856D01*
X156999429Y-110286856D01*
X156996102Y-110286500D01*
X155661243Y-110286500D01*
X155658670Y-110286712D01*
X155658659Y-110286712D01*
X155491221Y-110300478D01*
X155491215Y-110300479D01*
X155486070Y-110300902D01*
X155257449Y-110358327D01*
X155225461Y-110372236D01*
X155046014Y-110450262D01*
X155046011Y-110450263D01*
X155041991Y-110452012D01*
X155041989Y-110452012D01*
X155041277Y-110452322D01*
X155041213Y-110452175D01*
X154973749Y-110466308D01*
X154907422Y-110440986D01*
X154894610Y-110429797D01*
X154369981Y-109905168D01*
X154357140Y-109890135D01*
X154352746Y-109884087D01*
X154352745Y-109884086D01*
X154348866Y-109878747D01*
X154298041Y-109832984D01*
X154293256Y-109828443D01*
X154278741Y-109813928D01*
X154271282Y-109807888D01*
X154262784Y-109801006D01*
X154257769Y-109796722D01*
X154211855Y-109755381D01*
X154211850Y-109755377D01*
X154206944Y-109750960D01*
X154201228Y-109747660D01*
X154201224Y-109747657D01*
X154194763Y-109743927D01*
X154178466Y-109732727D01*
X154172660Y-109728025D01*
X154172658Y-109728024D01*
X154167530Y-109723871D01*
X154106577Y-109692814D01*
X154100782Y-109689667D01*
X154047279Y-109658777D01*
X154047278Y-109658776D01*
X154041556Y-109655473D01*
X154035274Y-109653432D01*
X154035272Y-109653431D01*
X154028174Y-109651125D01*
X154009907Y-109643559D01*
X153997370Y-109637171D01*
X153931299Y-109619467D01*
X153924997Y-109617600D01*
X153859928Y-109596458D01*
X153853363Y-109595768D01*
X153853354Y-109595766D01*
X153845925Y-109594985D01*
X153826491Y-109591383D01*
X153819286Y-109589453D01*
X153819284Y-109589453D01*
X153812903Y-109587743D01*
X153806312Y-109587398D01*
X153806308Y-109587397D01*
X153744616Y-109584164D01*
X153738042Y-109583647D01*
X153720884Y-109581844D01*
X153720882Y-109581844D01*
X153717610Y-109581500D01*
X153697074Y-109581500D01*
X153690480Y-109581327D01*
X153628782Y-109578093D01*
X153628777Y-109578093D01*
X153622190Y-109577748D01*
X153608292Y-109579949D01*
X153588583Y-109581500D01*
X122348503Y-109581500D01*
X122280382Y-109561498D01*
X122259408Y-109544595D01*
X110808408Y-98093595D01*
X110774382Y-98031283D01*
X110779447Y-97960468D01*
X110821994Y-97903632D01*
X110888514Y-97878821D01*
X110897503Y-97878500D01*
X111730826Y-97878500D01*
X111735443Y-97878585D01*
X111816673Y-97881564D01*
X111816677Y-97881564D01*
X111821837Y-97881753D01*
X111826957Y-97881097D01*
X111826959Y-97881097D01*
X111839261Y-97879521D01*
X111855271Y-97878500D01*
X112658134Y-97878500D01*
X112720316Y-97871745D01*
X112856705Y-97820615D01*
X112954436Y-97747370D01*
X113020941Y-97722522D01*
X113090324Y-97737575D01*
X113105562Y-97747368D01*
X113203295Y-97820615D01*
X113339684Y-97871745D01*
X113401866Y-97878500D01*
X114270826Y-97878500D01*
X114275443Y-97878585D01*
X114356673Y-97881564D01*
X114356677Y-97881564D01*
X114361837Y-97881753D01*
X114366957Y-97881097D01*
X114366959Y-97881097D01*
X114379261Y-97879521D01*
X114395271Y-97878500D01*
X115198134Y-97878500D01*
X115260316Y-97871745D01*
X115396705Y-97820615D01*
X115494436Y-97747370D01*
X115560941Y-97722522D01*
X115630324Y-97737575D01*
X115645562Y-97747368D01*
X115743295Y-97820615D01*
X115879684Y-97871745D01*
X115941866Y-97878500D01*
X116810826Y-97878500D01*
X116815443Y-97878585D01*
X116896673Y-97881564D01*
X116896677Y-97881564D01*
X116901837Y-97881753D01*
X116906957Y-97881097D01*
X116906959Y-97881097D01*
X116919261Y-97879521D01*
X116935271Y-97878500D01*
X117738134Y-97878500D01*
X117800316Y-97871745D01*
X117936705Y-97820615D01*
X118034436Y-97747370D01*
X118100941Y-97722522D01*
X118170324Y-97737575D01*
X118185562Y-97747368D01*
X118283295Y-97820615D01*
X118419684Y-97871745D01*
X118481866Y-97878500D01*
X120278134Y-97878500D01*
X120340316Y-97871745D01*
X120476705Y-97820615D01*
X120574436Y-97747370D01*
X120640941Y-97722522D01*
X120710324Y-97737575D01*
X120725562Y-97747368D01*
X120823295Y-97820615D01*
X120959684Y-97871745D01*
X121021866Y-97878500D01*
X121890826Y-97878500D01*
X121895443Y-97878585D01*
X121976673Y-97881564D01*
X121976677Y-97881564D01*
X121981837Y-97881753D01*
X121986957Y-97881097D01*
X121986959Y-97881097D01*
X121999261Y-97879521D01*
X122015271Y-97878500D01*
X122818134Y-97878500D01*
X122880316Y-97871745D01*
X123016705Y-97820615D01*
X123114436Y-97747370D01*
X123180941Y-97722522D01*
X123250324Y-97737575D01*
X123265562Y-97747368D01*
X123363295Y-97820615D01*
X123499684Y-97871745D01*
X123561866Y-97878500D01*
X124430826Y-97878500D01*
X124435443Y-97878585D01*
X124516673Y-97881564D01*
X124516677Y-97881564D01*
X124521837Y-97881753D01*
X124526957Y-97881097D01*
X124526959Y-97881097D01*
X124539261Y-97879521D01*
X124555271Y-97878500D01*
X125358134Y-97878500D01*
X125420316Y-97871745D01*
X125556705Y-97820615D01*
X125654436Y-97747370D01*
X125720941Y-97722522D01*
X125790324Y-97737575D01*
X125805562Y-97747368D01*
X125903295Y-97820615D01*
X126039684Y-97871745D01*
X126101866Y-97878500D01*
X126970826Y-97878500D01*
X126975443Y-97878585D01*
X127056673Y-97881564D01*
X127056677Y-97881564D01*
X127061837Y-97881753D01*
X127066957Y-97881097D01*
X127066959Y-97881097D01*
X127079261Y-97879521D01*
X127095271Y-97878500D01*
X127898134Y-97878500D01*
X127960316Y-97871745D01*
X128096705Y-97820615D01*
X128194436Y-97747370D01*
X128260941Y-97722522D01*
X128330324Y-97737575D01*
X128345562Y-97747368D01*
X128443295Y-97820615D01*
X128579684Y-97871745D01*
X128641866Y-97878500D01*
X129510826Y-97878500D01*
X129515443Y-97878585D01*
X129596673Y-97881564D01*
X129596677Y-97881564D01*
X129601837Y-97881753D01*
X129606957Y-97881097D01*
X129606959Y-97881097D01*
X129619261Y-97879521D01*
X129635271Y-97878500D01*
X130438134Y-97878500D01*
X130500316Y-97871745D01*
X130636705Y-97820615D01*
X130731363Y-97749673D01*
X130734852Y-97747058D01*
X130801358Y-97722210D01*
X130870741Y-97737263D01*
X130885982Y-97747058D01*
X130976351Y-97814786D01*
X130991946Y-97823324D01*
X131112394Y-97868478D01*
X131127649Y-97872105D01*
X131178514Y-97877631D01*
X131185328Y-97878000D01*
X131807885Y-97878000D01*
X131823124Y-97873525D01*
X131824329Y-97872135D01*
X131826000Y-97864452D01*
X131826000Y-93380116D01*
X131821525Y-93364877D01*
X131820135Y-93363672D01*
X131812452Y-93362001D01*
X131185331Y-93362001D01*
X131178510Y-93362371D01*
X131127648Y-93367895D01*
X131112396Y-93371521D01*
X130991946Y-93416676D01*
X130976351Y-93425214D01*
X130885982Y-93492942D01*
X130819475Y-93517790D01*
X130750093Y-93502737D01*
X130734852Y-93492942D01*
X130703677Y-93469578D01*
X130636705Y-93419385D01*
X130500316Y-93368255D01*
X130438134Y-93361500D01*
X128641866Y-93361500D01*
X128579684Y-93368255D01*
X128443295Y-93419385D01*
X128345565Y-93492630D01*
X128279059Y-93517478D01*
X128209676Y-93502425D01*
X128194435Y-93492630D01*
X128096705Y-93419385D01*
X127960316Y-93368255D01*
X127898134Y-93361500D01*
X126101866Y-93361500D01*
X126039684Y-93368255D01*
X125903295Y-93419385D01*
X125805565Y-93492630D01*
X125739059Y-93517478D01*
X125669676Y-93502425D01*
X125654435Y-93492630D01*
X125556705Y-93419385D01*
X125420316Y-93368255D01*
X125358134Y-93361500D01*
X123561866Y-93361500D01*
X123499684Y-93368255D01*
X123363295Y-93419385D01*
X123265565Y-93492630D01*
X123199059Y-93517478D01*
X123129676Y-93502425D01*
X123114435Y-93492630D01*
X123016705Y-93419385D01*
X122880316Y-93368255D01*
X122818134Y-93361500D01*
X121021866Y-93361500D01*
X120959684Y-93368255D01*
X120823295Y-93419385D01*
X120725565Y-93492630D01*
X120659059Y-93517478D01*
X120589676Y-93502425D01*
X120574435Y-93492630D01*
X120476705Y-93419385D01*
X120340316Y-93368255D01*
X120278134Y-93361500D01*
X118481866Y-93361500D01*
X118419684Y-93368255D01*
X118283295Y-93419385D01*
X118185565Y-93492630D01*
X118119059Y-93517478D01*
X118049676Y-93502425D01*
X118034435Y-93492630D01*
X117936705Y-93419385D01*
X117800316Y-93368255D01*
X117738134Y-93361500D01*
X115941866Y-93361500D01*
X115879684Y-93368255D01*
X115743295Y-93419385D01*
X115645565Y-93492630D01*
X115579059Y-93517478D01*
X115509676Y-93502425D01*
X115494435Y-93492630D01*
X115396705Y-93419385D01*
X115260316Y-93368255D01*
X115198134Y-93361500D01*
X113401866Y-93361500D01*
X113339684Y-93368255D01*
X113203295Y-93419385D01*
X113105565Y-93492630D01*
X113039059Y-93517478D01*
X112969676Y-93502425D01*
X112954435Y-93492630D01*
X112856705Y-93419385D01*
X112720316Y-93368255D01*
X112658134Y-93361500D01*
X110861866Y-93361500D01*
X110799684Y-93368255D01*
X110663295Y-93419385D01*
X110565565Y-93492630D01*
X110499059Y-93517478D01*
X110429676Y-93502425D01*
X110414435Y-93492630D01*
X110316705Y-93419385D01*
X110180316Y-93368255D01*
X110118134Y-93361500D01*
X108321866Y-93361500D01*
X108259684Y-93368255D01*
X108123295Y-93419385D01*
X108056323Y-93469578D01*
X108025148Y-93492942D01*
X107958642Y-93517790D01*
X107889259Y-93502737D01*
X107874018Y-93492942D01*
X107783649Y-93425214D01*
X107768054Y-93416676D01*
X107647606Y-93371522D01*
X107632351Y-93367895D01*
X107581486Y-93362369D01*
X107574672Y-93362000D01*
X106952115Y-93362000D01*
X106936876Y-93366475D01*
X106935671Y-93367865D01*
X106934000Y-93375548D01*
X106934000Y-97859884D01*
X106938475Y-97875123D01*
X106939865Y-97876328D01*
X106947548Y-97877999D01*
X107574669Y-97877999D01*
X107581490Y-97877629D01*
X107632352Y-97872105D01*
X107647604Y-97868479D01*
X107768054Y-97823324D01*
X107783649Y-97814786D01*
X107874018Y-97747058D01*
X107940525Y-97722210D01*
X108009907Y-97737263D01*
X108025148Y-97747058D01*
X108028637Y-97749673D01*
X108123295Y-97820615D01*
X108131703Y-97823767D01*
X108244422Y-97866024D01*
X108301186Y-97908666D01*
X108323996Y-97966985D01*
X108324394Y-97966900D01*
X108324908Y-97969316D01*
X108325501Y-97970833D01*
X108325766Y-97973354D01*
X108325768Y-97973363D01*
X108326458Y-97979928D01*
X108347600Y-98044997D01*
X108349470Y-98051309D01*
X108353138Y-98065000D01*
X108351446Y-98135976D01*
X108311650Y-98194771D01*
X108246384Y-98222716D01*
X108231430Y-98223607D01*
X105978529Y-98223607D01*
X105910408Y-98203605D01*
X105889434Y-98186702D01*
X105795827Y-98093095D01*
X105761801Y-98030783D01*
X105766866Y-97959968D01*
X105809413Y-97903132D01*
X105875933Y-97878321D01*
X105884922Y-97878000D01*
X106407885Y-97878000D01*
X106423124Y-97873525D01*
X106424329Y-97872135D01*
X106426000Y-97864452D01*
X106426000Y-93380116D01*
X106421525Y-93364877D01*
X106420135Y-93363672D01*
X106412452Y-93362001D01*
X106347002Y-93362001D01*
X106278881Y-93341999D01*
X106232388Y-93288343D01*
X106222284Y-93218069D01*
X106251778Y-93153489D01*
X106257907Y-93146906D01*
X106509408Y-92895405D01*
X106571720Y-92861379D01*
X106598503Y-92858500D01*
X141973583Y-92858500D01*
X141993292Y-92860051D01*
X142007190Y-92862252D01*
X142013777Y-92861907D01*
X142013782Y-92861907D01*
X142075480Y-92858673D01*
X142082074Y-92858500D01*
X142102610Y-92858500D01*
X142105882Y-92858156D01*
X142105884Y-92858156D01*
X142123042Y-92856353D01*
X142129616Y-92855836D01*
X142191308Y-92852603D01*
X142191312Y-92852602D01*
X142197903Y-92852257D01*
X142204284Y-92850547D01*
X142204286Y-92850547D01*
X142211491Y-92848617D01*
X142230925Y-92845015D01*
X142238354Y-92844234D01*
X142238363Y-92844232D01*
X142244928Y-92843542D01*
X142309997Y-92822400D01*
X142316299Y-92820533D01*
X142382370Y-92802829D01*
X142394908Y-92796440D01*
X142413174Y-92788875D01*
X142420272Y-92786569D01*
X142420274Y-92786568D01*
X142426556Y-92784527D01*
X142485785Y-92750331D01*
X142491579Y-92747185D01*
X142552530Y-92716129D01*
X142563467Y-92707273D01*
X142579763Y-92696073D01*
X142586224Y-92692343D01*
X142586228Y-92692340D01*
X142591944Y-92689040D01*
X142596850Y-92684623D01*
X142596855Y-92684619D01*
X142642769Y-92643278D01*
X142647784Y-92638994D01*
X142661177Y-92628148D01*
X142663741Y-92626072D01*
X142678256Y-92611557D01*
X142683041Y-92607016D01*
X142728957Y-92565673D01*
X142733866Y-92561253D01*
X142742140Y-92549865D01*
X142754981Y-92534832D01*
X144891908Y-90397905D01*
X144954220Y-90363879D01*
X144981003Y-90361000D01*
X145213402Y-90361000D01*
X145215975Y-90360788D01*
X145215986Y-90360788D01*
X145316946Y-90352487D01*
X145391937Y-90346322D01*
X145624944Y-90287794D01*
X145807309Y-90208500D01*
X145840526Y-90194057D01*
X145840529Y-90194055D01*
X145845263Y-90191997D01*
X145976470Y-90107115D01*
X146042637Y-90064310D01*
X146042640Y-90064308D01*
X146046977Y-90061502D01*
X146224670Y-89899814D01*
X146258949Y-89856408D01*
X146316867Y-89815345D01*
X146357832Y-89808500D01*
X153550246Y-89808500D01*
X153618367Y-89828502D01*
X153664860Y-89882158D01*
X153668228Y-89890270D01*
X153689385Y-89946705D01*
X153776739Y-90063261D01*
X153893295Y-90150615D01*
X154029684Y-90201745D01*
X154091866Y-90208500D01*
X155788134Y-90208500D01*
X155850316Y-90201745D01*
X155986705Y-90150615D01*
X156103261Y-90063261D01*
X156190615Y-89946705D01*
X156241745Y-89810316D01*
X156248500Y-89748134D01*
X156248500Y-88051866D01*
X156241745Y-87989684D01*
X156190615Y-87853295D01*
X156103261Y-87736739D01*
X155986705Y-87649385D01*
X155850316Y-87598255D01*
X155801620Y-87592965D01*
X155791514Y-87591867D01*
X155791511Y-87591867D01*
X155788134Y-87591500D01*
X155784815Y-87591500D01*
X155717890Y-87567847D01*
X155682196Y-87521844D01*
X155680266Y-87522859D01*
X155674558Y-87512000D01*
X155674368Y-87511755D01*
X155674347Y-87511597D01*
X155654356Y-87473566D01*
X154952812Y-86772022D01*
X154938868Y-86764408D01*
X154937035Y-86764539D01*
X154930420Y-86768790D01*
X154224923Y-87474287D01*
X154202129Y-87516029D01*
X154199953Y-87526029D01*
X154149747Y-87576227D01*
X154096186Y-87591451D01*
X154095281Y-87591500D01*
X154091866Y-87591500D01*
X154088470Y-87591869D01*
X154088468Y-87591869D01*
X154078380Y-87592965D01*
X154029684Y-87598255D01*
X153893295Y-87649385D01*
X153776739Y-87736739D01*
X153689385Y-87853295D01*
X153686233Y-87861703D01*
X153668228Y-87909730D01*
X153625586Y-87966495D01*
X153559024Y-87991194D01*
X153550246Y-87991500D01*
X146360404Y-87991500D01*
X146292283Y-87971498D01*
X146259645Y-87941155D01*
X146251879Y-87930812D01*
X146248777Y-87926680D01*
X146133285Y-87816313D01*
X146078825Y-87764270D01*
X146078824Y-87764269D01*
X146075088Y-87760699D01*
X146037649Y-87735160D01*
X145992648Y-87680249D01*
X145984477Y-87609725D01*
X146015731Y-87545978D01*
X146040210Y-87525284D01*
X146042326Y-87523915D01*
X146050498Y-87517622D01*
X146220480Y-87362950D01*
X146227506Y-87355417D01*
X146369945Y-87175056D01*
X146375650Y-87166469D01*
X146486714Y-86965278D01*
X146490944Y-86955866D01*
X146567659Y-86739232D01*
X146570293Y-86729261D01*
X146587647Y-86631837D01*
X146586187Y-86618540D01*
X146571630Y-86614000D01*
X143636904Y-86614000D01*
X143623560Y-86617918D01*
X143621573Y-86632194D01*
X143631110Y-86694515D01*
X143633499Y-86704543D01*
X143704898Y-86922988D01*
X143708895Y-86932497D01*
X143815011Y-87136344D01*
X143820505Y-87145069D01*
X143958493Y-87328852D01*
X143965336Y-87336559D01*
X144131491Y-87495339D01*
X144139498Y-87501823D01*
X144172356Y-87524237D01*
X144217359Y-87579148D01*
X144225532Y-87649672D01*
X144194278Y-87713420D01*
X144169796Y-87734116D01*
X144168181Y-87735161D01*
X144163023Y-87738498D01*
X143985330Y-87900186D01*
X143936495Y-87962022D01*
X143839633Y-88084670D01*
X143839630Y-88084675D01*
X143836432Y-88088724D01*
X143833939Y-88093240D01*
X143833937Y-88093243D01*
X143722823Y-88294526D01*
X143720326Y-88299050D01*
X143718602Y-88303919D01*
X143718600Y-88303923D01*
X143641856Y-88520640D01*
X143640130Y-88525515D01*
X143639223Y-88530608D01*
X143639222Y-88530611D01*
X143604787Y-88723931D01*
X143597999Y-88762037D01*
X143595064Y-89002263D01*
X143595847Y-89007377D01*
X143601721Y-89045767D01*
X143592253Y-89116130D01*
X143566266Y-89153921D01*
X141715592Y-91004595D01*
X141653280Y-91038621D01*
X141626497Y-91041500D01*
X111244500Y-91041500D01*
X111176379Y-91021498D01*
X111129886Y-90967842D01*
X111118500Y-90915500D01*
X111118500Y-88676062D01*
X135168493Y-88676062D01*
X135177789Y-88688077D01*
X135228994Y-88723931D01*
X135238489Y-88729414D01*
X135435947Y-88821490D01*
X135446239Y-88825236D01*
X135656688Y-88881625D01*
X135667481Y-88883528D01*
X135884525Y-88902517D01*
X135895475Y-88902517D01*
X136112519Y-88883528D01*
X136123312Y-88881625D01*
X136333761Y-88825236D01*
X136344053Y-88821490D01*
X136541511Y-88729414D01*
X136551006Y-88723931D01*
X136603048Y-88687491D01*
X136611424Y-88677012D01*
X136604356Y-88663566D01*
X135902812Y-87962022D01*
X135888868Y-87954408D01*
X135887035Y-87954539D01*
X135880420Y-87958790D01*
X135174923Y-88664287D01*
X135168493Y-88676062D01*
X111118500Y-88676062D01*
X111118500Y-87595475D01*
X134577483Y-87595475D01*
X134596472Y-87812519D01*
X134598375Y-87823312D01*
X134654764Y-88033761D01*
X134658510Y-88044053D01*
X134750586Y-88241511D01*
X134756069Y-88251006D01*
X134792509Y-88303048D01*
X134802988Y-88311424D01*
X134816434Y-88304356D01*
X135517978Y-87602812D01*
X135524356Y-87591132D01*
X136254408Y-87591132D01*
X136254539Y-87592965D01*
X136258790Y-87599580D01*
X136964287Y-88305077D01*
X136976062Y-88311507D01*
X136988077Y-88302211D01*
X137023931Y-88251006D01*
X137029414Y-88241511D01*
X137121490Y-88044053D01*
X137125236Y-88033761D01*
X137181625Y-87823312D01*
X137183528Y-87812519D01*
X137202517Y-87595475D01*
X137202517Y-87584525D01*
X137183528Y-87367481D01*
X137181625Y-87356688D01*
X137125236Y-87146239D01*
X137121490Y-87135947D01*
X137029414Y-86938489D01*
X137023931Y-86928994D01*
X136987491Y-86876952D01*
X136977012Y-86868576D01*
X136963566Y-86875644D01*
X136262022Y-87577188D01*
X136254408Y-87591132D01*
X135524356Y-87591132D01*
X135525592Y-87588868D01*
X135525461Y-87587035D01*
X135521210Y-87580420D01*
X134815713Y-86874923D01*
X134803938Y-86868493D01*
X134791923Y-86877789D01*
X134756069Y-86928994D01*
X134750586Y-86938489D01*
X134658510Y-87135947D01*
X134654764Y-87146239D01*
X134598375Y-87356688D01*
X134596472Y-87367481D01*
X134577483Y-87584525D01*
X134577483Y-87595475D01*
X111118500Y-87595475D01*
X111118500Y-84108854D01*
X122582000Y-84108854D01*
X122582202Y-84113886D01*
X122596247Y-84288447D01*
X122597859Y-84298400D01*
X122653714Y-84525800D01*
X122656897Y-84535370D01*
X122748391Y-84750916D01*
X122753065Y-84759855D01*
X122877840Y-84957994D01*
X122883881Y-84966070D01*
X123038730Y-85141713D01*
X123045987Y-85148721D01*
X123226935Y-85297352D01*
X123235209Y-85303102D01*
X123437578Y-85420884D01*
X123446691Y-85425251D01*
X123665291Y-85509164D01*
X123674963Y-85512011D01*
X123828264Y-85544037D01*
X123842325Y-85542914D01*
X123846000Y-85532806D01*
X123846000Y-85530656D01*
X124354000Y-85530656D01*
X124358136Y-85544742D01*
X124371114Y-85546791D01*
X124390781Y-85544516D01*
X124400677Y-85542556D01*
X124625987Y-85478799D01*
X124635436Y-85475285D01*
X124847661Y-85376324D01*
X124856425Y-85371345D01*
X125050088Y-85239731D01*
X125057963Y-85233399D01*
X125228084Y-85072523D01*
X125234836Y-85065024D01*
X125377062Y-84879002D01*
X125382519Y-84870534D01*
X125493172Y-84664168D01*
X125497213Y-84654917D01*
X125573444Y-84433525D01*
X125575953Y-84423752D01*
X125615995Y-84191938D01*
X125616850Y-84184066D01*
X125617936Y-84160159D01*
X125618000Y-84157326D01*
X125618000Y-82822115D01*
X125613525Y-82806876D01*
X125612135Y-82805671D01*
X125604452Y-82804000D01*
X124372115Y-82804000D01*
X124356876Y-82808475D01*
X124355671Y-82809865D01*
X124354000Y-82817548D01*
X124354000Y-85530656D01*
X123846000Y-85530656D01*
X123846000Y-82822115D01*
X123841525Y-82806876D01*
X123840135Y-82805671D01*
X123832452Y-82804000D01*
X122600115Y-82804000D01*
X122584876Y-82808475D01*
X122583671Y-82809865D01*
X122582000Y-82817548D01*
X122582000Y-84108854D01*
X111118500Y-84108854D01*
X111118500Y-82277885D01*
X122582000Y-82277885D01*
X122586475Y-82293124D01*
X122587865Y-82294329D01*
X122595548Y-82296000D01*
X123827885Y-82296000D01*
X123843124Y-82291525D01*
X123844329Y-82290135D01*
X123846000Y-82282452D01*
X123846000Y-82277885D01*
X124354000Y-82277885D01*
X124358475Y-82293124D01*
X124359865Y-82294329D01*
X124367548Y-82296000D01*
X125599885Y-82296000D01*
X125615124Y-82291525D01*
X125616329Y-82290135D01*
X125618000Y-82282452D01*
X125618000Y-80991146D01*
X125617798Y-80986114D01*
X125603753Y-80811553D01*
X125602141Y-80801600D01*
X125546286Y-80574200D01*
X125543103Y-80564630D01*
X125451609Y-80349084D01*
X125446935Y-80340145D01*
X125322160Y-80142006D01*
X125316119Y-80133930D01*
X125161270Y-79958287D01*
X125154013Y-79951279D01*
X124973065Y-79802648D01*
X124964791Y-79796898D01*
X124762422Y-79679116D01*
X124753309Y-79674749D01*
X124534709Y-79590836D01*
X124525037Y-79587989D01*
X124371736Y-79555963D01*
X124357675Y-79557086D01*
X124354000Y-79567194D01*
X124354000Y-82277885D01*
X123846000Y-82277885D01*
X123846000Y-79569344D01*
X123841864Y-79555258D01*
X123828886Y-79553209D01*
X123809219Y-79555484D01*
X123799323Y-79557444D01*
X123574013Y-79621201D01*
X123564564Y-79624715D01*
X123352339Y-79723676D01*
X123343575Y-79728655D01*
X123149912Y-79860269D01*
X123142037Y-79866601D01*
X122971916Y-80027477D01*
X122965164Y-80034976D01*
X122822938Y-80220998D01*
X122817481Y-80229466D01*
X122706828Y-80435832D01*
X122702787Y-80445083D01*
X122626556Y-80666475D01*
X122624047Y-80676248D01*
X122584005Y-80908062D01*
X122583150Y-80915934D01*
X122582064Y-80939841D01*
X122582000Y-80942674D01*
X122582000Y-82277885D01*
X111118500Y-82277885D01*
X111118500Y-73513487D01*
X111103080Y-73405813D01*
X111042792Y-73273218D01*
X110947713Y-73162873D01*
X110934002Y-73153986D01*
X110897355Y-73130232D01*
X110851071Y-73076395D01*
X110841241Y-73006083D01*
X110870986Y-72941617D01*
X110930861Y-72903467D01*
X110965888Y-72898500D01*
X184785500Y-72898500D01*
X184853621Y-72918502D01*
X184900114Y-72972158D01*
X184911500Y-73024500D01*
X184911500Y-121285500D01*
X184891498Y-121353621D01*
X184837842Y-121400114D01*
X184785500Y-121411500D01*
X99694500Y-121411500D01*
X99626379Y-121391498D01*
X99579886Y-121337842D01*
X99568500Y-121285500D01*
X99568500Y-109575600D01*
X100279200Y-109575600D01*
X106070400Y-109575600D01*
X106070400Y-108966000D01*
X107137200Y-108966000D01*
X109321600Y-108966000D01*
X109626400Y-108966000D01*
X111810800Y-108966000D01*
X112166400Y-108966000D01*
X114300000Y-108966000D01*
X114300000Y-106832400D01*
X112166400Y-106832400D01*
X112166400Y-108966000D01*
X111810800Y-108966000D01*
X111810800Y-106832400D01*
X109626400Y-106832400D01*
X109626400Y-108966000D01*
X109321600Y-108966000D01*
X109321600Y-106832400D01*
X107137200Y-106832400D01*
X107137200Y-108966000D01*
X106070400Y-108966000D01*
X106070400Y-101244400D01*
X100279200Y-101244400D01*
X100279200Y-109575600D01*
X99568500Y-109575600D01*
X99568500Y-73024500D01*
X99588502Y-72956379D01*
X99642158Y-72909886D01*
X99694500Y-72898500D01*
X110253731Y-72898500D01*
X110321852Y-72918502D01*
G37*
%TD.AperFunction*%
%TA.AperFunction,Conductor*%
G36*
X155513527Y-99263502D02*
G01*
X155534501Y-99280405D01*
X158246343Y-101992247D01*
X158253887Y-102000537D01*
X158258000Y-102007018D01*
X158263777Y-102012443D01*
X158307667Y-102053658D01*
X158310509Y-102056413D01*
X158330231Y-102076135D01*
X158333355Y-102078558D01*
X158333359Y-102078562D01*
X158333424Y-102078612D01*
X158342445Y-102086317D01*
X158374679Y-102116586D01*
X158381627Y-102120405D01*
X158381629Y-102120407D01*
X158392432Y-102126346D01*
X158408959Y-102137202D01*
X158418698Y-102144757D01*
X158418700Y-102144758D01*
X158424960Y-102149614D01*
X158465540Y-102167174D01*
X158476188Y-102172391D01*
X158514940Y-102193695D01*
X158522616Y-102195666D01*
X158522619Y-102195667D01*
X158534562Y-102198733D01*
X158553267Y-102205137D01*
X158571855Y-102213181D01*
X158579678Y-102214420D01*
X158579688Y-102214423D01*
X158615524Y-102220099D01*
X158627144Y-102222505D01*
X158662289Y-102231528D01*
X158669970Y-102233500D01*
X158690224Y-102233500D01*
X158709934Y-102235051D01*
X158729943Y-102238220D01*
X158737835Y-102237474D01*
X158773961Y-102234059D01*
X158785819Y-102233500D01*
X167325406Y-102233500D01*
X167393527Y-102253502D01*
X167414501Y-102270405D01*
X174207095Y-109062999D01*
X174241121Y-109125311D01*
X174244000Y-109152094D01*
X174244000Y-110217885D01*
X174248475Y-110233124D01*
X174249865Y-110234329D01*
X174257548Y-110236000D01*
X175327906Y-110236000D01*
X175396027Y-110256002D01*
X175417001Y-110272905D01*
X177336343Y-112192247D01*
X177343887Y-112200537D01*
X177348000Y-112207018D01*
X177353777Y-112212443D01*
X177397667Y-112253658D01*
X177400509Y-112256413D01*
X177420230Y-112276134D01*
X177423425Y-112278612D01*
X177432447Y-112286318D01*
X177464679Y-112316586D01*
X177471628Y-112320406D01*
X177482432Y-112326346D01*
X177498956Y-112337199D01*
X177514959Y-112349613D01*
X177555543Y-112367176D01*
X177566173Y-112372383D01*
X177604940Y-112393695D01*
X177612617Y-112395666D01*
X177612622Y-112395668D01*
X177624558Y-112398732D01*
X177643266Y-112405137D01*
X177661855Y-112413181D01*
X177669680Y-112414420D01*
X177669682Y-112414421D01*
X177705519Y-112420097D01*
X177717140Y-112422504D01*
X177752289Y-112431528D01*
X177759970Y-112433500D01*
X177780231Y-112433500D01*
X177799940Y-112435051D01*
X177819943Y-112438219D01*
X177827835Y-112437473D01*
X177833062Y-112436979D01*
X177863954Y-112434059D01*
X177875811Y-112433500D01*
X178939404Y-112433500D01*
X179007525Y-112453502D01*
X179047122Y-112494133D01*
X179113377Y-112603317D01*
X179116874Y-112607347D01*
X179203438Y-112707103D01*
X179264477Y-112777445D01*
X179268608Y-112780832D01*
X179438627Y-112920240D01*
X179438633Y-112920244D01*
X179442755Y-112923624D01*
X179447398Y-112926267D01*
X179474735Y-112941829D01*
X179524041Y-112992912D01*
X179537902Y-113062542D01*
X179511918Y-113128613D01*
X179482768Y-113155851D01*
X179365422Y-113234852D01*
X179357130Y-113241519D01*
X179198100Y-113393228D01*
X179191059Y-113401186D01*
X179059859Y-113577525D01*
X179054255Y-113586562D01*
X178954643Y-113782484D01*
X178950643Y-113792335D01*
X178885466Y-114002240D01*
X178883183Y-114012624D01*
X178881139Y-114028043D01*
X178883335Y-114042207D01*
X178896522Y-114046000D01*
X180468000Y-114046000D01*
X180536121Y-114066002D01*
X180582614Y-114119658D01*
X180594000Y-114172000D01*
X180594000Y-114428000D01*
X180573998Y-114496121D01*
X180520342Y-114542614D01*
X180468000Y-114554000D01*
X178898808Y-114554000D01*
X178885277Y-114557973D01*
X178883752Y-114568580D01*
X178908477Y-114686421D01*
X178911537Y-114696617D01*
X178992263Y-114901029D01*
X178996994Y-114910561D01*
X179111016Y-115098462D01*
X179117280Y-115107052D01*
X179261327Y-115273052D01*
X179268956Y-115280470D01*
X179300569Y-115306391D01*
X179340564Y-115365051D01*
X179342496Y-115436021D01*
X179305752Y-115496770D01*
X179286983Y-115510969D01*
X179140652Y-115601522D01*
X179015695Y-115726697D01*
X178922885Y-115877262D01*
X178867203Y-116045139D01*
X178856500Y-116149600D01*
X178856500Y-116946497D01*
X178836498Y-117014618D01*
X178819595Y-117035592D01*
X177722595Y-118132592D01*
X177660283Y-118166618D01*
X177589468Y-118161553D01*
X177532632Y-118119006D01*
X177507821Y-118052486D01*
X177507500Y-118043497D01*
X177507500Y-117211866D01*
X177500745Y-117149684D01*
X177449615Y-117013295D01*
X177362261Y-116896739D01*
X177245705Y-116809385D01*
X177109316Y-116758255D01*
X177047134Y-116751500D01*
X176908500Y-116751500D01*
X176840379Y-116731498D01*
X176793886Y-116677842D01*
X176782500Y-116625500D01*
X176782500Y-115267767D01*
X176783027Y-115256584D01*
X176784702Y-115249091D01*
X176782562Y-115181014D01*
X176782500Y-115177055D01*
X176782500Y-115149144D01*
X176781995Y-115145144D01*
X176781062Y-115133301D01*
X176779922Y-115097029D01*
X176779673Y-115089110D01*
X176774022Y-115069658D01*
X176770014Y-115050306D01*
X176768467Y-115038063D01*
X176767474Y-115030203D01*
X176764556Y-115022832D01*
X176751200Y-114989097D01*
X176747355Y-114977870D01*
X176745108Y-114970135D01*
X176735018Y-114935407D01*
X176730984Y-114928585D01*
X176730981Y-114928579D01*
X176724706Y-114917968D01*
X176716010Y-114900218D01*
X176711472Y-114888756D01*
X176711469Y-114888751D01*
X176708552Y-114881383D01*
X176682573Y-114845625D01*
X176676057Y-114835707D01*
X176657575Y-114804457D01*
X176653542Y-114797637D01*
X176639218Y-114783313D01*
X176626376Y-114768278D01*
X176614472Y-114751893D01*
X176580406Y-114723711D01*
X176571627Y-114715722D01*
X173772905Y-111917000D01*
X173738879Y-111854688D01*
X173736213Y-111829884D01*
X174244000Y-111829884D01*
X174248475Y-111845123D01*
X174249865Y-111846328D01*
X174257548Y-111847999D01*
X174884669Y-111847999D01*
X174891490Y-111847629D01*
X174942352Y-111842105D01*
X174957604Y-111838479D01*
X175078054Y-111793324D01*
X175093649Y-111784786D01*
X175195724Y-111708285D01*
X175208285Y-111695724D01*
X175284786Y-111593649D01*
X175293324Y-111578054D01*
X175338478Y-111457606D01*
X175342105Y-111442351D01*
X175347631Y-111391486D01*
X175348000Y-111384672D01*
X175348000Y-110762115D01*
X175343525Y-110746876D01*
X175342135Y-110745671D01*
X175334452Y-110744000D01*
X174262115Y-110744000D01*
X174246876Y-110748475D01*
X174245671Y-110749865D01*
X174244000Y-110757548D01*
X174244000Y-111829884D01*
X173736213Y-111829884D01*
X173736000Y-111827905D01*
X173736000Y-109150116D01*
X173731525Y-109134877D01*
X173730135Y-109133672D01*
X173722452Y-109132001D01*
X173095331Y-109132001D01*
X173088510Y-109132371D01*
X173037648Y-109137895D01*
X173022396Y-109141521D01*
X172901946Y-109186676D01*
X172886351Y-109195214D01*
X172784276Y-109271715D01*
X172771715Y-109284276D01*
X172695214Y-109386351D01*
X172686675Y-109401948D01*
X172676619Y-109428772D01*
X172633978Y-109485537D01*
X172567416Y-109510237D01*
X172498067Y-109495030D01*
X172469542Y-109473638D01*
X170646693Y-107650789D01*
X170612667Y-107588477D01*
X170617732Y-107517662D01*
X170625479Y-107500801D01*
X170728506Y-107314166D01*
X170731005Y-107309639D01*
X170740794Y-107281998D01*
X170807965Y-107092311D01*
X170807966Y-107092307D01*
X170809691Y-107087436D01*
X170810599Y-107082340D01*
X170850123Y-106860456D01*
X170850124Y-106860450D01*
X170851029Y-106855367D01*
X170852435Y-106740324D01*
X170853846Y-106624830D01*
X170853846Y-106624828D01*
X170853909Y-106619661D01*
X170818253Y-106386651D01*
X170745020Y-106162593D01*
X170636175Y-105953504D01*
X170617415Y-105928517D01*
X170497747Y-105769135D01*
X170497745Y-105769132D01*
X170494642Y-105765000D01*
X170324223Y-105602143D01*
X170129492Y-105469307D01*
X170124808Y-105467133D01*
X170124805Y-105467131D01*
X169920372Y-105372236D01*
X169920367Y-105372234D01*
X169915681Y-105370059D01*
X169688532Y-105307065D01*
X169683395Y-105306516D01*
X169499437Y-105286856D01*
X169499429Y-105286856D01*
X169496102Y-105286500D01*
X168161243Y-105286500D01*
X168158670Y-105286712D01*
X168158659Y-105286712D01*
X167991221Y-105300478D01*
X167991215Y-105300479D01*
X167986070Y-105300902D01*
X167757449Y-105358327D01*
X167541277Y-105452322D01*
X167343359Y-105580360D01*
X167339536Y-105583839D01*
X167339533Y-105583841D01*
X167315495Y-105605714D01*
X167169011Y-105739005D01*
X167165812Y-105743056D01*
X167165808Y-105743060D01*
X167051858Y-105887345D01*
X167022915Y-105923994D01*
X167020422Y-105928509D01*
X167020414Y-105928522D01*
X166969146Y-106021394D01*
X166918714Y-106071364D01*
X166858838Y-106086500D01*
X158281866Y-106086500D01*
X158213745Y-106066498D01*
X158170105Y-106018683D01*
X158136175Y-105953504D01*
X158117415Y-105928517D01*
X157997747Y-105769135D01*
X157997745Y-105769132D01*
X157994642Y-105765000D01*
X157824223Y-105602143D01*
X157629492Y-105469307D01*
X157624808Y-105467133D01*
X157624805Y-105467131D01*
X157420372Y-105372236D01*
X157420367Y-105372234D01*
X157415681Y-105370059D01*
X157188532Y-105307065D01*
X157026247Y-105289722D01*
X156960638Y-105262594D01*
X156922481Y-105210809D01*
X156922196Y-105210089D01*
X156918355Y-105198870D01*
X156916542Y-105192631D01*
X156906018Y-105156407D01*
X156895707Y-105138972D01*
X156887012Y-105121224D01*
X156879552Y-105102383D01*
X156853564Y-105066613D01*
X156847048Y-105056693D01*
X156828580Y-105025465D01*
X156828578Y-105025462D01*
X156824542Y-105018638D01*
X156810221Y-105004317D01*
X156797380Y-104989283D01*
X156790131Y-104979306D01*
X156785472Y-104972893D01*
X156751395Y-104944702D01*
X156742616Y-104936712D01*
X151264500Y-99458595D01*
X151230474Y-99396283D01*
X151235539Y-99325468D01*
X151278086Y-99268632D01*
X151344606Y-99243821D01*
X151353595Y-99243500D01*
X155445406Y-99243500D01*
X155513527Y-99263502D01*
G37*
%TD.AperFunction*%
%TD*%
M02*
