%TF.GenerationSoftware,KiCad,Pcbnew,(6.0.9)*%
%TF.CreationDate,2022-11-10T13:56:48+05:30*%
%TF.ProjectId,Kajimba,4b616a69-6d62-4612-9e6b-696361645f70,rev?*%
%TF.SameCoordinates,Original*%
%TF.FileFunction,Legend,Top*%
%TF.FilePolarity,Positive*%
%FSLAX46Y46*%
G04 Gerber Fmt 4.6, Leading zero omitted, Abs format (unit mm)*
G04 Created by KiCad (PCBNEW (6.0.9)) date 2022-11-10 13:56:48*
%MOMM*%
%LPD*%
G01*
G04 APERTURE LIST*
%ADD10C,0.150000*%
%ADD11C,0.120000*%
G04 APERTURE END LIST*
D10*
%TO.C,D2*%
X137691904Y-80392380D02*
X137691904Y-79392380D01*
X137930000Y-79392380D01*
X138072857Y-79440000D01*
X138168095Y-79535238D01*
X138215714Y-79630476D01*
X138263333Y-79820952D01*
X138263333Y-79963809D01*
X138215714Y-80154285D01*
X138168095Y-80249523D01*
X138072857Y-80344761D01*
X137930000Y-80392380D01*
X137691904Y-80392380D01*
X138644285Y-79487619D02*
X138691904Y-79440000D01*
X138787142Y-79392380D01*
X139025238Y-79392380D01*
X139120476Y-79440000D01*
X139168095Y-79487619D01*
X139215714Y-79582857D01*
X139215714Y-79678095D01*
X139168095Y-79820952D01*
X138596666Y-80392380D01*
X139215714Y-80392380D01*
X143248095Y-80022380D02*
X143248095Y-79022380D01*
X143819523Y-80022380D02*
X143390952Y-79450952D01*
X143819523Y-79022380D02*
X143248095Y-79593809D01*
%TO.C,C1*%
X140647142Y-86506666D02*
X140694761Y-86554285D01*
X140742380Y-86697142D01*
X140742380Y-86792380D01*
X140694761Y-86935238D01*
X140599523Y-87030476D01*
X140504285Y-87078095D01*
X140313809Y-87125714D01*
X140170952Y-87125714D01*
X139980476Y-87078095D01*
X139885238Y-87030476D01*
X139790000Y-86935238D01*
X139742380Y-86792380D01*
X139742380Y-86697142D01*
X139790000Y-86554285D01*
X139837619Y-86506666D01*
X140742380Y-85554285D02*
X140742380Y-86125714D01*
X140742380Y-85840000D02*
X139742380Y-85840000D01*
X139885238Y-85935238D01*
X139980476Y-86030476D01*
X140028095Y-86125714D01*
%TO.C,J4*%
X173656666Y-107172380D02*
X173656666Y-107886666D01*
X173609047Y-108029523D01*
X173513809Y-108124761D01*
X173370952Y-108172380D01*
X173275714Y-108172380D01*
X174561428Y-107505714D02*
X174561428Y-108172380D01*
X174323333Y-107124761D02*
X174085238Y-107839047D01*
X174704285Y-107839047D01*
%TO.C,J5*%
X178371380Y-118443333D02*
X179085666Y-118443333D01*
X179228523Y-118490952D01*
X179323761Y-118586190D01*
X179371380Y-118729047D01*
X179371380Y-118824285D01*
X178371380Y-117490952D02*
X178371380Y-117967142D01*
X178847571Y-118014761D01*
X178799952Y-117967142D01*
X178752333Y-117871904D01*
X178752333Y-117633809D01*
X178799952Y-117538571D01*
X178847571Y-117490952D01*
X178942809Y-117443333D01*
X179180904Y-117443333D01*
X179276142Y-117490952D01*
X179323761Y-117538571D01*
X179371380Y-117633809D01*
X179371380Y-117871904D01*
X179323761Y-117967142D01*
X179276142Y-118014761D01*
%TO.C,J2*%
X176992380Y-114633333D02*
X177706666Y-114633333D01*
X177849523Y-114680952D01*
X177944761Y-114776190D01*
X177992380Y-114919047D01*
X177992380Y-115014285D01*
X177087619Y-114204761D02*
X177040000Y-114157142D01*
X176992380Y-114061904D01*
X176992380Y-113823809D01*
X177040000Y-113728571D01*
X177087619Y-113680952D01*
X177182857Y-113633333D01*
X177278095Y-113633333D01*
X177420952Y-113680952D01*
X177992380Y-114252380D01*
X177992380Y-113633333D01*
%TO.C,K1*%
X165242380Y-91388095D02*
X164242380Y-91388095D01*
X165242380Y-90816666D02*
X164670952Y-91245238D01*
X164242380Y-90816666D02*
X164813809Y-91388095D01*
X165242380Y-89864285D02*
X165242380Y-90435714D01*
X165242380Y-90150000D02*
X164242380Y-90150000D01*
X164385238Y-90245238D01*
X164480476Y-90340476D01*
X164528095Y-90435714D01*
%TO.C,J1*%
X118146666Y-75002380D02*
X118146666Y-75716666D01*
X118099047Y-75859523D01*
X118003809Y-75954761D01*
X117860952Y-76002380D01*
X117765714Y-76002380D01*
X119146666Y-76002380D02*
X118575238Y-76002380D01*
X118860952Y-76002380D02*
X118860952Y-75002380D01*
X118765714Y-75145238D01*
X118670476Y-75240476D01*
X118575238Y-75288095D01*
%TO.C,D1*%
X159281904Y-99662380D02*
X159281904Y-98662380D01*
X159520000Y-98662380D01*
X159662857Y-98710000D01*
X159758095Y-98805238D01*
X159805714Y-98900476D01*
X159853333Y-99090952D01*
X159853333Y-99233809D01*
X159805714Y-99424285D01*
X159758095Y-99519523D01*
X159662857Y-99614761D01*
X159520000Y-99662380D01*
X159281904Y-99662380D01*
X160805714Y-99662380D02*
X160234285Y-99662380D01*
X160520000Y-99662380D02*
X160520000Y-98662380D01*
X160424761Y-98805238D01*
X160329523Y-98900476D01*
X160234285Y-98948095D01*
%TO.C,SW1*%
X163766666Y-102464761D02*
X163909523Y-102512380D01*
X164147619Y-102512380D01*
X164242857Y-102464761D01*
X164290476Y-102417142D01*
X164338095Y-102321904D01*
X164338095Y-102226666D01*
X164290476Y-102131428D01*
X164242857Y-102083809D01*
X164147619Y-102036190D01*
X163957142Y-101988571D01*
X163861904Y-101940952D01*
X163814285Y-101893333D01*
X163766666Y-101798095D01*
X163766666Y-101702857D01*
X163814285Y-101607619D01*
X163861904Y-101560000D01*
X163957142Y-101512380D01*
X164195238Y-101512380D01*
X164338095Y-101560000D01*
X164671428Y-101512380D02*
X164909523Y-102512380D01*
X165100000Y-101798095D01*
X165290476Y-102512380D01*
X165528571Y-101512380D01*
X166433333Y-102512380D02*
X165861904Y-102512380D01*
X166147619Y-102512380D02*
X166147619Y-101512380D01*
X166052380Y-101655238D01*
X165957142Y-101750476D01*
X165861904Y-101798095D01*
%TO.C,J3*%
X171592380Y-118443333D02*
X172306666Y-118443333D01*
X172449523Y-118490952D01*
X172544761Y-118586190D01*
X172592380Y-118729047D01*
X172592380Y-118824285D01*
X171592380Y-118062380D02*
X171592380Y-117443333D01*
X171973333Y-117776666D01*
X171973333Y-117633809D01*
X172020952Y-117538571D01*
X172068571Y-117490952D01*
X172163809Y-117443333D01*
X172401904Y-117443333D01*
X172497142Y-117490952D01*
X172544761Y-117538571D01*
X172592380Y-117633809D01*
X172592380Y-117919523D01*
X172544761Y-118014761D01*
X172497142Y-118062380D01*
%TO.C,J6*%
X180006666Y-100822380D02*
X180006666Y-101536666D01*
X179959047Y-101679523D01*
X179863809Y-101774761D01*
X179720952Y-101822380D01*
X179625714Y-101822380D01*
X180911428Y-100822380D02*
X180720952Y-100822380D01*
X180625714Y-100870000D01*
X180578095Y-100917619D01*
X180482857Y-101060476D01*
X180435238Y-101250952D01*
X180435238Y-101631904D01*
X180482857Y-101727142D01*
X180530476Y-101774761D01*
X180625714Y-101822380D01*
X180816190Y-101822380D01*
X180911428Y-101774761D01*
X180959047Y-101727142D01*
X181006666Y-101631904D01*
X181006666Y-101393809D01*
X180959047Y-101298571D01*
X180911428Y-101250952D01*
X180816190Y-101203333D01*
X180625714Y-101203333D01*
X180530476Y-101250952D01*
X180482857Y-101298571D01*
X180435238Y-101393809D01*
%TO.C,R1*%
X157313333Y-79362380D02*
X156980000Y-78886190D01*
X156741904Y-79362380D02*
X156741904Y-78362380D01*
X157122857Y-78362380D01*
X157218095Y-78410000D01*
X157265714Y-78457619D01*
X157313333Y-78552857D01*
X157313333Y-78695714D01*
X157265714Y-78790952D01*
X157218095Y-78838571D01*
X157122857Y-78886190D01*
X156741904Y-78886190D01*
X158265714Y-79362380D02*
X157694285Y-79362380D01*
X157980000Y-79362380D02*
X157980000Y-78362380D01*
X157884761Y-78505238D01*
X157789523Y-78600476D01*
X157694285Y-78648095D01*
%TO.C,Q1*%
X162464761Y-90467619D02*
X162369523Y-90420000D01*
X162274285Y-90324761D01*
X162131428Y-90181904D01*
X162036190Y-90134285D01*
X161940952Y-90134285D01*
X161988571Y-90372380D02*
X161893333Y-90324761D01*
X161798095Y-90229523D01*
X161750476Y-90039047D01*
X161750476Y-89705714D01*
X161798095Y-89515238D01*
X161893333Y-89420000D01*
X161988571Y-89372380D01*
X162179047Y-89372380D01*
X162274285Y-89420000D01*
X162369523Y-89515238D01*
X162417142Y-89705714D01*
X162417142Y-90039047D01*
X162369523Y-90229523D01*
X162274285Y-90324761D01*
X162179047Y-90372380D01*
X161988571Y-90372380D01*
X163369523Y-90372380D02*
X162798095Y-90372380D01*
X163083809Y-90372380D02*
X163083809Y-89372380D01*
X162988571Y-89515238D01*
X162893333Y-89610476D01*
X162798095Y-89658095D01*
%TO.C,U2*%
X148827380Y-87121904D02*
X149636904Y-87121904D01*
X149732142Y-87074285D01*
X149779761Y-87026666D01*
X149827380Y-86931428D01*
X149827380Y-86740952D01*
X149779761Y-86645714D01*
X149732142Y-86598095D01*
X149636904Y-86550476D01*
X148827380Y-86550476D01*
X148922619Y-86121904D02*
X148875000Y-86074285D01*
X148827380Y-85979047D01*
X148827380Y-85740952D01*
X148875000Y-85645714D01*
X148922619Y-85598095D01*
X149017857Y-85550476D01*
X149113095Y-85550476D01*
X149255952Y-85598095D01*
X149827380Y-86169523D01*
X149827380Y-85550476D01*
%TO.C,D3*%
X165631904Y-79192380D02*
X165631904Y-78192380D01*
X165870000Y-78192380D01*
X166012857Y-78240000D01*
X166108095Y-78335238D01*
X166155714Y-78430476D01*
X166203333Y-78620952D01*
X166203333Y-78763809D01*
X166155714Y-78954285D01*
X166108095Y-79049523D01*
X166012857Y-79144761D01*
X165870000Y-79192380D01*
X165631904Y-79192380D01*
X166536666Y-78192380D02*
X167155714Y-78192380D01*
X166822380Y-78573333D01*
X166965238Y-78573333D01*
X167060476Y-78620952D01*
X167108095Y-78668571D01*
X167155714Y-78763809D01*
X167155714Y-79001904D01*
X167108095Y-79097142D01*
X167060476Y-79144761D01*
X166965238Y-79192380D01*
X166679523Y-79192380D01*
X166584285Y-79144761D01*
X166536666Y-79097142D01*
X178808095Y-81292380D02*
X178808095Y-80292380D01*
X179379523Y-81292380D02*
X178950952Y-80720952D01*
X179379523Y-80292380D02*
X178808095Y-80863809D01*
%TO.C,C2*%
X151547142Y-86526666D02*
X151594761Y-86574285D01*
X151642380Y-86717142D01*
X151642380Y-86812380D01*
X151594761Y-86955238D01*
X151499523Y-87050476D01*
X151404285Y-87098095D01*
X151213809Y-87145714D01*
X151070952Y-87145714D01*
X150880476Y-87098095D01*
X150785238Y-87050476D01*
X150690000Y-86955238D01*
X150642380Y-86812380D01*
X150642380Y-86717142D01*
X150690000Y-86574285D01*
X150737619Y-86526666D01*
X150737619Y-86145714D02*
X150690000Y-86098095D01*
X150642380Y-86002857D01*
X150642380Y-85764761D01*
X150690000Y-85669523D01*
X150737619Y-85621904D01*
X150832857Y-85574285D01*
X150928095Y-85574285D01*
X151070952Y-85621904D01*
X151642380Y-86193333D01*
X151642380Y-85574285D01*
%TO.C,U1*%
X125182380Y-106171904D02*
X125991904Y-106171904D01*
X126087142Y-106124285D01*
X126134761Y-106076666D01*
X126182380Y-105981428D01*
X126182380Y-105790952D01*
X126134761Y-105695714D01*
X126087142Y-105648095D01*
X125991904Y-105600476D01*
X125182380Y-105600476D01*
X126182380Y-104600476D02*
X126182380Y-105171904D01*
X126182380Y-104886190D02*
X125182380Y-104886190D01*
X125325238Y-104981428D01*
X125420476Y-105076666D01*
X125468095Y-105171904D01*
X150250592Y-93312277D02*
X150277529Y-93393089D01*
X150358341Y-93473902D01*
X150466091Y-93527776D01*
X150573841Y-93527776D01*
X150654653Y-93500839D01*
X150789340Y-93420027D01*
X150870152Y-93339215D01*
X150950964Y-93204528D01*
X150977902Y-93123715D01*
X150977902Y-93015966D01*
X150924027Y-92908216D01*
X150870152Y-92854341D01*
X150762402Y-92800467D01*
X150708528Y-92800467D01*
X150519966Y-92989028D01*
X150627715Y-93096778D01*
X150519966Y-92504155D02*
X149954280Y-93069841D01*
X149738781Y-92854341D01*
X149711844Y-92773529D01*
X149711844Y-92719654D01*
X149738781Y-92638842D01*
X149819593Y-92558030D01*
X149900406Y-92531093D01*
X149954280Y-92531093D01*
X150035093Y-92558030D01*
X150250592Y-92773529D01*
X149657969Y-91642158D02*
X149981218Y-91965407D01*
X149819593Y-91803783D02*
X149253908Y-92369468D01*
X149388595Y-92342531D01*
X149496345Y-92342531D01*
X149577157Y-92369468D01*
X148607410Y-91722971D02*
X148715160Y-91830720D01*
X148795972Y-91857658D01*
X148849847Y-91857658D01*
X148984534Y-91830720D01*
X149119221Y-91749908D01*
X149334720Y-91534409D01*
X149361658Y-91453597D01*
X149361658Y-91399722D01*
X149334720Y-91318910D01*
X149226971Y-91211160D01*
X149146158Y-91184223D01*
X149092284Y-91184223D01*
X149011471Y-91211160D01*
X148876784Y-91345847D01*
X148849847Y-91426659D01*
X148849847Y-91480534D01*
X148876784Y-91561346D01*
X148984534Y-91669096D01*
X149065346Y-91696033D01*
X149119221Y-91696033D01*
X149200033Y-91669096D01*
X140090592Y-119566277D02*
X140117529Y-119647089D01*
X140198341Y-119727902D01*
X140306091Y-119781776D01*
X140413841Y-119781776D01*
X140494653Y-119754839D01*
X140629340Y-119674027D01*
X140710152Y-119593215D01*
X140790964Y-119458528D01*
X140817902Y-119377715D01*
X140817902Y-119269966D01*
X140764027Y-119162216D01*
X140710152Y-119108341D01*
X140602402Y-119054467D01*
X140548528Y-119054467D01*
X140359966Y-119243028D01*
X140467715Y-119350778D01*
X140359966Y-118758155D02*
X139794280Y-119323841D01*
X139578781Y-119108341D01*
X139551844Y-119027529D01*
X139551844Y-118973654D01*
X139578781Y-118892842D01*
X139659593Y-118812030D01*
X139740406Y-118785093D01*
X139794280Y-118785093D01*
X139875093Y-118812030D01*
X140090592Y-119027529D01*
X139497969Y-117896158D02*
X139821218Y-118219407D01*
X139659593Y-118057783D02*
X139093908Y-118623468D01*
X139228595Y-118596531D01*
X139336345Y-118596531D01*
X139417157Y-118623468D01*
X138770659Y-118192470D02*
X138716784Y-118192470D01*
X138635972Y-118165532D01*
X138501285Y-118030845D01*
X138474348Y-117950033D01*
X138474348Y-117896158D01*
X138501285Y-117815346D01*
X138555160Y-117761471D01*
X138662910Y-117707597D01*
X139309407Y-117707597D01*
X138959221Y-117357410D01*
X122320592Y-93312277D02*
X122347529Y-93393089D01*
X122428341Y-93473902D01*
X122536091Y-93527776D01*
X122643841Y-93527776D01*
X122724653Y-93500839D01*
X122859340Y-93420027D01*
X122940152Y-93339215D01*
X123020964Y-93204528D01*
X123047902Y-93123715D01*
X123047902Y-93015966D01*
X122994027Y-92908216D01*
X122940152Y-92854341D01*
X122832402Y-92800467D01*
X122778528Y-92800467D01*
X122589966Y-92989028D01*
X122697715Y-93096778D01*
X122589966Y-92504155D02*
X122024280Y-93069841D01*
X121808781Y-92854341D01*
X121781844Y-92773529D01*
X121781844Y-92719654D01*
X121808781Y-92638842D01*
X121889593Y-92558030D01*
X121970406Y-92531093D01*
X122024280Y-92531093D01*
X122105093Y-92558030D01*
X122320592Y-92773529D01*
X121539407Y-92477218D02*
X121485532Y-92477218D01*
X121404720Y-92450280D01*
X121270033Y-92315593D01*
X121243096Y-92234781D01*
X121243096Y-92180906D01*
X121270033Y-92100094D01*
X121323908Y-92046219D01*
X121431658Y-91992345D01*
X122078155Y-91992345D01*
X121727969Y-91642158D01*
X120973722Y-92019282D02*
X120596598Y-91642158D01*
X121404720Y-91318910D01*
X137550592Y-119566277D02*
X137577529Y-119647089D01*
X137658341Y-119727902D01*
X137766091Y-119781776D01*
X137873841Y-119781776D01*
X137954653Y-119754839D01*
X138089340Y-119674027D01*
X138170152Y-119593215D01*
X138250964Y-119458528D01*
X138277902Y-119377715D01*
X138277902Y-119269966D01*
X138224027Y-119162216D01*
X138170152Y-119108341D01*
X138062402Y-119054467D01*
X138008528Y-119054467D01*
X137819966Y-119243028D01*
X137927715Y-119350778D01*
X137819966Y-118758155D02*
X137254280Y-119323841D01*
X137038781Y-119108341D01*
X137011844Y-119027529D01*
X137011844Y-118973654D01*
X137038781Y-118892842D01*
X137119593Y-118812030D01*
X137200406Y-118785093D01*
X137254280Y-118785093D01*
X137335093Y-118812030D01*
X137550592Y-119027529D01*
X136957969Y-117896158D02*
X137281218Y-118219407D01*
X137119593Y-118057783D02*
X136553908Y-118623468D01*
X136688595Y-118596531D01*
X136796345Y-118596531D01*
X136877157Y-118623468D01*
X136419221Y-117357410D02*
X136742470Y-117680659D01*
X136580845Y-117519035D02*
X136015160Y-118084720D01*
X136149847Y-118057783D01*
X136257597Y-118057783D01*
X136338409Y-118084720D01*
X114421218Y-118896903D02*
X114448155Y-118977715D01*
X114528967Y-119058528D01*
X114636717Y-119112402D01*
X114744467Y-119112402D01*
X114825279Y-119085465D01*
X114959966Y-119004653D01*
X115040778Y-118923841D01*
X115121590Y-118789154D01*
X115148528Y-118708341D01*
X115148528Y-118600592D01*
X115094653Y-118492842D01*
X115040778Y-118438967D01*
X114933028Y-118385093D01*
X114879154Y-118385093D01*
X114690592Y-118573654D01*
X114798341Y-118681404D01*
X114690592Y-118088781D02*
X114124906Y-118654467D01*
X113909407Y-118438967D01*
X113882470Y-118358155D01*
X113882470Y-118304280D01*
X113909407Y-118223468D01*
X113990219Y-118142656D01*
X114071032Y-118115719D01*
X114124906Y-118115719D01*
X114205719Y-118142656D01*
X114421218Y-118358155D01*
X113505346Y-117657783D02*
X113882470Y-117280659D01*
X113424534Y-118007969D02*
X113963282Y-117738595D01*
X113613096Y-117388409D01*
X140090592Y-93312277D02*
X140117529Y-93393089D01*
X140198341Y-93473902D01*
X140306091Y-93527776D01*
X140413841Y-93527776D01*
X140494653Y-93500839D01*
X140629340Y-93420027D01*
X140710152Y-93339215D01*
X140790964Y-93204528D01*
X140817902Y-93123715D01*
X140817902Y-93015966D01*
X140764027Y-92908216D01*
X140710152Y-92854341D01*
X140602402Y-92800467D01*
X140548528Y-92800467D01*
X140359966Y-92989028D01*
X140467715Y-93096778D01*
X140359966Y-92504155D02*
X139794280Y-93069841D01*
X139578781Y-92854341D01*
X139551844Y-92773529D01*
X139551844Y-92719654D01*
X139578781Y-92638842D01*
X139659593Y-92558030D01*
X139740406Y-92531093D01*
X139794280Y-92531093D01*
X139875093Y-92558030D01*
X140090592Y-92773529D01*
X139497969Y-91642158D02*
X139821218Y-91965407D01*
X139659593Y-91803783D02*
X139093908Y-92369468D01*
X139228595Y-92342531D01*
X139336345Y-92342531D01*
X139417157Y-92369468D01*
X139228595Y-91372784D02*
X139120845Y-91265035D01*
X139040033Y-91238097D01*
X138986158Y-91238097D01*
X138851471Y-91265035D01*
X138716784Y-91345847D01*
X138501285Y-91561346D01*
X138474348Y-91642158D01*
X138474348Y-91696033D01*
X138501285Y-91776845D01*
X138609035Y-91884595D01*
X138689847Y-91911532D01*
X138743722Y-91911532D01*
X138824534Y-91884595D01*
X138959221Y-91749908D01*
X138986158Y-91669096D01*
X138986158Y-91615221D01*
X138959221Y-91534409D01*
X138851471Y-91426659D01*
X138770659Y-91399722D01*
X138716784Y-91399722D01*
X138635972Y-91426659D01*
X129930592Y-93312277D02*
X129957529Y-93393089D01*
X130038341Y-93473902D01*
X130146091Y-93527776D01*
X130253841Y-93527776D01*
X130334653Y-93500839D01*
X130469340Y-93420027D01*
X130550152Y-93339215D01*
X130630964Y-93204528D01*
X130657902Y-93123715D01*
X130657902Y-93015966D01*
X130604027Y-92908216D01*
X130550152Y-92854341D01*
X130442402Y-92800467D01*
X130388528Y-92800467D01*
X130199966Y-92989028D01*
X130307715Y-93096778D01*
X130199966Y-92504155D02*
X129634280Y-93069841D01*
X129418781Y-92854341D01*
X129391844Y-92773529D01*
X129391844Y-92719654D01*
X129418781Y-92638842D01*
X129499593Y-92558030D01*
X129580406Y-92531093D01*
X129634280Y-92531093D01*
X129715093Y-92558030D01*
X129930592Y-92773529D01*
X129149407Y-92477218D02*
X129095532Y-92477218D01*
X129014720Y-92450280D01*
X128880033Y-92315593D01*
X128853096Y-92234781D01*
X128853096Y-92180906D01*
X128880033Y-92100094D01*
X128933908Y-92046219D01*
X129041658Y-91992345D01*
X129688155Y-91992345D01*
X129337969Y-91642158D01*
X128610659Y-91938470D02*
X128556784Y-91938470D01*
X128475972Y-91911532D01*
X128341285Y-91776845D01*
X128314348Y-91696033D01*
X128314348Y-91642158D01*
X128341285Y-91561346D01*
X128395160Y-91507471D01*
X128502910Y-91453597D01*
X129149407Y-91453597D01*
X128799221Y-91103410D01*
X135020592Y-93312277D02*
X135047529Y-93393089D01*
X135128341Y-93473902D01*
X135236091Y-93527776D01*
X135343841Y-93527776D01*
X135424653Y-93500839D01*
X135559340Y-93420027D01*
X135640152Y-93339215D01*
X135720964Y-93204528D01*
X135747902Y-93123715D01*
X135747902Y-93015966D01*
X135694027Y-92908216D01*
X135640152Y-92854341D01*
X135532402Y-92800467D01*
X135478528Y-92800467D01*
X135289966Y-92989028D01*
X135397715Y-93096778D01*
X135289966Y-92504155D02*
X134724280Y-93069841D01*
X134508781Y-92854341D01*
X134481844Y-92773529D01*
X134481844Y-92719654D01*
X134508781Y-92638842D01*
X134589593Y-92558030D01*
X134670406Y-92531093D01*
X134724280Y-92531093D01*
X134805093Y-92558030D01*
X135020592Y-92773529D01*
X134239407Y-92477218D02*
X134185532Y-92477218D01*
X134104720Y-92450280D01*
X133970033Y-92315593D01*
X133943096Y-92234781D01*
X133943096Y-92180906D01*
X133970033Y-92100094D01*
X134023908Y-92046219D01*
X134131658Y-91992345D01*
X134778155Y-91992345D01*
X134427969Y-91642158D01*
X133889221Y-91103410D02*
X134212470Y-91426659D01*
X134050845Y-91265035D02*
X133485160Y-91830720D01*
X133619847Y-91803783D01*
X133727597Y-91803783D01*
X133808409Y-91830720D01*
X109688308Y-93487868D02*
X109338122Y-93137682D01*
X109742183Y-93110744D01*
X109661370Y-93029932D01*
X109634433Y-92949120D01*
X109634433Y-92895245D01*
X109661370Y-92814433D01*
X109796057Y-92679746D01*
X109876870Y-92652809D01*
X109930744Y-92652809D01*
X110011557Y-92679746D01*
X110173181Y-92841370D01*
X110200118Y-92922183D01*
X110200118Y-92976057D01*
X109176497Y-92976057D02*
X109553621Y-92221810D01*
X108799374Y-92598934D01*
X108664687Y-92464247D02*
X108314500Y-92114061D01*
X108718561Y-92087123D01*
X108637749Y-92006311D01*
X108610812Y-91925499D01*
X108610812Y-91871624D01*
X108637749Y-91790812D01*
X108772436Y-91656125D01*
X108853248Y-91629187D01*
X108907123Y-91629187D01*
X108987935Y-91656125D01*
X109149560Y-91817749D01*
X109176497Y-91898561D01*
X109176497Y-91952436D01*
X108826311Y-91386751D02*
X108395312Y-90955752D01*
X107910439Y-91171251D02*
X107721877Y-90982690D01*
X107937377Y-90605566D02*
X108206751Y-90874940D01*
X107641065Y-91440625D01*
X107371691Y-91171251D01*
X107694940Y-90363129D02*
X107129255Y-90928815D01*
X107371691Y-90039881D01*
X106806006Y-90605566D01*
X101721218Y-118896903D02*
X101748155Y-118977715D01*
X101828967Y-119058528D01*
X101936717Y-119112402D01*
X102044467Y-119112402D01*
X102125279Y-119085465D01*
X102259966Y-119004653D01*
X102340778Y-118923841D01*
X102421590Y-118789154D01*
X102448528Y-118708341D01*
X102448528Y-118600592D01*
X102394653Y-118492842D01*
X102340778Y-118438967D01*
X102233028Y-118385093D01*
X102179154Y-118385093D01*
X101990592Y-118573654D01*
X102098341Y-118681404D01*
X101990592Y-118088781D02*
X101424906Y-118654467D01*
X101209407Y-118438967D01*
X101182470Y-118358155D01*
X101182470Y-118304280D01*
X101209407Y-118223468D01*
X101290219Y-118142656D01*
X101371032Y-118115719D01*
X101424906Y-118115719D01*
X101505719Y-118142656D01*
X101721218Y-118358155D01*
X100751471Y-117981032D02*
X100697597Y-117927157D01*
X100670659Y-117846345D01*
X100670659Y-117792470D01*
X100697597Y-117711658D01*
X100778409Y-117576971D01*
X100913096Y-117442284D01*
X101047783Y-117361471D01*
X101128595Y-117334534D01*
X101182470Y-117334534D01*
X101263282Y-117361471D01*
X101317157Y-117415346D01*
X101344094Y-117496158D01*
X101344094Y-117550033D01*
X101317157Y-117630845D01*
X101236345Y-117765532D01*
X101101658Y-117900219D01*
X100966971Y-117981032D01*
X100886158Y-118007969D01*
X100832284Y-118007969D01*
X100751471Y-117981032D01*
X127673435Y-92571624D02*
X127592622Y-93029560D01*
X127996683Y-92894873D02*
X127430998Y-93460558D01*
X127215499Y-93245059D01*
X127188561Y-93164247D01*
X127188561Y-93110372D01*
X127215499Y-93029560D01*
X127296311Y-92948748D01*
X127377123Y-92921810D01*
X127430998Y-92921810D01*
X127511810Y-92948748D01*
X127727309Y-93164247D01*
X126865312Y-92894873D02*
X127323248Y-92436937D01*
X127350186Y-92356125D01*
X127350186Y-92302250D01*
X127323248Y-92221438D01*
X127215499Y-92113688D01*
X127134687Y-92086751D01*
X127080812Y-92086751D01*
X127000000Y-92113688D01*
X126542064Y-92571624D01*
X126838375Y-91736564D02*
X126272690Y-92302250D01*
X126515126Y-91413316D01*
X125949441Y-91979001D01*
X102257309Y-93456870D02*
X102634433Y-92702622D01*
X101880186Y-93079746D01*
X101772436Y-92433248D02*
X101718561Y-92325499D01*
X101718561Y-92271624D01*
X101745499Y-92190812D01*
X101826311Y-92110000D01*
X101907123Y-92083062D01*
X101960998Y-92083062D01*
X102041810Y-92110000D01*
X102257309Y-92325499D01*
X101691624Y-92891184D01*
X101503062Y-92702622D01*
X101476125Y-92621810D01*
X101476125Y-92567935D01*
X101503062Y-92487123D01*
X101556937Y-92433248D01*
X101637749Y-92406311D01*
X101691624Y-92406311D01*
X101772436Y-92433248D01*
X101960998Y-92621810D01*
X101125938Y-92325499D02*
X101583874Y-91867563D01*
X101610812Y-91786751D01*
X101610812Y-91732876D01*
X101583874Y-91652064D01*
X101476125Y-91544314D01*
X101395312Y-91517377D01*
X101341438Y-91517377D01*
X101260625Y-91544314D01*
X100802690Y-92002250D01*
X101099001Y-91221065D02*
X101045126Y-91113316D01*
X100910439Y-90978629D01*
X100829627Y-90951691D01*
X100775752Y-90951691D01*
X100694940Y-90978629D01*
X100641065Y-91032503D01*
X100614128Y-91113316D01*
X100614128Y-91167190D01*
X100641065Y-91248003D01*
X100721877Y-91382690D01*
X100748815Y-91463502D01*
X100748815Y-91517377D01*
X100721877Y-91598189D01*
X100668003Y-91652064D01*
X100587190Y-91679001D01*
X100533316Y-91679001D01*
X100452503Y-91652064D01*
X100317816Y-91517377D01*
X100263942Y-91409627D01*
X152253809Y-101505238D02*
X152291904Y-101390952D01*
X152291904Y-101200476D01*
X152253809Y-101124285D01*
X152215714Y-101086190D01*
X152139523Y-101048095D01*
X152063333Y-101048095D01*
X151987142Y-101086190D01*
X151949047Y-101124285D01*
X151910952Y-101200476D01*
X151872857Y-101352857D01*
X151834761Y-101429047D01*
X151796666Y-101467142D01*
X151720476Y-101505238D01*
X151644285Y-101505238D01*
X151568095Y-101467142D01*
X151530000Y-101429047D01*
X151491904Y-101352857D01*
X151491904Y-101162380D01*
X151530000Y-101048095D01*
X151491904Y-100781428D02*
X152291904Y-100590952D01*
X151720476Y-100438571D01*
X152291904Y-100286190D01*
X151491904Y-100095714D01*
X152291904Y-99790952D02*
X151491904Y-99790952D01*
X151491904Y-99600476D01*
X151530000Y-99486190D01*
X151606190Y-99410000D01*
X151682380Y-99371904D01*
X151834761Y-99333809D01*
X151949047Y-99333809D01*
X152101428Y-99371904D01*
X152177619Y-99410000D01*
X152253809Y-99486190D01*
X152291904Y-99600476D01*
X152291904Y-99790952D01*
X152291904Y-98990952D02*
X151491904Y-98990952D01*
X151491904Y-98457619D02*
X151491904Y-98305238D01*
X151530000Y-98229047D01*
X151606190Y-98152857D01*
X151758571Y-98114761D01*
X152025238Y-98114761D01*
X152177619Y-98152857D01*
X152253809Y-98229047D01*
X152291904Y-98305238D01*
X152291904Y-98457619D01*
X152253809Y-98533809D01*
X152177619Y-98610000D01*
X152025238Y-98648095D01*
X151758571Y-98648095D01*
X151606190Y-98610000D01*
X151530000Y-98533809D01*
X151491904Y-98457619D01*
X106828155Y-93323841D02*
X106855093Y-93404653D01*
X106935905Y-93485465D01*
X107043654Y-93539340D01*
X107151404Y-93539340D01*
X107232216Y-93512402D01*
X107366903Y-93431590D01*
X107447715Y-93350778D01*
X107528528Y-93216091D01*
X107555465Y-93135279D01*
X107555465Y-93027529D01*
X107501590Y-92919780D01*
X107447715Y-92865905D01*
X107339966Y-92812030D01*
X107286091Y-92812030D01*
X107097529Y-93000592D01*
X107205279Y-93108341D01*
X107097529Y-92515719D02*
X106531844Y-93081404D01*
X106774280Y-92192470D01*
X106208595Y-92758155D01*
X106504906Y-91923096D02*
X105939221Y-92488781D01*
X105804534Y-92354094D01*
X105750659Y-92246345D01*
X105750659Y-92138595D01*
X105777597Y-92057783D01*
X105858409Y-91923096D01*
X105939221Y-91842284D01*
X106073908Y-91761471D01*
X106154720Y-91734534D01*
X106262470Y-91734534D01*
X106370219Y-91788409D01*
X106504906Y-91923096D01*
X104251218Y-118996903D02*
X104278155Y-119077715D01*
X104358967Y-119158528D01*
X104466717Y-119212402D01*
X104574467Y-119212402D01*
X104655279Y-119185465D01*
X104789966Y-119104653D01*
X104870778Y-119023841D01*
X104951590Y-118889154D01*
X104978528Y-118808341D01*
X104978528Y-118700592D01*
X104924653Y-118592842D01*
X104870778Y-118538967D01*
X104763028Y-118485093D01*
X104709154Y-118485093D01*
X104520592Y-118673654D01*
X104628341Y-118781404D01*
X104520592Y-118188781D02*
X103954906Y-118754467D01*
X103739407Y-118538967D01*
X103712470Y-118458155D01*
X103712470Y-118404280D01*
X103739407Y-118323468D01*
X103820219Y-118242656D01*
X103901032Y-118215719D01*
X103954906Y-118215719D01*
X104035719Y-118242656D01*
X104251218Y-118458155D01*
X103658595Y-117326784D02*
X103981844Y-117650033D01*
X103820219Y-117488409D02*
X103254534Y-118054094D01*
X103389221Y-118027157D01*
X103496971Y-118027157D01*
X103577783Y-118054094D01*
X124850592Y-93312277D02*
X124877529Y-93393089D01*
X124958341Y-93473902D01*
X125066091Y-93527776D01*
X125173841Y-93527776D01*
X125254653Y-93500839D01*
X125389340Y-93420027D01*
X125470152Y-93339215D01*
X125550964Y-93204528D01*
X125577902Y-93123715D01*
X125577902Y-93015966D01*
X125524027Y-92908216D01*
X125470152Y-92854341D01*
X125362402Y-92800467D01*
X125308528Y-92800467D01*
X125119966Y-92989028D01*
X125227715Y-93096778D01*
X125119966Y-92504155D02*
X124554280Y-93069841D01*
X124338781Y-92854341D01*
X124311844Y-92773529D01*
X124311844Y-92719654D01*
X124338781Y-92638842D01*
X124419593Y-92558030D01*
X124500406Y-92531093D01*
X124554280Y-92531093D01*
X124635093Y-92558030D01*
X124850592Y-92773529D01*
X124069407Y-92477218D02*
X124015532Y-92477218D01*
X123934720Y-92450280D01*
X123800033Y-92315593D01*
X123773096Y-92234781D01*
X123773096Y-92180906D01*
X123800033Y-92100094D01*
X123853908Y-92046219D01*
X123961658Y-91992345D01*
X124608155Y-91992345D01*
X124257969Y-91642158D01*
X123207410Y-91722971D02*
X123315160Y-91830720D01*
X123395972Y-91857658D01*
X123449847Y-91857658D01*
X123584534Y-91830720D01*
X123719221Y-91749908D01*
X123934720Y-91534409D01*
X123961658Y-91453597D01*
X123961658Y-91399722D01*
X123934720Y-91318910D01*
X123826971Y-91211160D01*
X123746158Y-91184223D01*
X123692284Y-91184223D01*
X123611471Y-91211160D01*
X123476784Y-91345847D01*
X123449847Y-91426659D01*
X123449847Y-91480534D01*
X123476784Y-91561346D01*
X123584534Y-91669096D01*
X123665346Y-91696033D01*
X123719221Y-91696033D01*
X123800033Y-91669096D01*
X122041218Y-118896903D02*
X122068155Y-118977715D01*
X122148967Y-119058528D01*
X122256717Y-119112402D01*
X122364467Y-119112402D01*
X122445279Y-119085465D01*
X122579966Y-119004653D01*
X122660778Y-118923841D01*
X122741590Y-118789154D01*
X122768528Y-118708341D01*
X122768528Y-118600592D01*
X122714653Y-118492842D01*
X122660778Y-118438967D01*
X122553028Y-118385093D01*
X122499154Y-118385093D01*
X122310592Y-118573654D01*
X122418341Y-118681404D01*
X122310592Y-118088781D02*
X121744906Y-118654467D01*
X121529407Y-118438967D01*
X121502470Y-118358155D01*
X121502470Y-118304280D01*
X121529407Y-118223468D01*
X121610219Y-118142656D01*
X121691032Y-118115719D01*
X121744906Y-118115719D01*
X121825719Y-118142656D01*
X122041218Y-118358155D01*
X120936784Y-117846345D02*
X121044534Y-117954094D01*
X121125346Y-117981032D01*
X121179221Y-117981032D01*
X121313908Y-117954094D01*
X121448595Y-117873282D01*
X121664094Y-117657783D01*
X121691032Y-117576971D01*
X121691032Y-117523096D01*
X121664094Y-117442284D01*
X121556345Y-117334534D01*
X121475532Y-117307597D01*
X121421658Y-117307597D01*
X121340845Y-117334534D01*
X121206158Y-117469221D01*
X121179221Y-117550033D01*
X121179221Y-117603908D01*
X121206158Y-117684720D01*
X121313908Y-117792470D01*
X121394720Y-117819407D01*
X121448595Y-117819407D01*
X121529407Y-117792470D01*
X132228155Y-93323841D02*
X132255093Y-93404653D01*
X132335905Y-93485465D01*
X132443654Y-93539340D01*
X132551404Y-93539340D01*
X132632216Y-93512402D01*
X132766903Y-93431590D01*
X132847715Y-93350778D01*
X132928528Y-93216091D01*
X132955465Y-93135279D01*
X132955465Y-93027529D01*
X132901590Y-92919780D01*
X132847715Y-92865905D01*
X132739966Y-92812030D01*
X132686091Y-92812030D01*
X132497529Y-93000592D01*
X132605279Y-93108341D01*
X132497529Y-92515719D02*
X131931844Y-93081404D01*
X132174280Y-92192470D01*
X131608595Y-92758155D01*
X131904906Y-91923096D02*
X131339221Y-92488781D01*
X131204534Y-92354094D01*
X131150659Y-92246345D01*
X131150659Y-92138595D01*
X131177597Y-92057783D01*
X131258409Y-91923096D01*
X131339221Y-91842284D01*
X131473908Y-91761471D01*
X131554720Y-91734534D01*
X131662470Y-91734534D01*
X131770219Y-91788409D01*
X131904906Y-91923096D01*
X127121218Y-118896903D02*
X127148155Y-118977715D01*
X127228967Y-119058528D01*
X127336717Y-119112402D01*
X127444467Y-119112402D01*
X127525279Y-119085465D01*
X127659966Y-119004653D01*
X127740778Y-118923841D01*
X127821590Y-118789154D01*
X127848528Y-118708341D01*
X127848528Y-118600592D01*
X127794653Y-118492842D01*
X127740778Y-118438967D01*
X127633028Y-118385093D01*
X127579154Y-118385093D01*
X127390592Y-118573654D01*
X127498341Y-118681404D01*
X127390592Y-118088781D02*
X126824906Y-118654467D01*
X126609407Y-118438967D01*
X126582470Y-118358155D01*
X126582470Y-118304280D01*
X126609407Y-118223468D01*
X126690219Y-118142656D01*
X126771032Y-118115719D01*
X126824906Y-118115719D01*
X126905719Y-118142656D01*
X127121218Y-118358155D01*
X126420845Y-117765532D02*
X126447783Y-117846345D01*
X126447783Y-117900219D01*
X126420845Y-117981032D01*
X126393908Y-118007969D01*
X126313096Y-118034906D01*
X126259221Y-118034906D01*
X126178409Y-118007969D01*
X126070659Y-117900219D01*
X126043722Y-117819407D01*
X126043722Y-117765532D01*
X126070659Y-117684720D01*
X126097597Y-117657783D01*
X126178409Y-117630845D01*
X126232284Y-117630845D01*
X126313096Y-117657783D01*
X126420845Y-117765532D01*
X126501658Y-117792470D01*
X126555532Y-117792470D01*
X126636345Y-117765532D01*
X126744094Y-117657783D01*
X126771032Y-117576971D01*
X126771032Y-117523096D01*
X126744094Y-117442284D01*
X126636345Y-117334534D01*
X126555532Y-117307597D01*
X126501658Y-117307597D01*
X126420845Y-117334534D01*
X126313096Y-117442284D01*
X126286158Y-117523096D01*
X126286158Y-117576971D01*
X126313096Y-117657783D01*
X147710592Y-93312277D02*
X147737529Y-93393089D01*
X147818341Y-93473902D01*
X147926091Y-93527776D01*
X148033841Y-93527776D01*
X148114653Y-93500839D01*
X148249340Y-93420027D01*
X148330152Y-93339215D01*
X148410964Y-93204528D01*
X148437902Y-93123715D01*
X148437902Y-93015966D01*
X148384027Y-92908216D01*
X148330152Y-92854341D01*
X148222402Y-92800467D01*
X148168528Y-92800467D01*
X147979966Y-92989028D01*
X148087715Y-93096778D01*
X147979966Y-92504155D02*
X147414280Y-93069841D01*
X147198781Y-92854341D01*
X147171844Y-92773529D01*
X147171844Y-92719654D01*
X147198781Y-92638842D01*
X147279593Y-92558030D01*
X147360406Y-92531093D01*
X147414280Y-92531093D01*
X147495093Y-92558030D01*
X147710592Y-92773529D01*
X147117969Y-91642158D02*
X147441218Y-91965407D01*
X147279593Y-91803783D02*
X146713908Y-92369468D01*
X146848595Y-92342531D01*
X146956345Y-92342531D01*
X147037157Y-92369468D01*
X146363722Y-92019282D02*
X145986598Y-91642158D01*
X146794720Y-91318910D01*
X120470964Y-93258402D02*
X120201590Y-92989028D01*
X120686463Y-93150653D02*
X119932216Y-93527776D01*
X120309340Y-92773529D01*
X119285719Y-92827404D02*
X119312656Y-92908216D01*
X119393468Y-92989028D01*
X119501218Y-93042903D01*
X119608967Y-93042903D01*
X119689780Y-93015966D01*
X119824467Y-92935154D01*
X119905279Y-92854341D01*
X119986091Y-92719654D01*
X120013028Y-92638842D01*
X120013028Y-92531093D01*
X119959154Y-92423343D01*
X119905279Y-92369468D01*
X119797529Y-92315593D01*
X119743654Y-92315593D01*
X119555093Y-92504155D01*
X119662842Y-92611905D01*
X119555093Y-92019282D02*
X118989407Y-92584967D01*
X119231844Y-91696033D01*
X118666158Y-92261719D01*
X118962470Y-91426659D02*
X118396784Y-91992345D01*
X118262097Y-91857658D01*
X118208223Y-91749908D01*
X118208223Y-91642158D01*
X118235160Y-91561346D01*
X118315972Y-91426659D01*
X118396784Y-91345847D01*
X118531471Y-91265035D01*
X118612284Y-91238097D01*
X118720033Y-91238097D01*
X118827783Y-91291972D01*
X118962470Y-91426659D01*
X129661218Y-118896903D02*
X129688155Y-118977715D01*
X129768967Y-119058528D01*
X129876717Y-119112402D01*
X129984467Y-119112402D01*
X130065279Y-119085465D01*
X130199966Y-119004653D01*
X130280778Y-118923841D01*
X130361590Y-118789154D01*
X130388528Y-118708341D01*
X130388528Y-118600592D01*
X130334653Y-118492842D01*
X130280778Y-118438967D01*
X130173028Y-118385093D01*
X130119154Y-118385093D01*
X129930592Y-118573654D01*
X130038341Y-118681404D01*
X129930592Y-118088781D02*
X129364906Y-118654467D01*
X129149407Y-118438967D01*
X129122470Y-118358155D01*
X129122470Y-118304280D01*
X129149407Y-118223468D01*
X129230219Y-118142656D01*
X129311032Y-118115719D01*
X129364906Y-118115719D01*
X129445719Y-118142656D01*
X129661218Y-118358155D01*
X129337969Y-117496158D02*
X129230219Y-117388409D01*
X129149407Y-117361471D01*
X129095532Y-117361471D01*
X128960845Y-117388409D01*
X128826158Y-117469221D01*
X128610659Y-117684720D01*
X128583722Y-117765532D01*
X128583722Y-117819407D01*
X128610659Y-117900219D01*
X128718409Y-118007969D01*
X128799221Y-118034906D01*
X128853096Y-118034906D01*
X128933908Y-118007969D01*
X129068595Y-117873282D01*
X129095532Y-117792470D01*
X129095532Y-117738595D01*
X129068595Y-117657783D01*
X128960845Y-117550033D01*
X128880033Y-117523096D01*
X128826158Y-117523096D01*
X128745346Y-117550033D01*
X112220592Y-93520152D02*
X111870406Y-93169966D01*
X112274467Y-93143028D01*
X112193654Y-93062216D01*
X112166717Y-92981404D01*
X112166717Y-92927529D01*
X112193654Y-92846717D01*
X112328341Y-92712030D01*
X112409154Y-92685093D01*
X112463028Y-92685093D01*
X112543841Y-92712030D01*
X112705465Y-92873654D01*
X112732402Y-92954467D01*
X112732402Y-93008341D01*
X111708781Y-93008341D02*
X112085905Y-92254094D01*
X111331658Y-92631218D01*
X111196971Y-92496531D02*
X110846784Y-92146345D01*
X111250845Y-92119407D01*
X111170033Y-92038595D01*
X111143096Y-91957783D01*
X111143096Y-91903908D01*
X111170033Y-91823096D01*
X111304720Y-91688409D01*
X111385532Y-91661471D01*
X111439407Y-91661471D01*
X111520219Y-91688409D01*
X111681844Y-91850033D01*
X111708781Y-91930845D01*
X111708781Y-91984720D01*
X104799966Y-93489526D02*
X105177089Y-92735279D01*
X104422842Y-93112402D01*
X104799966Y-92412030D02*
X104746091Y-92304280D01*
X104611404Y-92169593D01*
X104530592Y-92142656D01*
X104476717Y-92142656D01*
X104395905Y-92169593D01*
X104342030Y-92223468D01*
X104315093Y-92304280D01*
X104315093Y-92358155D01*
X104342030Y-92438967D01*
X104422842Y-92573654D01*
X104449780Y-92654467D01*
X104449780Y-92708341D01*
X104422842Y-92789154D01*
X104368967Y-92843028D01*
X104288155Y-92869966D01*
X104234280Y-92869966D01*
X104153468Y-92843028D01*
X104018781Y-92708341D01*
X103964906Y-92600592D01*
X103884094Y-91981032D02*
X104153468Y-91711658D01*
X103776345Y-92465905D02*
X103884094Y-91981032D01*
X103399221Y-92088781D01*
X103776345Y-91388409D02*
X103722470Y-91280659D01*
X103587783Y-91145972D01*
X103506971Y-91119035D01*
X103453096Y-91119035D01*
X103372284Y-91145972D01*
X103318409Y-91199847D01*
X103291471Y-91280659D01*
X103291471Y-91334534D01*
X103318409Y-91415346D01*
X103399221Y-91550033D01*
X103426158Y-91630845D01*
X103426158Y-91684720D01*
X103399221Y-91765532D01*
X103345346Y-91819407D01*
X103264534Y-91846345D01*
X103210659Y-91846345D01*
X103129847Y-91819407D01*
X102995160Y-91684720D01*
X102941285Y-91576971D01*
X135010592Y-119420277D02*
X135037529Y-119501089D01*
X135118341Y-119581902D01*
X135226091Y-119635776D01*
X135333841Y-119635776D01*
X135414653Y-119608839D01*
X135549340Y-119528027D01*
X135630152Y-119447215D01*
X135710964Y-119312528D01*
X135737902Y-119231715D01*
X135737902Y-119123966D01*
X135684027Y-119016216D01*
X135630152Y-118962341D01*
X135522402Y-118908467D01*
X135468528Y-118908467D01*
X135279966Y-119097028D01*
X135387715Y-119204778D01*
X135279966Y-118612155D02*
X134714280Y-119177841D01*
X134498781Y-118962341D01*
X134471844Y-118881529D01*
X134471844Y-118827654D01*
X134498781Y-118746842D01*
X134579593Y-118666030D01*
X134660406Y-118639093D01*
X134714280Y-118639093D01*
X134795093Y-118666030D01*
X135010592Y-118881529D01*
X134417969Y-117750158D02*
X134741218Y-118073407D01*
X134579593Y-117911783D02*
X134013908Y-118477468D01*
X134148595Y-118450531D01*
X134256345Y-118450531D01*
X134337157Y-118477468D01*
X133502097Y-117965658D02*
X133448223Y-117911783D01*
X133421285Y-117830971D01*
X133421285Y-117777096D01*
X133448223Y-117696284D01*
X133529035Y-117561597D01*
X133663722Y-117426910D01*
X133798409Y-117346097D01*
X133879221Y-117319160D01*
X133933096Y-117319160D01*
X134013908Y-117346097D01*
X134067783Y-117399972D01*
X134094720Y-117480784D01*
X134094720Y-117534659D01*
X134067783Y-117615471D01*
X133986971Y-117750158D01*
X133852284Y-117884845D01*
X133717597Y-117965658D01*
X133636784Y-117992595D01*
X133582910Y-117992595D01*
X133502097Y-117965658D01*
X152253809Y-112919523D02*
X152291904Y-112805238D01*
X152291904Y-112614761D01*
X152253809Y-112538571D01*
X152215714Y-112500476D01*
X152139523Y-112462380D01*
X152063333Y-112462380D01*
X151987142Y-112500476D01*
X151949047Y-112538571D01*
X151910952Y-112614761D01*
X151872857Y-112767142D01*
X151834761Y-112843333D01*
X151796666Y-112881428D01*
X151720476Y-112919523D01*
X151644285Y-112919523D01*
X151568095Y-112881428D01*
X151530000Y-112843333D01*
X151491904Y-112767142D01*
X151491904Y-112576666D01*
X151530000Y-112462380D01*
X151491904Y-112195714D02*
X152291904Y-112005238D01*
X151720476Y-111852857D01*
X152291904Y-111700476D01*
X151491904Y-111510000D01*
X152215714Y-110748095D02*
X152253809Y-110786190D01*
X152291904Y-110900476D01*
X152291904Y-110976666D01*
X152253809Y-111090952D01*
X152177619Y-111167142D01*
X152101428Y-111205238D01*
X151949047Y-111243333D01*
X151834761Y-111243333D01*
X151682380Y-111205238D01*
X151606190Y-111167142D01*
X151530000Y-111090952D01*
X151491904Y-110976666D01*
X151491904Y-110900476D01*
X151530000Y-110786190D01*
X151568095Y-110748095D01*
X152291904Y-110024285D02*
X152291904Y-110405238D01*
X151491904Y-110405238D01*
X152291904Y-109757619D02*
X151491904Y-109757619D01*
X152291904Y-109300476D02*
X151834761Y-109643333D01*
X151491904Y-109300476D02*
X151949047Y-109757619D01*
X147710592Y-119466277D02*
X147737529Y-119547089D01*
X147818341Y-119627902D01*
X147926091Y-119681776D01*
X148033841Y-119681776D01*
X148114653Y-119654839D01*
X148249340Y-119574027D01*
X148330152Y-119493215D01*
X148410964Y-119358528D01*
X148437902Y-119277715D01*
X148437902Y-119169966D01*
X148384027Y-119062216D01*
X148330152Y-119008341D01*
X148222402Y-118954467D01*
X148168528Y-118954467D01*
X147979966Y-119143028D01*
X148087715Y-119250778D01*
X147979966Y-118658155D02*
X147414280Y-119223841D01*
X147198781Y-119008341D01*
X147171844Y-118927529D01*
X147171844Y-118873654D01*
X147198781Y-118792842D01*
X147279593Y-118712030D01*
X147360406Y-118685093D01*
X147414280Y-118685093D01*
X147495093Y-118712030D01*
X147710592Y-118927529D01*
X147117969Y-117796158D02*
X147441218Y-118119407D01*
X147279593Y-117957783D02*
X146713908Y-118523468D01*
X146848595Y-118496531D01*
X146956345Y-118496531D01*
X147037157Y-118523468D01*
X146255972Y-117688409D02*
X146633096Y-117311285D01*
X146175160Y-118038595D02*
X146713908Y-117769221D01*
X146363722Y-117419035D01*
X115263773Y-93255211D02*
X114994399Y-92985837D01*
X115479272Y-93147462D02*
X114725025Y-93524585D01*
X115102149Y-92770338D01*
X114913587Y-92581776D02*
X114347902Y-93147462D01*
X114213215Y-93012775D01*
X114159340Y-92905025D01*
X114159340Y-92797276D01*
X114186277Y-92716463D01*
X114267089Y-92581776D01*
X114347902Y-92500964D01*
X114482589Y-92420152D01*
X114563401Y-92393215D01*
X114671150Y-92393215D01*
X114778900Y-92447089D01*
X114913587Y-92581776D01*
X113970778Y-91746717D02*
X114024653Y-91746717D01*
X114132402Y-91800592D01*
X114186277Y-91854467D01*
X114240152Y-91962216D01*
X114240152Y-92069966D01*
X114213215Y-92150778D01*
X114132402Y-92285465D01*
X114051590Y-92366277D01*
X113916903Y-92447089D01*
X113836091Y-92474027D01*
X113728341Y-92474027D01*
X113620592Y-92420152D01*
X113566717Y-92366277D01*
X113512842Y-92258528D01*
X113512842Y-92204653D01*
X113970778Y-91531218D02*
X113539780Y-91100219D01*
X112866345Y-91665905D02*
X113243468Y-90911658D01*
X112489221Y-91288781D01*
X112543096Y-90211285D02*
X112462284Y-90669221D01*
X112866345Y-90534534D02*
X112300659Y-91100219D01*
X112085160Y-90884720D01*
X112058223Y-90803908D01*
X112058223Y-90750033D01*
X112085160Y-90669221D01*
X112165972Y-90588409D01*
X112246784Y-90561471D01*
X112300659Y-90561471D01*
X112381471Y-90588409D01*
X112596971Y-90803908D01*
X112004348Y-90265160D02*
X111815786Y-90076598D01*
X112031285Y-89699475D02*
X112300659Y-89968849D01*
X111734974Y-90534534D01*
X111465600Y-90265160D01*
X111303975Y-89564788D02*
X111492537Y-89753349D01*
X111788849Y-89457038D02*
X111223163Y-90022723D01*
X110953789Y-89753349D01*
X144928155Y-93323841D02*
X144955093Y-93404653D01*
X145035905Y-93485465D01*
X145143654Y-93539340D01*
X145251404Y-93539340D01*
X145332216Y-93512402D01*
X145466903Y-93431590D01*
X145547715Y-93350778D01*
X145628528Y-93216091D01*
X145655465Y-93135279D01*
X145655465Y-93027529D01*
X145601590Y-92919780D01*
X145547715Y-92865905D01*
X145439966Y-92812030D01*
X145386091Y-92812030D01*
X145197529Y-93000592D01*
X145305279Y-93108341D01*
X145197529Y-92515719D02*
X144631844Y-93081404D01*
X144874280Y-92192470D01*
X144308595Y-92758155D01*
X144604906Y-91923096D02*
X144039221Y-92488781D01*
X143904534Y-92354094D01*
X143850659Y-92246345D01*
X143850659Y-92138595D01*
X143877597Y-92057783D01*
X143958409Y-91923096D01*
X144039221Y-91842284D01*
X144173908Y-91761471D01*
X144254720Y-91734534D01*
X144362470Y-91734534D01*
X144470219Y-91788409D01*
X144604906Y-91923096D01*
X144928155Y-118923841D02*
X144955093Y-119004653D01*
X145035905Y-119085465D01*
X145143654Y-119139340D01*
X145251404Y-119139340D01*
X145332216Y-119112402D01*
X145466903Y-119031590D01*
X145547715Y-118950778D01*
X145628528Y-118816091D01*
X145655465Y-118735279D01*
X145655465Y-118627529D01*
X145601590Y-118519780D01*
X145547715Y-118465905D01*
X145439966Y-118412030D01*
X145386091Y-118412030D01*
X145197529Y-118600592D01*
X145305279Y-118708341D01*
X145197529Y-118115719D02*
X144631844Y-118681404D01*
X144874280Y-117792470D01*
X144308595Y-118358155D01*
X144604906Y-117523096D02*
X144039221Y-118088781D01*
X143904534Y-117954094D01*
X143850659Y-117846345D01*
X143850659Y-117738595D01*
X143877597Y-117657783D01*
X143958409Y-117523096D01*
X144039221Y-117442284D01*
X144173908Y-117361471D01*
X144254720Y-117334534D01*
X144362470Y-117334534D01*
X144470219Y-117388409D01*
X144604906Y-117523096D01*
X111881218Y-118896903D02*
X111908155Y-118977715D01*
X111988967Y-119058528D01*
X112096717Y-119112402D01*
X112204467Y-119112402D01*
X112285279Y-119085465D01*
X112419966Y-119004653D01*
X112500778Y-118923841D01*
X112581590Y-118789154D01*
X112608528Y-118708341D01*
X112608528Y-118600592D01*
X112554653Y-118492842D01*
X112500778Y-118438967D01*
X112393028Y-118385093D01*
X112339154Y-118385093D01*
X112150592Y-118573654D01*
X112258341Y-118681404D01*
X112150592Y-118088781D02*
X111584906Y-118654467D01*
X111369407Y-118438967D01*
X111342470Y-118358155D01*
X111342470Y-118304280D01*
X111369407Y-118223468D01*
X111450219Y-118142656D01*
X111531032Y-118115719D01*
X111584906Y-118115719D01*
X111665719Y-118142656D01*
X111881218Y-118358155D01*
X111073096Y-118142656D02*
X110722910Y-117792470D01*
X111126971Y-117765532D01*
X111046158Y-117684720D01*
X111019221Y-117603908D01*
X111019221Y-117550033D01*
X111046158Y-117469221D01*
X111180845Y-117334534D01*
X111261658Y-117307597D01*
X111315532Y-117307597D01*
X111396345Y-117334534D01*
X111557969Y-117496158D01*
X111584906Y-117576971D01*
X111584906Y-117630845D01*
X142630592Y-119420277D02*
X142657529Y-119501089D01*
X142738341Y-119581902D01*
X142846091Y-119635776D01*
X142953841Y-119635776D01*
X143034653Y-119608839D01*
X143169340Y-119528027D01*
X143250152Y-119447215D01*
X143330964Y-119312528D01*
X143357902Y-119231715D01*
X143357902Y-119123966D01*
X143304027Y-119016216D01*
X143250152Y-118962341D01*
X143142402Y-118908467D01*
X143088528Y-118908467D01*
X142899966Y-119097028D01*
X143007715Y-119204778D01*
X142899966Y-118612155D02*
X142334280Y-119177841D01*
X142118781Y-118962341D01*
X142091844Y-118881529D01*
X142091844Y-118827654D01*
X142118781Y-118746842D01*
X142199593Y-118666030D01*
X142280406Y-118639093D01*
X142334280Y-118639093D01*
X142415093Y-118666030D01*
X142630592Y-118881529D01*
X142037969Y-117750158D02*
X142361218Y-118073407D01*
X142199593Y-117911783D02*
X141633908Y-118477468D01*
X141768595Y-118450531D01*
X141876345Y-118450531D01*
X141957157Y-118477468D01*
X141283722Y-118127282D02*
X140933536Y-117777096D01*
X141337597Y-117750158D01*
X141256784Y-117669346D01*
X141229847Y-117588534D01*
X141229847Y-117534659D01*
X141256784Y-117453847D01*
X141391471Y-117319160D01*
X141472284Y-117292223D01*
X141526158Y-117292223D01*
X141606971Y-117319160D01*
X141768595Y-117480784D01*
X141795532Y-117561597D01*
X141795532Y-117615471D01*
X142630592Y-93312277D02*
X142657529Y-93393089D01*
X142738341Y-93473902D01*
X142846091Y-93527776D01*
X142953841Y-93527776D01*
X143034653Y-93500839D01*
X143169340Y-93420027D01*
X143250152Y-93339215D01*
X143330964Y-93204528D01*
X143357902Y-93123715D01*
X143357902Y-93015966D01*
X143304027Y-92908216D01*
X143250152Y-92854341D01*
X143142402Y-92800467D01*
X143088528Y-92800467D01*
X142899966Y-92989028D01*
X143007715Y-93096778D01*
X142899966Y-92504155D02*
X142334280Y-93069841D01*
X142118781Y-92854341D01*
X142091844Y-92773529D01*
X142091844Y-92719654D01*
X142118781Y-92638842D01*
X142199593Y-92558030D01*
X142280406Y-92531093D01*
X142334280Y-92531093D01*
X142415093Y-92558030D01*
X142630592Y-92773529D01*
X142037969Y-91642158D02*
X142361218Y-91965407D01*
X142199593Y-91803783D02*
X141633908Y-92369468D01*
X141768595Y-92342531D01*
X141876345Y-92342531D01*
X141957157Y-92369468D01*
X141391471Y-91642158D02*
X141418409Y-91722971D01*
X141418409Y-91776845D01*
X141391471Y-91857658D01*
X141364534Y-91884595D01*
X141283722Y-91911532D01*
X141229847Y-91911532D01*
X141149035Y-91884595D01*
X141041285Y-91776845D01*
X141014348Y-91696033D01*
X141014348Y-91642158D01*
X141041285Y-91561346D01*
X141068223Y-91534409D01*
X141149035Y-91507471D01*
X141202910Y-91507471D01*
X141283722Y-91534409D01*
X141391471Y-91642158D01*
X141472284Y-91669096D01*
X141526158Y-91669096D01*
X141606971Y-91642158D01*
X141714720Y-91534409D01*
X141741658Y-91453597D01*
X141741658Y-91399722D01*
X141714720Y-91318910D01*
X141606971Y-91211160D01*
X141526158Y-91184223D01*
X141472284Y-91184223D01*
X141391471Y-91211160D01*
X141283722Y-91318910D01*
X141256784Y-91399722D01*
X141256784Y-91453597D01*
X141283722Y-91534409D01*
X119528155Y-118923841D02*
X119555093Y-119004653D01*
X119635905Y-119085465D01*
X119743654Y-119139340D01*
X119851404Y-119139340D01*
X119932216Y-119112402D01*
X120066903Y-119031590D01*
X120147715Y-118950778D01*
X120228528Y-118816091D01*
X120255465Y-118735279D01*
X120255465Y-118627529D01*
X120201590Y-118519780D01*
X120147715Y-118465905D01*
X120039966Y-118412030D01*
X119986091Y-118412030D01*
X119797529Y-118600592D01*
X119905279Y-118708341D01*
X119797529Y-118115719D02*
X119231844Y-118681404D01*
X119474280Y-117792470D01*
X118908595Y-118358155D01*
X119204906Y-117523096D02*
X118639221Y-118088781D01*
X118504534Y-117954094D01*
X118450659Y-117846345D01*
X118450659Y-117738595D01*
X118477597Y-117657783D01*
X118558409Y-117523096D01*
X118639221Y-117442284D01*
X118773908Y-117361471D01*
X118854720Y-117334534D01*
X118962470Y-117334534D01*
X119070219Y-117388409D01*
X119204906Y-117523096D01*
X116961218Y-118896903D02*
X116988155Y-118977715D01*
X117068967Y-119058528D01*
X117176717Y-119112402D01*
X117284467Y-119112402D01*
X117365279Y-119085465D01*
X117499966Y-119004653D01*
X117580778Y-118923841D01*
X117661590Y-118789154D01*
X117688528Y-118708341D01*
X117688528Y-118600592D01*
X117634653Y-118492842D01*
X117580778Y-118438967D01*
X117473028Y-118385093D01*
X117419154Y-118385093D01*
X117230592Y-118573654D01*
X117338341Y-118681404D01*
X117230592Y-118088781D02*
X116664906Y-118654467D01*
X116449407Y-118438967D01*
X116422470Y-118358155D01*
X116422470Y-118304280D01*
X116449407Y-118223468D01*
X116530219Y-118142656D01*
X116611032Y-118115719D01*
X116664906Y-118115719D01*
X116745719Y-118142656D01*
X116961218Y-118358155D01*
X115829847Y-117819407D02*
X116099221Y-118088781D01*
X116395532Y-117846345D01*
X116341658Y-117846345D01*
X116260845Y-117819407D01*
X116126158Y-117684720D01*
X116099221Y-117603908D01*
X116099221Y-117550033D01*
X116126158Y-117469221D01*
X116260845Y-117334534D01*
X116341658Y-117307597D01*
X116395532Y-117307597D01*
X116476345Y-117334534D01*
X116611032Y-117469221D01*
X116637969Y-117550033D01*
X116637969Y-117603908D01*
X137550592Y-93312277D02*
X137577529Y-93393089D01*
X137658341Y-93473902D01*
X137766091Y-93527776D01*
X137873841Y-93527776D01*
X137954653Y-93500839D01*
X138089340Y-93420027D01*
X138170152Y-93339215D01*
X138250964Y-93204528D01*
X138277902Y-93123715D01*
X138277902Y-93015966D01*
X138224027Y-92908216D01*
X138170152Y-92854341D01*
X138062402Y-92800467D01*
X138008528Y-92800467D01*
X137819966Y-92989028D01*
X137927715Y-93096778D01*
X137819966Y-92504155D02*
X137254280Y-93069841D01*
X137038781Y-92854341D01*
X137011844Y-92773529D01*
X137011844Y-92719654D01*
X137038781Y-92638842D01*
X137119593Y-92558030D01*
X137200406Y-92531093D01*
X137254280Y-92531093D01*
X137335093Y-92558030D01*
X137550592Y-92773529D01*
X136769407Y-92477218D02*
X136715532Y-92477218D01*
X136634720Y-92450280D01*
X136500033Y-92315593D01*
X136473096Y-92234781D01*
X136473096Y-92180906D01*
X136500033Y-92100094D01*
X136553908Y-92046219D01*
X136661658Y-91992345D01*
X137308155Y-91992345D01*
X136957969Y-91642158D01*
X136042097Y-91857658D02*
X135988223Y-91803783D01*
X135961285Y-91722971D01*
X135961285Y-91669096D01*
X135988223Y-91588284D01*
X136069035Y-91453597D01*
X136203722Y-91318910D01*
X136338409Y-91238097D01*
X136419221Y-91211160D01*
X136473096Y-91211160D01*
X136553908Y-91238097D01*
X136607783Y-91291972D01*
X136634720Y-91372784D01*
X136634720Y-91426659D01*
X136607783Y-91507471D01*
X136526971Y-91642158D01*
X136392284Y-91776845D01*
X136257597Y-91857658D01*
X136176784Y-91884595D01*
X136122910Y-91884595D01*
X136042097Y-91857658D01*
X124551218Y-118796903D02*
X124578155Y-118877715D01*
X124658967Y-118958528D01*
X124766717Y-119012402D01*
X124874467Y-119012402D01*
X124955279Y-118985465D01*
X125089966Y-118904653D01*
X125170778Y-118823841D01*
X125251590Y-118689154D01*
X125278528Y-118608341D01*
X125278528Y-118500592D01*
X125224653Y-118392842D01*
X125170778Y-118338967D01*
X125063028Y-118285093D01*
X125009154Y-118285093D01*
X124820592Y-118473654D01*
X124928341Y-118581404D01*
X124820592Y-117988781D02*
X124254906Y-118554467D01*
X124039407Y-118338967D01*
X124012470Y-118258155D01*
X124012470Y-118204280D01*
X124039407Y-118123468D01*
X124120219Y-118042656D01*
X124201032Y-118015719D01*
X124254906Y-118015719D01*
X124335719Y-118042656D01*
X124551218Y-118258155D01*
X123743096Y-118042656D02*
X123365972Y-117665532D01*
X124174094Y-117342284D01*
X116976592Y-93312277D02*
X117003529Y-93393089D01*
X117084341Y-93473902D01*
X117192091Y-93527776D01*
X117299841Y-93527776D01*
X117380653Y-93500839D01*
X117515340Y-93420027D01*
X117596152Y-93339215D01*
X117676964Y-93204528D01*
X117703902Y-93123715D01*
X117703902Y-93015966D01*
X117650027Y-92908216D01*
X117596152Y-92854341D01*
X117488402Y-92800467D01*
X117434528Y-92800467D01*
X117245966Y-92989028D01*
X117353715Y-93096778D01*
X117245966Y-92504155D02*
X116680280Y-93069841D01*
X116464781Y-92854341D01*
X116437844Y-92773529D01*
X116437844Y-92719654D01*
X116464781Y-92638842D01*
X116545593Y-92558030D01*
X116626406Y-92531093D01*
X116680280Y-92531093D01*
X116761093Y-92558030D01*
X116976592Y-92773529D01*
X116195407Y-92477218D02*
X116141532Y-92477218D01*
X116060720Y-92450280D01*
X115926033Y-92315593D01*
X115899096Y-92234781D01*
X115899096Y-92180906D01*
X115926033Y-92100094D01*
X115979908Y-92046219D01*
X116087658Y-91992345D01*
X116734155Y-91992345D01*
X116383969Y-91642158D01*
X115737471Y-91642158D02*
X115764409Y-91722971D01*
X115764409Y-91776845D01*
X115737471Y-91857658D01*
X115710534Y-91884595D01*
X115629722Y-91911532D01*
X115575847Y-91911532D01*
X115495035Y-91884595D01*
X115387285Y-91776845D01*
X115360348Y-91696033D01*
X115360348Y-91642158D01*
X115387285Y-91561346D01*
X115414223Y-91534409D01*
X115495035Y-91507471D01*
X115548910Y-91507471D01*
X115629722Y-91534409D01*
X115737471Y-91642158D01*
X115818284Y-91669096D01*
X115872158Y-91669096D01*
X115952971Y-91642158D01*
X116060720Y-91534409D01*
X116087658Y-91453597D01*
X116087658Y-91399722D01*
X116060720Y-91318910D01*
X115952971Y-91211160D01*
X115872158Y-91184223D01*
X115818284Y-91184223D01*
X115737471Y-91211160D01*
X115629722Y-91318910D01*
X115602784Y-91399722D01*
X115602784Y-91453597D01*
X115629722Y-91534409D01*
X106828155Y-118923841D02*
X106855093Y-119004653D01*
X106935905Y-119085465D01*
X107043654Y-119139340D01*
X107151404Y-119139340D01*
X107232216Y-119112402D01*
X107366903Y-119031590D01*
X107447715Y-118950778D01*
X107528528Y-118816091D01*
X107555465Y-118735279D01*
X107555465Y-118627529D01*
X107501590Y-118519780D01*
X107447715Y-118465905D01*
X107339966Y-118412030D01*
X107286091Y-118412030D01*
X107097529Y-118600592D01*
X107205279Y-118708341D01*
X107097529Y-118115719D02*
X106531844Y-118681404D01*
X106774280Y-117792470D01*
X106208595Y-118358155D01*
X106504906Y-117523096D02*
X105939221Y-118088781D01*
X105804534Y-117954094D01*
X105750659Y-117846345D01*
X105750659Y-117738595D01*
X105777597Y-117657783D01*
X105858409Y-117523096D01*
X105939221Y-117442284D01*
X106073908Y-117361471D01*
X106154720Y-117334534D01*
X106262470Y-117334534D01*
X106370219Y-117388409D01*
X106504906Y-117523096D01*
X132228155Y-118923841D02*
X132255093Y-119004653D01*
X132335905Y-119085465D01*
X132443654Y-119139340D01*
X132551404Y-119139340D01*
X132632216Y-119112402D01*
X132766903Y-119031590D01*
X132847715Y-118950778D01*
X132928528Y-118816091D01*
X132955465Y-118735279D01*
X132955465Y-118627529D01*
X132901590Y-118519780D01*
X132847715Y-118465905D01*
X132739966Y-118412030D01*
X132686091Y-118412030D01*
X132497529Y-118600592D01*
X132605279Y-118708341D01*
X132497529Y-118115719D02*
X131931844Y-118681404D01*
X132174280Y-117792470D01*
X131608595Y-118358155D01*
X131904906Y-117523096D02*
X131339221Y-118088781D01*
X131204534Y-117954094D01*
X131150659Y-117846345D01*
X131150659Y-117738595D01*
X131177597Y-117657783D01*
X131258409Y-117523096D01*
X131339221Y-117442284D01*
X131473908Y-117361471D01*
X131554720Y-117334534D01*
X131662470Y-117334534D01*
X131770219Y-117388409D01*
X131904906Y-117523096D01*
X150250592Y-119420277D02*
X150277529Y-119501089D01*
X150358341Y-119581902D01*
X150466091Y-119635776D01*
X150573841Y-119635776D01*
X150654653Y-119608839D01*
X150789340Y-119528027D01*
X150870152Y-119447215D01*
X150950964Y-119312528D01*
X150977902Y-119231715D01*
X150977902Y-119123966D01*
X150924027Y-119016216D01*
X150870152Y-118962341D01*
X150762402Y-118908467D01*
X150708528Y-118908467D01*
X150519966Y-119097028D01*
X150627715Y-119204778D01*
X150519966Y-118612155D02*
X149954280Y-119177841D01*
X149738781Y-118962341D01*
X149711844Y-118881529D01*
X149711844Y-118827654D01*
X149738781Y-118746842D01*
X149819593Y-118666030D01*
X149900406Y-118639093D01*
X149954280Y-118639093D01*
X150035093Y-118666030D01*
X150250592Y-118881529D01*
X149657969Y-117750158D02*
X149981218Y-118073407D01*
X149819593Y-117911783D02*
X149253908Y-118477468D01*
X149388595Y-118450531D01*
X149496345Y-118450531D01*
X149577157Y-118477468D01*
X148580473Y-117804033D02*
X148849847Y-118073407D01*
X149146158Y-117830971D01*
X149092284Y-117830971D01*
X149011471Y-117804033D01*
X148876784Y-117669346D01*
X148849847Y-117588534D01*
X148849847Y-117534659D01*
X148876784Y-117453847D01*
X149011471Y-117319160D01*
X149092284Y-117292223D01*
X149146158Y-117292223D01*
X149226971Y-117319160D01*
X149361658Y-117453847D01*
X149388595Y-117534659D01*
X149388595Y-117588534D01*
X109341218Y-118996903D02*
X109368155Y-119077715D01*
X109448967Y-119158528D01*
X109556717Y-119212402D01*
X109664467Y-119212402D01*
X109745279Y-119185465D01*
X109879966Y-119104653D01*
X109960778Y-119023841D01*
X110041590Y-118889154D01*
X110068528Y-118808341D01*
X110068528Y-118700592D01*
X110014653Y-118592842D01*
X109960778Y-118538967D01*
X109853028Y-118485093D01*
X109799154Y-118485093D01*
X109610592Y-118673654D01*
X109718341Y-118781404D01*
X109610592Y-118188781D02*
X109044906Y-118754467D01*
X108829407Y-118538967D01*
X108802470Y-118458155D01*
X108802470Y-118404280D01*
X108829407Y-118323468D01*
X108910219Y-118242656D01*
X108991032Y-118215719D01*
X109044906Y-118215719D01*
X109125719Y-118242656D01*
X109341218Y-118458155D01*
X108560033Y-118161844D02*
X108506158Y-118161844D01*
X108425346Y-118134906D01*
X108290659Y-118000219D01*
X108263722Y-117919407D01*
X108263722Y-117865532D01*
X108290659Y-117784720D01*
X108344534Y-117730845D01*
X108452284Y-117676971D01*
X109098781Y-117676971D01*
X108748595Y-117326784D01*
D11*
%TO.C,D2*%
X140370000Y-78940000D02*
X140370000Y-76000000D01*
X134690000Y-77470000D02*
X135710000Y-77470000D01*
X141150000Y-78940000D02*
X141150000Y-76000000D01*
X140130000Y-78940000D02*
X140130000Y-76000000D01*
X140250000Y-78940000D02*
X140250000Y-76000000D01*
X135710000Y-76000000D02*
X135710000Y-78940000D01*
X141150000Y-76000000D02*
X135710000Y-76000000D01*
X142170000Y-77470000D02*
X141150000Y-77470000D01*
X135710000Y-78940000D02*
X141150000Y-78940000D01*
%TO.C,C1*%
X136949000Y-89421000D02*
X134831000Y-89421000D01*
X138680000Y-87981000D02*
X136930000Y-87981000D01*
X138438000Y-88341000D02*
X136930000Y-88341000D01*
X134850000Y-87501000D02*
X132872000Y-87501000D01*
X138892000Y-87541000D02*
X136930000Y-87541000D01*
X139079000Y-86860000D02*
X136930000Y-86860000D01*
X138580000Y-88141000D02*
X136930000Y-88141000D01*
X139011000Y-87181000D02*
X136930000Y-87181000D01*
X134850000Y-88541000D02*
X133510000Y-88541000D01*
X139085000Y-86820000D02*
X136930000Y-86820000D01*
X134850000Y-88581000D02*
X133547000Y-88581000D01*
X137834000Y-88941000D02*
X133946000Y-88941000D01*
X139021000Y-87141000D02*
X136930000Y-87141000D01*
X134850000Y-86980000D02*
X132723000Y-86980000D01*
X138702000Y-87941000D02*
X136930000Y-87941000D01*
X138406000Y-88381000D02*
X136930000Y-88381000D01*
X134850000Y-87741000D02*
X132974000Y-87741000D01*
X139072000Y-86900000D02*
X136930000Y-86900000D01*
X137540000Y-89141000D02*
X134240000Y-89141000D01*
X139096000Y-86740000D02*
X136930000Y-86740000D01*
X138306000Y-88501000D02*
X136930000Y-88501000D01*
X138724000Y-87901000D02*
X136930000Y-87901000D01*
X134850000Y-88621000D02*
X133585000Y-88621000D01*
X134850000Y-88421000D02*
X133406000Y-88421000D01*
X134850000Y-86820000D02*
X132695000Y-86820000D01*
X138526000Y-88221000D02*
X136930000Y-88221000D01*
X134850000Y-87901000D02*
X133056000Y-87901000D01*
X136692000Y-89501000D02*
X135088000Y-89501000D01*
X134850000Y-86580000D02*
X132668000Y-86580000D01*
X134850000Y-87381000D02*
X132829000Y-87381000D01*
X134850000Y-86660000D02*
X132675000Y-86660000D01*
X138824000Y-87701000D02*
X136930000Y-87701000D01*
X138937000Y-87421000D02*
X136930000Y-87421000D01*
X138766000Y-87821000D02*
X136930000Y-87821000D01*
X134850000Y-88501000D02*
X133474000Y-88501000D01*
X134850000Y-86860000D02*
X132701000Y-86860000D01*
X138554000Y-88181000D02*
X136930000Y-88181000D01*
X134850000Y-88461000D02*
X133440000Y-88461000D01*
X138746000Y-87861000D02*
X136930000Y-87861000D01*
X134850000Y-86900000D02*
X132708000Y-86900000D01*
X138044000Y-83154759D02*
X137414000Y-83154759D01*
X138072000Y-88741000D02*
X133708000Y-88741000D01*
X134850000Y-87861000D02*
X133034000Y-87861000D01*
X134850000Y-87981000D02*
X133100000Y-87981000D01*
X134850000Y-86740000D02*
X132684000Y-86740000D01*
X138860000Y-87621000D02*
X136930000Y-87621000D01*
X137934000Y-88861000D02*
X133846000Y-88861000D01*
X138374000Y-88421000D02*
X136930000Y-88421000D01*
X137471000Y-89181000D02*
X134309000Y-89181000D01*
X134850000Y-87141000D02*
X132759000Y-87141000D01*
X139091000Y-86780000D02*
X136930000Y-86780000D01*
X134850000Y-88181000D02*
X133226000Y-88181000D01*
X134850000Y-87061000D02*
X132740000Y-87061000D01*
X138908000Y-87501000D02*
X136930000Y-87501000D01*
X134850000Y-88221000D02*
X133254000Y-88221000D01*
X138632000Y-88061000D02*
X136930000Y-88061000D01*
X137885000Y-88901000D02*
X133895000Y-88901000D01*
X134850000Y-87341000D02*
X132816000Y-87341000D01*
X138786000Y-87781000D02*
X136930000Y-87781000D01*
X139108000Y-86620000D02*
X136930000Y-86620000D01*
X138114000Y-88701000D02*
X133666000Y-88701000D01*
X134850000Y-88021000D02*
X133124000Y-88021000D01*
X138876000Y-87581000D02*
X136930000Y-87581000D01*
X134850000Y-86700000D02*
X132679000Y-86700000D01*
X139101000Y-86700000D02*
X136930000Y-86700000D01*
X139120000Y-86340000D02*
X132660000Y-86340000D01*
X134850000Y-87461000D02*
X132857000Y-87461000D01*
X134850000Y-88301000D02*
X133312000Y-88301000D01*
X134850000Y-87701000D02*
X132956000Y-87701000D01*
X136523000Y-89541000D02*
X135257000Y-89541000D01*
X138964000Y-87341000D02*
X136930000Y-87341000D01*
X138806000Y-87741000D02*
X136930000Y-87741000D01*
X137724000Y-89021000D02*
X134056000Y-89021000D01*
X134850000Y-87941000D02*
X133078000Y-87941000D01*
X137604000Y-89101000D02*
X134176000Y-89101000D01*
X139117000Y-86500000D02*
X132663000Y-86500000D01*
X134850000Y-88141000D02*
X133200000Y-88141000D01*
X134850000Y-87581000D02*
X132904000Y-87581000D01*
X138027000Y-88781000D02*
X133753000Y-88781000D01*
X139057000Y-86980000D02*
X136930000Y-86980000D01*
X138656000Y-88021000D02*
X136930000Y-88021000D01*
X138606000Y-88101000D02*
X136930000Y-88101000D01*
X139040000Y-87061000D02*
X136930000Y-87061000D01*
X139000000Y-87221000D02*
X136930000Y-87221000D01*
X139114000Y-86540000D02*
X132666000Y-86540000D01*
X139065000Y-86940000D02*
X136930000Y-86940000D01*
X139120000Y-86420000D02*
X132660000Y-86420000D01*
X137982000Y-88821000D02*
X133798000Y-88821000D01*
X138988000Y-87261000D02*
X136930000Y-87261000D01*
X134850000Y-88341000D02*
X133342000Y-88341000D01*
X134850000Y-86780000D02*
X132689000Y-86780000D01*
X134850000Y-87020000D02*
X132731000Y-87020000D01*
X134850000Y-87261000D02*
X132792000Y-87261000D01*
X134850000Y-86940000D02*
X132715000Y-86940000D01*
X138497000Y-88261000D02*
X136930000Y-88261000D01*
X138976000Y-87301000D02*
X136930000Y-87301000D01*
X137152000Y-89341000D02*
X134628000Y-89341000D01*
X137240000Y-89301000D02*
X134540000Y-89301000D01*
X139105000Y-86660000D02*
X136930000Y-86660000D01*
X134850000Y-87421000D02*
X132843000Y-87421000D01*
X134850000Y-88101000D02*
X133174000Y-88101000D01*
X138233000Y-88581000D02*
X136930000Y-88581000D01*
X134850000Y-87101000D02*
X132749000Y-87101000D01*
X138195000Y-88621000D02*
X136930000Y-88621000D01*
X134850000Y-87221000D02*
X132780000Y-87221000D01*
X139049000Y-87020000D02*
X136930000Y-87020000D01*
X138951000Y-87381000D02*
X136930000Y-87381000D01*
X134850000Y-87301000D02*
X132804000Y-87301000D01*
X137780000Y-88981000D02*
X134000000Y-88981000D01*
X134850000Y-88061000D02*
X133148000Y-88061000D01*
X137055000Y-89381000D02*
X134725000Y-89381000D01*
X134850000Y-87781000D02*
X132994000Y-87781000D01*
X138468000Y-88301000D02*
X136930000Y-88301000D01*
X138270000Y-88541000D02*
X136930000Y-88541000D01*
X134850000Y-87621000D02*
X132920000Y-87621000D01*
X134850000Y-87181000D02*
X132769000Y-87181000D01*
X134850000Y-86620000D02*
X132672000Y-86620000D01*
X137322000Y-89261000D02*
X134458000Y-89261000D01*
X134850000Y-88381000D02*
X133374000Y-88381000D01*
X138155000Y-88661000D02*
X133625000Y-88661000D01*
X139120000Y-86380000D02*
X132660000Y-86380000D01*
X138842000Y-87661000D02*
X136930000Y-87661000D01*
X139118000Y-86460000D02*
X132662000Y-86460000D01*
X138923000Y-87461000D02*
X136930000Y-87461000D01*
X136830000Y-89461000D02*
X134950000Y-89461000D01*
X136292000Y-89581000D02*
X135488000Y-89581000D01*
X139112000Y-86580000D02*
X136930000Y-86580000D01*
X138340000Y-88461000D02*
X136930000Y-88461000D01*
X137666000Y-89061000D02*
X134114000Y-89061000D01*
X137729000Y-82839759D02*
X137729000Y-83469759D01*
X134850000Y-87821000D02*
X133014000Y-87821000D01*
X134850000Y-87661000D02*
X132938000Y-87661000D01*
X137399000Y-89221000D02*
X134381000Y-89221000D01*
X134850000Y-87541000D02*
X132888000Y-87541000D01*
X134850000Y-88261000D02*
X133283000Y-88261000D01*
X139031000Y-87101000D02*
X136930000Y-87101000D01*
X139160000Y-86340000D02*
G75*
G03*
X139160000Y-86340000I-3270000J0D01*
G01*
%TO.C,J4*%
X172660000Y-111820000D02*
X175320000Y-111820000D01*
X175320000Y-111700000D02*
X175320000Y-111820000D01*
X173990000Y-109160000D02*
X175320000Y-109160000D01*
X175320000Y-109160000D02*
X175320000Y-110490000D01*
X172660000Y-111700000D02*
X172660000Y-111820000D01*
%TO.C,J5*%
X174879000Y-119440000D02*
X172279000Y-119440000D01*
X177479000Y-118110000D02*
X177479000Y-119440000D01*
X174879000Y-116780000D02*
X172279000Y-116780000D01*
X174879000Y-116780000D02*
X174879000Y-119440000D01*
X172279000Y-116780000D02*
X172279000Y-119440000D01*
X177479000Y-119440000D02*
X176149000Y-119440000D01*
%TO.C,J2*%
X181150000Y-119410000D02*
X181150000Y-118410000D01*
X180340000Y-119410000D02*
X180340000Y-118910000D01*
X179130000Y-118910000D02*
X179130000Y-109690000D01*
X180340000Y-109690000D02*
X180340000Y-109190000D01*
X180450000Y-119710000D02*
X182950000Y-119710000D01*
X181150000Y-110190000D02*
X182650000Y-110190000D01*
X182950000Y-119710000D02*
X182950000Y-117210000D01*
X179130000Y-109690000D02*
X180340000Y-109690000D01*
X180340000Y-118910000D02*
X179130000Y-118910000D01*
X181150000Y-109190000D02*
X181150000Y-110190000D01*
X182650000Y-119410000D02*
X182650000Y-109190000D01*
X178630000Y-109190000D02*
X178630000Y-119410000D01*
X182650000Y-109190000D02*
X178630000Y-109190000D01*
X181150000Y-118410000D02*
X182650000Y-118410000D01*
X178630000Y-119410000D02*
X182650000Y-119410000D01*
%TO.C,K1*%
X178190000Y-96700000D02*
X175690000Y-96700000D01*
X181790000Y-81150000D02*
X181790000Y-100950000D01*
X172140000Y-90600000D02*
X172140000Y-86600000D01*
X173940000Y-92000000D02*
X173940000Y-93500000D01*
X181790000Y-81150000D02*
X175190000Y-81150000D01*
X173940000Y-85200000D02*
X170340000Y-85200000D01*
X181790000Y-100950000D02*
X166190000Y-100950000D01*
X175740000Y-90600000D02*
X172140000Y-90600000D01*
X173940000Y-93500000D02*
X176440000Y-98100000D01*
X179940000Y-88600000D02*
X175740000Y-88600000D01*
X170340000Y-92000000D02*
X170340000Y-85200000D01*
X173940000Y-92000000D02*
X170340000Y-92000000D01*
X172140000Y-90600000D02*
X175740000Y-86600000D01*
X173940000Y-85200000D02*
X173940000Y-84400000D01*
X169790000Y-96700000D02*
X172240000Y-96700000D01*
X167940000Y-86100000D02*
X167940000Y-88600000D01*
X172140000Y-86600000D02*
X175740000Y-86600000D01*
X172790000Y-81150000D02*
X166190000Y-81150000D01*
X172140000Y-88600000D02*
X167940000Y-88600000D01*
X179940000Y-88600000D02*
X179940000Y-86100000D01*
X175740000Y-86600000D02*
X175740000Y-90600000D01*
X166190000Y-100950000D02*
X166190000Y-81150000D01*
%TO.C,J1*%
X110730000Y-87495000D02*
X124730000Y-87495000D01*
X124730000Y-78810000D02*
X124730000Y-77605000D01*
X124730000Y-87495000D02*
X124730000Y-86290000D01*
X130500000Y-86290000D02*
X130500000Y-78810000D01*
X124730000Y-77605000D02*
X110730000Y-77605000D01*
X130500000Y-78810000D02*
X124730000Y-78810000D01*
X124730000Y-86290000D02*
X130500000Y-86290000D01*
%TO.C,D1*%
X162580000Y-96795000D02*
X162580000Y-93705000D01*
X157030000Y-95249538D02*
G75*
G03*
X162580000Y-96794830I2990000J-462D01*
G01*
X162580000Y-93705170D02*
G75*
G03*
X157030000Y-95250462I-2560000J-1544830D01*
G01*
X162520000Y-95250000D02*
G75*
G03*
X162520000Y-95250000I-2500000J0D01*
G01*
%TO.C,SW1*%
X156420000Y-110790000D02*
X156420000Y-107650000D01*
X156420000Y-105790000D02*
X156420000Y-103070000D01*
X156420000Y-103070000D02*
X168720000Y-103070000D01*
X168720000Y-112650000D02*
X168720000Y-115370000D01*
X168720000Y-115370000D02*
X156420000Y-115370000D01*
X168720000Y-107650000D02*
X168720000Y-110790000D01*
X156420000Y-115370000D02*
X156420000Y-112650000D01*
X168720000Y-103070000D02*
X168720000Y-105790000D01*
X167249050Y-109260000D02*
G75*
G03*
X167249050Y-109260000I-4579050J0D01*
G01*
%TO.C,J3*%
X168100000Y-119440000D02*
X160420000Y-119440000D01*
X160420000Y-116780000D02*
X160420000Y-119440000D01*
X170700000Y-118110000D02*
X170700000Y-119440000D01*
X168100000Y-116780000D02*
X168100000Y-119440000D01*
X168100000Y-116780000D02*
X160420000Y-116780000D01*
X170700000Y-119440000D02*
X169370000Y-119440000D01*
%TO.C,J6*%
X179010000Y-105410000D02*
X179010000Y-108010000D01*
X181670000Y-105410000D02*
X181670000Y-108010000D01*
X180340000Y-102810000D02*
X181670000Y-102810000D01*
X179010000Y-105410000D02*
X181670000Y-105410000D01*
X181670000Y-102810000D02*
X181670000Y-104140000D01*
X179010000Y-108010000D02*
X181670000Y-108010000D01*
%TO.C,R1*%
X160750000Y-79910000D02*
X154210000Y-79910000D01*
X160750000Y-82650000D02*
X160750000Y-79910000D01*
X161520000Y-81280000D02*
X160750000Y-81280000D01*
X153440000Y-81280000D02*
X154210000Y-81280000D01*
X154210000Y-79910000D02*
X154210000Y-82650000D01*
X154210000Y-82650000D02*
X160750000Y-82650000D01*
%TO.C,Q1*%
X164360000Y-84510000D02*
X160760000Y-84510000D01*
X160721522Y-84521522D02*
G75*
G03*
X162560000Y-88960000I1838478J-1838478D01*
G01*
X162560000Y-88960001D02*
G75*
G03*
X164398478Y-84521522I0J2600001D01*
G01*
%TO.C,U2*%
X148375000Y-84510000D02*
X146865000Y-84510000D01*
X143734000Y-81240000D02*
X143734000Y-91480000D01*
X148375000Y-91480000D02*
X143734000Y-91480000D01*
X146865000Y-81240000D02*
X146865000Y-91480000D01*
X148375000Y-88211000D02*
X146865000Y-88211000D01*
X148375000Y-81240000D02*
X148375000Y-91480000D01*
X148375000Y-81240000D02*
X143734000Y-81240000D01*
%TO.C,D3*%
X176710000Y-80210000D02*
X176710000Y-77270000D01*
X177730000Y-78740000D02*
X176710000Y-78740000D01*
X171270000Y-77270000D02*
X171270000Y-80210000D01*
X176710000Y-77270000D02*
X171270000Y-77270000D01*
X170250000Y-78740000D02*
X171270000Y-78740000D01*
X175810000Y-80210000D02*
X175810000Y-77270000D01*
X171270000Y-80210000D02*
X176710000Y-80210000D01*
X175930000Y-80210000D02*
X175930000Y-77270000D01*
X175690000Y-80210000D02*
X175690000Y-77270000D01*
%TO.C,C2*%
X155980000Y-85609000D02*
X156545000Y-85609000D01*
X152485000Y-86849000D02*
X153900000Y-86849000D01*
X155980000Y-85529000D02*
X156440000Y-85529000D01*
X153465000Y-90454775D02*
X153465000Y-89954775D01*
X155980000Y-86369000D02*
X157187000Y-86369000D01*
X155980000Y-85809000D02*
X156766000Y-85809000D01*
X152498000Y-86809000D02*
X153900000Y-86809000D01*
X152429000Y-87050000D02*
X153900000Y-87050000D01*
X154135000Y-85169000D02*
X155745000Y-85169000D01*
X155980000Y-86769000D02*
X157368000Y-86769000D01*
X153842000Y-85289000D02*
X156038000Y-85289000D01*
X152672000Y-86409000D02*
X153900000Y-86409000D01*
X155980000Y-85849000D02*
X156804000Y-85849000D01*
X155980000Y-86289000D02*
X157140000Y-86289000D01*
X153241000Y-85689000D02*
X153900000Y-85689000D01*
X152630000Y-86489000D02*
X153900000Y-86489000D01*
X155980000Y-86329000D02*
X157164000Y-86329000D01*
X152360000Y-87610000D02*
X157520000Y-87610000D01*
X154025000Y-85209000D02*
X155855000Y-85209000D01*
X155980000Y-86249000D02*
X157115000Y-86249000D01*
X153076000Y-85849000D02*
X153900000Y-85849000D01*
X154422000Y-85089000D02*
X155458000Y-85089000D01*
X153929000Y-85249000D02*
X155951000Y-85249000D01*
X152542000Y-86689000D02*
X153900000Y-86689000D01*
X155980000Y-86569000D02*
X157288000Y-86569000D01*
X155980000Y-86970000D02*
X157431000Y-86970000D01*
X152449000Y-86970000D02*
X153900000Y-86970000D01*
X155980000Y-85689000D02*
X156639000Y-85689000D01*
X155980000Y-87410000D02*
X157509000Y-87410000D01*
X152360000Y-87650000D02*
X157520000Y-87650000D01*
X155980000Y-86209000D02*
X157089000Y-86209000D01*
X152845000Y-86129000D02*
X153900000Y-86129000D01*
X155980000Y-86489000D02*
X157250000Y-86489000D01*
X152693000Y-86369000D02*
X153900000Y-86369000D01*
X155980000Y-87290000D02*
X157496000Y-87290000D01*
X155980000Y-85569000D02*
X156494000Y-85569000D01*
X155980000Y-86729000D02*
X157354000Y-86729000D01*
X152512000Y-86769000D02*
X153900000Y-86769000D01*
X152936000Y-86009000D02*
X153900000Y-86009000D01*
X155980000Y-86929000D02*
X157420000Y-86929000D01*
X153003000Y-85929000D02*
X153900000Y-85929000D01*
X155980000Y-86049000D02*
X156975000Y-86049000D01*
X155980000Y-86529000D02*
X157269000Y-86529000D01*
X155980000Y-85449000D02*
X156323000Y-85449000D01*
X153386000Y-85569000D02*
X153900000Y-85569000D01*
X152575000Y-86609000D02*
X153900000Y-86609000D01*
X152367000Y-87450000D02*
X157513000Y-87450000D01*
X155980000Y-85769000D02*
X156725000Y-85769000D01*
X155980000Y-86449000D02*
X157230000Y-86449000D01*
X155980000Y-87010000D02*
X157441000Y-87010000D01*
X153497000Y-85489000D02*
X153900000Y-85489000D01*
X153689000Y-85369000D02*
X153900000Y-85369000D01*
X152592000Y-86569000D02*
X153900000Y-86569000D01*
X152526000Y-86729000D02*
X153900000Y-86729000D01*
X155980000Y-87210000D02*
X157483000Y-87210000D01*
X152969000Y-85969000D02*
X153900000Y-85969000D01*
X152791000Y-86209000D02*
X153900000Y-86209000D01*
X153039000Y-85889000D02*
X153900000Y-85889000D01*
X153197000Y-85729000D02*
X153900000Y-85729000D01*
X155980000Y-85649000D02*
X156593000Y-85649000D01*
X155980000Y-87090000D02*
X157460000Y-87090000D01*
X152364000Y-87490000D02*
X157516000Y-87490000D01*
X155980000Y-86129000D02*
X157035000Y-86129000D01*
X152404000Y-87170000D02*
X153900000Y-87170000D01*
X152397000Y-87210000D02*
X153900000Y-87210000D01*
X153215000Y-90204775D02*
X153715000Y-90204775D01*
X152371000Y-87410000D02*
X153900000Y-87410000D01*
X155980000Y-86609000D02*
X157305000Y-86609000D01*
X152460000Y-86929000D02*
X153900000Y-86929000D01*
X152420000Y-87090000D02*
X153900000Y-87090000D01*
X155980000Y-87370000D02*
X157505000Y-87370000D01*
X155980000Y-87050000D02*
X157451000Y-87050000D01*
X155980000Y-85369000D02*
X156191000Y-85369000D01*
X155980000Y-87250000D02*
X157490000Y-87250000D01*
X153114000Y-85809000D02*
X153900000Y-85809000D01*
X155980000Y-87330000D02*
X157501000Y-87330000D01*
X155980000Y-87170000D02*
X157476000Y-87170000D01*
X155980000Y-86009000D02*
X156944000Y-86009000D01*
X152650000Y-86449000D02*
X153900000Y-86449000D01*
X155980000Y-87130000D02*
X157468000Y-87130000D01*
X155980000Y-85889000D02*
X156841000Y-85889000D01*
X153440000Y-85529000D02*
X153900000Y-85529000D01*
X153287000Y-85649000D02*
X153900000Y-85649000D01*
X152384000Y-87290000D02*
X153900000Y-87290000D01*
X155980000Y-85729000D02*
X156683000Y-85729000D01*
X155980000Y-86649000D02*
X157322000Y-86649000D01*
X152472000Y-86889000D02*
X153900000Y-86889000D01*
X152558000Y-86649000D02*
X153900000Y-86649000D01*
X152740000Y-86289000D02*
X153900000Y-86289000D01*
X155980000Y-85409000D02*
X156259000Y-85409000D01*
X152905000Y-86049000D02*
X153900000Y-86049000D01*
X155980000Y-85489000D02*
X156383000Y-85489000D01*
X152611000Y-86529000D02*
X153900000Y-86529000D01*
X152379000Y-87330000D02*
X153900000Y-87330000D01*
X152716000Y-86329000D02*
X153900000Y-86329000D01*
X152818000Y-86169000D02*
X153900000Y-86169000D01*
X155980000Y-86169000D02*
X157062000Y-86169000D01*
X152362000Y-87530000D02*
X157518000Y-87530000D01*
X155980000Y-86889000D02*
X157408000Y-86889000D01*
X153557000Y-85449000D02*
X153900000Y-85449000D01*
X152439000Y-87010000D02*
X153900000Y-87010000D01*
X154656000Y-85049000D02*
X155224000Y-85049000D01*
X155980000Y-86809000D02*
X157382000Y-86809000D01*
X153155000Y-85769000D02*
X153900000Y-85769000D01*
X152765000Y-86249000D02*
X153900000Y-86249000D01*
X153621000Y-85409000D02*
X153900000Y-85409000D01*
X152875000Y-86089000D02*
X153900000Y-86089000D01*
X152390000Y-87250000D02*
X153900000Y-87250000D01*
X153335000Y-85609000D02*
X153900000Y-85609000D01*
X155980000Y-86089000D02*
X157005000Y-86089000D01*
X152412000Y-87130000D02*
X153900000Y-87130000D01*
X154263000Y-85129000D02*
X155617000Y-85129000D01*
X155980000Y-86849000D02*
X157395000Y-86849000D01*
X153762000Y-85329000D02*
X156118000Y-85329000D01*
X155980000Y-85969000D02*
X156911000Y-85969000D01*
X155980000Y-86689000D02*
X157338000Y-86689000D01*
X155980000Y-85929000D02*
X156877000Y-85929000D01*
X152375000Y-87370000D02*
X153900000Y-87370000D01*
X152361000Y-87570000D02*
X157519000Y-87570000D01*
X155980000Y-86409000D02*
X157208000Y-86409000D01*
X157560000Y-87650000D02*
G75*
G03*
X157560000Y-87650000I-2620000J0D01*
G01*
%TO.C,U1*%
X107730000Y-115910000D02*
X108130000Y-115910000D01*
X138230000Y-94910000D02*
X138630000Y-94910000D01*
X120430000Y-115910000D02*
X120830000Y-115910000D01*
X102897000Y-112903000D02*
X100230000Y-112903000D01*
X115330000Y-115910000D02*
X115730000Y-115910000D01*
X102897000Y-115910000D02*
X102897000Y-112903000D01*
X100230000Y-115910000D02*
X100230000Y-94910000D01*
X151230000Y-106910000D02*
X151230000Y-106510000D01*
X135730000Y-115910000D02*
X136130000Y-115910000D01*
X112830000Y-94910000D02*
X113230000Y-94910000D01*
X115330000Y-94910000D02*
X115730000Y-94910000D01*
X125530000Y-115910000D02*
X125930000Y-115910000D01*
X143330000Y-115910000D02*
X143730000Y-115910000D01*
X117930000Y-94910000D02*
X118330000Y-94910000D01*
X135730000Y-94910000D02*
X136130000Y-94910000D01*
X133130000Y-115910000D02*
X133530000Y-115910000D01*
X110330000Y-94910000D02*
X110730000Y-94910000D01*
X140830000Y-94910000D02*
X141230000Y-94910000D01*
X117930000Y-115910000D02*
X118330000Y-115910000D01*
X102630000Y-94910000D02*
X103030000Y-94910000D01*
X105230000Y-94910000D02*
X105630000Y-94910000D01*
X151230000Y-109110000D02*
X151230000Y-115910000D01*
X125530000Y-94910000D02*
X125930000Y-94910000D01*
X148430000Y-115910000D02*
X148830000Y-115910000D01*
X128030000Y-94910000D02*
X128430000Y-94910000D01*
X143330000Y-94910000D02*
X143730000Y-94910000D01*
X130630000Y-94910000D02*
X131030000Y-94910000D01*
X145830000Y-115910000D02*
X146230000Y-115910000D01*
X151230000Y-94910000D02*
X151230000Y-101710000D01*
X120430000Y-94910000D02*
X120830000Y-94910000D01*
X110330000Y-115910000D02*
X110730000Y-115910000D01*
X107730000Y-94910000D02*
X108130000Y-94910000D01*
X100230000Y-94910000D02*
X100530000Y-94910000D01*
X138230000Y-115910000D02*
X138630000Y-115910000D01*
X123030000Y-94910000D02*
X123430000Y-94910000D01*
X100230000Y-115910000D02*
X100530000Y-115910000D01*
X123030000Y-115910000D02*
X123430000Y-115910000D01*
X151230000Y-104310000D02*
X151230000Y-103910000D01*
X148430000Y-94910000D02*
X148830000Y-94910000D01*
X112830000Y-115910000D02*
X113230000Y-115910000D01*
X105230000Y-115910000D02*
X105630000Y-115910000D01*
X133130000Y-94910000D02*
X133530000Y-94910000D01*
X128030000Y-115910000D02*
X128430000Y-115910000D01*
X130630000Y-115910000D02*
X131030000Y-115910000D01*
X102630000Y-115910000D02*
X103030000Y-115910000D01*
X140830000Y-115910000D02*
X141230000Y-115910000D01*
X145830000Y-94910000D02*
X146230000Y-94910000D01*
%TD*%
M02*
