%TF.GenerationSoftware,KiCad,Pcbnew,(6.0.9)*%
%TF.CreationDate,2022-11-10T13:56:48+05:30*%
%TF.ProjectId,Kajimba,4b616a69-6d62-4612-9e6b-696361645f70,rev?*%
%TF.SameCoordinates,Original*%
%TF.FileFunction,Soldermask,Bot*%
%TF.FilePolarity,Negative*%
%FSLAX46Y46*%
G04 Gerber Fmt 4.6, Leading zero omitted, Abs format (unit mm)*
G04 Created by KiCad (PCBNEW (6.0.9)) date 2022-11-10 13:56:48*
%MOMM*%
%LPD*%
G01*
G04 APERTURE LIST*
G04 Aperture macros list*
%AMRoundRect*
0 Rectangle with rounded corners*
0 $1 Rounding radius*
0 $2 $3 $4 $5 $6 $7 $8 $9 X,Y pos of 4 corners*
0 Add a 4 corners polygon primitive as box body*
4,1,4,$2,$3,$4,$5,$6,$7,$8,$9,$2,$3,0*
0 Add four circle primitives for the rounded corners*
1,1,$1+$1,$2,$3*
1,1,$1+$1,$4,$5*
1,1,$1+$1,$6,$7*
1,1,$1+$1,$8,$9*
0 Add four rect primitives between the rounded corners*
20,1,$1+$1,$2,$3,$4,$5,0*
20,1,$1+$1,$4,$5,$6,$7,0*
20,1,$1+$1,$6,$7,$8,$9,0*
20,1,$1+$1,$8,$9,$2,$3,0*%
G04 Aperture macros list end*
%ADD10R,2.200000X2.200000*%
%ADD11O,2.200000X2.200000*%
%ADD12R,1.600000X1.600000*%
%ADD13C,1.600000*%
%ADD14R,1.700000X1.700000*%
%ADD15O,1.700000X1.700000*%
%ADD16RoundRect,0.250000X0.725000X-0.600000X0.725000X0.600000X-0.725000X0.600000X-0.725000X-0.600000X0*%
%ADD17O,1.950000X1.700000*%
%ADD18C,3.000000*%
%ADD19C,2.500000*%
%ADD20R,2.020000X5.020000*%
%ADD21O,2.020000X5.020000*%
%ADD22R,1.800000X1.800000*%
%ADD23C,1.800000*%
%ADD24O,3.048000X1.850000*%
%ADD25O,1.600000X1.600000*%
%ADD26R,1.050000X1.500000*%
%ADD27O,1.050000X1.500000*%
%ADD28R,2.000000X1.905000*%
%ADD29O,2.000000X1.905000*%
%ADD30O,1.800000X1.800000*%
%ADD31O,1.500000X1.500000*%
G04 APERTURE END LIST*
D10*
%TO.C,D2*%
X143510000Y-77470000D03*
D11*
X133350000Y-77470000D03*
%TD*%
D12*
%TO.C,C1*%
X135890000Y-85090000D03*
D13*
X135890000Y-87590000D03*
%TD*%
D14*
%TO.C,J4*%
X173990000Y-110490000D03*
%TD*%
%TO.C,J5*%
X176149000Y-118110000D03*
D15*
X173609000Y-118110000D03*
%TD*%
D16*
%TO.C,J2*%
X180340000Y-116800000D03*
D17*
X180340000Y-114300000D03*
X180340000Y-111800000D03*
%TD*%
D18*
%TO.C,K1*%
X173990000Y-82550000D03*
D19*
X167940000Y-84500000D03*
D18*
X167940000Y-96700000D03*
X179990000Y-96750000D03*
D19*
X179940000Y-84500000D03*
%TD*%
D20*
%TO.C,J1*%
X129280000Y-82550000D03*
D21*
X124100000Y-82550000D03*
%TD*%
D22*
%TO.C,D1*%
X161290000Y-95250000D03*
D23*
X158750000Y-95250000D03*
%TD*%
D24*
%TO.C,SW1*%
X156320000Y-106720000D03*
X168820000Y-106720000D03*
X156320000Y-111720000D03*
X168820000Y-111720000D03*
%TD*%
D14*
%TO.C,J3*%
X169370000Y-118110000D03*
D15*
X166830000Y-118110000D03*
X164290000Y-118110000D03*
X161750000Y-118110000D03*
%TD*%
D14*
%TO.C,J6*%
X180340000Y-104140000D03*
D15*
X180340000Y-106680000D03*
%TD*%
D13*
%TO.C,R1*%
X152400000Y-81280000D03*
D25*
X162560000Y-81280000D03*
%TD*%
D26*
%TO.C,Q1*%
X163830000Y-86360000D03*
D27*
X162560000Y-86360000D03*
X161290000Y-86360000D03*
%TD*%
D28*
%TO.C,U2*%
X145105000Y-83820000D03*
D29*
X145105000Y-86360000D03*
X145105000Y-88900000D03*
%TD*%
D10*
%TO.C,D3*%
X179070000Y-78740000D03*
D11*
X168910000Y-78740000D03*
%TD*%
D12*
%TO.C,C2*%
X154940000Y-88900000D03*
D13*
X154940000Y-86400000D03*
%TD*%
D30*
%TO.C,U1*%
X101730000Y-102685000D03*
D31*
X104760000Y-102985000D03*
D30*
X101730000Y-108135000D03*
D31*
X104760000Y-107835000D03*
D15*
X101600000Y-114300000D03*
X104140000Y-114300000D03*
D14*
X106680000Y-114300000D03*
D15*
X109220000Y-114300000D03*
X111760000Y-114300000D03*
X114300000Y-114300000D03*
X116840000Y-114300000D03*
D14*
X119380000Y-114300000D03*
D15*
X121920000Y-114300000D03*
X124460000Y-114300000D03*
X127000000Y-114300000D03*
X129540000Y-114300000D03*
D14*
X132080000Y-114300000D03*
D15*
X134620000Y-114300000D03*
X137160000Y-114300000D03*
X139700000Y-114300000D03*
X142240000Y-114300000D03*
D14*
X144780000Y-114300000D03*
D15*
X147320000Y-114300000D03*
X149860000Y-114300000D03*
X149860000Y-96520000D03*
X147320000Y-96520000D03*
D14*
X144780000Y-96520000D03*
D15*
X142240000Y-96520000D03*
X139700000Y-96520000D03*
X137160000Y-96520000D03*
X134620000Y-96520000D03*
D14*
X132080000Y-96520000D03*
D15*
X129540000Y-96520000D03*
X127000000Y-96520000D03*
X124460000Y-96520000D03*
X121920000Y-96520000D03*
D14*
X119380000Y-96520000D03*
D15*
X116840000Y-96520000D03*
X114300000Y-96520000D03*
X111760000Y-96520000D03*
X109220000Y-96520000D03*
D14*
X106680000Y-96520000D03*
D15*
X104140000Y-96520000D03*
X101600000Y-96520000D03*
X149630000Y-107950000D03*
D14*
X149630000Y-105410000D03*
D15*
X149630000Y-102870000D03*
%TD*%
M02*
