M48
; DRILL file {KiCad (6.0.9)} date Thu Nov 10 13:57:16 2022
; FORMAT={-:-/ absolute / inch / decimal}
; #@! TF.CreationDate,2022-11-10T13:57:16+05:30
; #@! TF.GenerationSoftware,Kicad,Pcbnew,(6.0.9)
; #@! TF.FileFunction,Plated,1,2,PTH
FMAT,2
INCH
; #@! TA.AperFunction,Plated,PTH,ComponentDrill
T1C0.0295
; #@! TA.AperFunction,Plated,PTH,ComponentDrill
T2C0.0315
; #@! TA.AperFunction,Plated,PTH,ComponentDrill
T3C0.0354
; #@! TA.AperFunction,Plated,PTH,ComponentDrill
T4C0.0374
; #@! TA.AperFunction,Plated,PTH,ComponentDrill
T5C0.0394
; #@! TA.AperFunction,Plated,PTH,ComponentDrill
T6C0.0402
; #@! TA.AperFunction,Plated,PTH,ComponentDrill
T7C0.0433
; #@! TA.AperFunction,Plated,PTH,ComponentDrill
T8C0.0512
%
G90
G05
T1
X6.35Y-3.4
X6.4Y-3.4
X6.45Y-3.4
T2
X5.35Y-3.35
X5.35Y-3.4484
X6.0Y-3.2
X6.1Y-3.4016
X6.1Y-3.5
X6.4Y-3.2
T3
X6.25Y-3.75
X6.35Y-3.75
T4
X7.1Y-4.4016
X7.1Y-4.5
X7.1Y-4.5984
T5
X6.3681Y-4.65
X6.4681Y-4.65
X6.5681Y-4.65
X6.6118Y-3.3268
X6.6681Y-4.65
X6.835Y-4.65
X6.85Y-4.35
X6.935Y-4.65
X7.0843Y-3.3268
X7.1Y-4.1
X7.1Y-4.2
T6
X4.0Y-3.8
X4.0Y-4.5
X4.1Y-3.8
X4.1Y-4.5
X4.2Y-3.8
X4.2Y-4.5
X4.3Y-3.8
X4.3Y-4.5
X4.4Y-3.8
X4.4Y-4.5
X4.5Y-3.8
X4.5Y-4.5
X4.6Y-3.8
X4.6Y-4.5
X4.7Y-3.8
X4.7Y-4.5
X4.8Y-3.8
X4.8Y-4.5
X4.9Y-3.8
X4.9Y-4.5
X5.0Y-3.8
X5.0Y-4.5
X5.1Y-3.8
X5.1Y-4.5
X5.2Y-3.8
X5.2Y-4.5
X5.3Y-3.8
X5.3Y-4.5
X5.4Y-3.8
X5.4Y-4.5
X5.5Y-3.8
X5.5Y-4.5
X5.6Y-3.8
X5.6Y-4.5
X5.7Y-3.8
X5.7Y-4.5
X5.8Y-3.8
X5.8Y-4.5
X5.8909Y-4.05
X5.8909Y-4.15
X5.8909Y-4.25
X5.9Y-3.8
X5.9Y-4.5
T7
X5.25Y-3.05
X5.65Y-3.05
X5.7128Y-3.3
X5.7128Y-3.4
X5.7128Y-3.5
X6.65Y-3.1
X7.05Y-3.1
T8
X6.1543Y-4.2016
X6.1543Y-4.3984
X6.6118Y-3.8071
X6.6465Y-4.2016
X6.6465Y-4.3984
X6.85Y-3.25
X7.0862Y-3.8091
T6
G00X4.8858Y-3.1909
M15
G01X4.8858Y-3.3091
M16
G05
G00X5.0898Y-3.1909
M15
G01X5.0898Y-3.3091
M16
G05
T0
M30
